G04 EAGLE Gerber RS-274X export*
G75*
%MOMM*%
%FSLAX34Y34*%
%LPD*%
%IN*%
%IPPOS*%
%AMOC8*
5,1,8,0,0,1.08239X$1,22.5*%
G01*
G04 Define Apertures*
%ADD10C,0.254000*%
D10*
X-40000Y-260000D02*
X-39848Y-263486D01*
X-39392Y-266946D01*
X-38637Y-270353D01*
X-37588Y-273681D01*
X-36252Y-276905D01*
X-34641Y-280000D01*
X-32766Y-282943D01*
X-30642Y-285712D01*
X-28284Y-288284D01*
X-25712Y-290642D01*
X-22943Y-292766D01*
X-20000Y-294641D01*
X-16905Y-296252D01*
X-13681Y-297588D01*
X-10353Y-298637D01*
X-6946Y-299392D01*
X-3486Y-299848D01*
X0Y-300000D01*
X319790Y-300000D01*
X323276Y-299848D01*
X326736Y-299392D01*
X330143Y-298637D01*
X333471Y-297588D01*
X336695Y-296252D01*
X339790Y-294641D01*
X342733Y-292766D01*
X345502Y-290642D01*
X348074Y-288284D01*
X350432Y-285712D01*
X352556Y-282943D01*
X354431Y-280000D01*
X356042Y-276905D01*
X357378Y-273681D01*
X358427Y-270353D01*
X359182Y-266946D01*
X359638Y-263486D01*
X359790Y-260000D01*
X359790Y0D01*
X359973Y261469D01*
X359848Y263486D01*
X359392Y266946D01*
X358637Y270353D01*
X357588Y273681D01*
X356252Y276905D01*
X354641Y280000D01*
X352766Y282943D01*
X350642Y285711D01*
X348284Y288284D01*
X345712Y290642D01*
X342943Y292766D01*
X340000Y294641D01*
X336905Y296252D01*
X333681Y297588D01*
X330353Y298637D01*
X326946Y299392D01*
X323486Y299848D01*
X320000Y300000D01*
X0Y300000D01*
X-3486Y299848D01*
X-6946Y299392D01*
X-10353Y298637D01*
X-13681Y297588D01*
X-16905Y296252D01*
X-20000Y294641D01*
X-22943Y292766D01*
X-25712Y290642D01*
X-28284Y288284D01*
X-30642Y285712D01*
X-32766Y282943D01*
X-34641Y280000D01*
X-36252Y276905D01*
X-37588Y273681D01*
X-38637Y270353D01*
X-39392Y266946D01*
X-39848Y263486D01*
X-40000Y260000D01*
X-40000Y-260000D01*
M02*
