G04 EAGLE Gerber RS-274X export*
G75*
%MOMM*%
%FSLAX34Y34*%
%LPD*%
%INSilkscreen Top*%
%IPPOS*%
%AMOC8*
5,1,8,0,0,1.08239X$1,22.5*%
G01*
G04 Define Apertures*
%ADD10C,0.127000*%
%ADD11C,0.152400*%
%ADD12R,0.508000X2.032000*%
%ADD13R,0.635000X0.508000*%
%ADD14C,0.200000*%
%ADD15C,0.500000*%
%ADD16C,0.120000*%
%ADD17C,0.254000*%
G36*
X-2929Y-124022D02*
X-2461Y-123988D01*
X-2010Y-123933D01*
X-1575Y-123854D01*
X-1157Y-123754D01*
X-755Y-123631D01*
X-370Y-123486D01*
X-2Y-123319D01*
X348Y-123130D01*
X677Y-122922D01*
X985Y-122693D01*
X1273Y-122443D01*
X1539Y-122174D01*
X1785Y-121884D01*
X2010Y-121574D01*
X2214Y-121243D01*
X2396Y-120895D01*
X2553Y-120531D01*
X2686Y-120151D01*
X2795Y-119755D01*
X2880Y-119344D01*
X2941Y-118917D01*
X2977Y-118474D01*
X2989Y-118016D01*
X2976Y-117567D01*
X2937Y-117133D01*
X2872Y-116712D01*
X2781Y-116305D01*
X2664Y-115911D01*
X2521Y-115532D01*
X2352Y-115166D01*
X2157Y-114815D01*
X1937Y-114479D01*
X1693Y-114163D01*
X1426Y-113867D01*
X1135Y-113589D01*
X819Y-113331D01*
X480Y-113093D01*
X118Y-112873D01*
X-269Y-112673D01*
X-952Y-114039D01*
X-641Y-114208D01*
X-351Y-114386D01*
X-80Y-114574D01*
X171Y-114772D01*
X401Y-114981D01*
X612Y-115199D01*
X802Y-115428D01*
X973Y-115666D01*
X1123Y-115915D01*
X1253Y-116174D01*
X1363Y-116442D01*
X1454Y-116721D01*
X1524Y-117010D01*
X1574Y-117309D01*
X1604Y-117618D01*
X1614Y-117937D01*
X1593Y-118430D01*
X1528Y-118896D01*
X1420Y-119337D01*
X1269Y-119751D01*
X1075Y-120139D01*
X838Y-120501D01*
X558Y-120837D01*
X235Y-121147D01*
X-124Y-121425D01*
X-511Y-121666D01*
X-925Y-121870D01*
X-1367Y-122037D01*
X-1837Y-122167D01*
X-2335Y-122260D01*
X-2860Y-122315D01*
X-3413Y-122334D01*
X-3972Y-122316D01*
X-4500Y-122263D01*
X-4997Y-122174D01*
X-5464Y-122049D01*
X-5900Y-121889D01*
X-6306Y-121693D01*
X-6681Y-121462D01*
X-7026Y-121195D01*
X-7335Y-120896D01*
X-7603Y-120569D01*
X-7829Y-120213D01*
X-8015Y-119829D01*
X-8159Y-119416D01*
X-8262Y-118975D01*
X-8324Y-118505D01*
X-8344Y-118007D01*
X-8335Y-117686D01*
X-8309Y-117377D01*
X-8264Y-117078D01*
X-8202Y-116791D01*
X-8122Y-116514D01*
X-8024Y-116249D01*
X-7909Y-115995D01*
X-7775Y-115752D01*
X-7625Y-115522D01*
X-7459Y-115309D01*
X-7277Y-115112D01*
X-7079Y-114932D01*
X-6865Y-114767D01*
X-6635Y-114619D01*
X-6390Y-114488D01*
X-6128Y-114372D01*
X-6654Y-112787D01*
X-7021Y-112953D01*
X-7365Y-113142D01*
X-7686Y-113352D01*
X-7983Y-113584D01*
X-8257Y-113838D01*
X-8508Y-114114D01*
X-8736Y-114412D01*
X-8940Y-114731D01*
X-9121Y-115072D01*
X-9277Y-115433D01*
X-9410Y-115814D01*
X-9518Y-116216D01*
X-9602Y-116638D01*
X-9663Y-117080D01*
X-9699Y-117542D01*
X-9711Y-118025D01*
X-9704Y-118372D01*
X-9685Y-118710D01*
X-9652Y-119039D01*
X-9606Y-119358D01*
X-9547Y-119667D01*
X-9475Y-119967D01*
X-9391Y-120258D01*
X-9292Y-120538D01*
X-9181Y-120809D01*
X-9057Y-121071D01*
X-8920Y-121323D01*
X-8770Y-121565D01*
X-8430Y-122021D01*
X-8038Y-122439D01*
X-7600Y-122812D01*
X-7121Y-123136D01*
X-6603Y-123410D01*
X-6329Y-123529D01*
X-6045Y-123634D01*
X-5751Y-123728D01*
X-5447Y-123809D01*
X-5133Y-123877D01*
X-4809Y-123933D01*
X-4475Y-123977D01*
X-4131Y-124008D01*
X-3777Y-124027D01*
X-3413Y-124033D01*
X-2929Y-124022D01*
G37*
G36*
X2814Y-102875D02*
X1474Y-102875D01*
X1474Y-105879D01*
X-9527Y-105879D01*
X-9527Y-107333D01*
X-7521Y-110250D01*
X-6032Y-110250D01*
X-8020Y-107464D01*
X1474Y-107464D01*
X1474Y-110609D01*
X2814Y-110609D01*
X2814Y-102875D01*
G37*
G36*
X65328Y5932D02*
X66036Y5982D01*
X66697Y6065D01*
X67311Y6182D01*
X67879Y6332D01*
X68401Y6516D01*
X68876Y6733D01*
X69304Y6984D01*
X69684Y7267D01*
X70013Y7584D01*
X70291Y7934D01*
X70519Y8317D01*
X70696Y8733D01*
X70823Y9183D01*
X70867Y9420D01*
X70899Y9665D01*
X70918Y9919D01*
X70924Y10180D01*
X70918Y10442D01*
X70899Y10696D01*
X70867Y10942D01*
X70822Y11180D01*
X70695Y11631D01*
X70517Y12049D01*
X70288Y12435D01*
X70008Y12789D01*
X69677Y13110D01*
X69295Y13399D01*
X68865Y13655D01*
X68389Y13876D01*
X67868Y14064D01*
X67300Y14217D01*
X66687Y14336D01*
X66029Y14422D01*
X65324Y14473D01*
X64574Y14490D01*
X63812Y14473D01*
X63098Y14425D01*
X62433Y14344D01*
X61815Y14230D01*
X61246Y14084D01*
X60725Y13906D01*
X60252Y13695D01*
X59827Y13452D01*
X59451Y13174D01*
X59126Y12861D01*
X58850Y12513D01*
X58625Y12128D01*
X58450Y11708D01*
X58381Y11484D01*
X58324Y11252D01*
X58281Y11011D01*
X58249Y10760D01*
X58231Y10501D01*
X58224Y10233D01*
X58231Y9957D01*
X58249Y9691D01*
X58280Y9435D01*
X58323Y9187D01*
X58379Y8949D01*
X58447Y8721D01*
X58621Y8292D01*
X58844Y7901D01*
X59116Y7547D01*
X59438Y7231D01*
X59810Y6953D01*
X60231Y6710D01*
X60702Y6499D01*
X61223Y6320D01*
X61793Y6175D01*
X62414Y6061D01*
X63084Y5980D01*
X63804Y5931D01*
X64574Y5915D01*
X65328Y5932D01*
G37*
%LPC*%
G36*
X63921Y7519D02*
X63316Y7549D01*
X62759Y7598D01*
X62249Y7668D01*
X61787Y7757D01*
X61372Y7866D01*
X61005Y7995D01*
X60685Y8144D01*
X60408Y8316D01*
X60168Y8513D01*
X59965Y8736D01*
X59799Y8984D01*
X59669Y9258D01*
X59577Y9557D01*
X59522Y9882D01*
X59503Y10233D01*
X59522Y10575D01*
X59578Y10892D01*
X59672Y11184D01*
X59803Y11452D01*
X59972Y11694D01*
X60178Y11911D01*
X60422Y12102D01*
X60703Y12269D01*
X61026Y12414D01*
X61395Y12540D01*
X61810Y12646D01*
X62271Y12732D01*
X62778Y12800D01*
X63331Y12848D01*
X63929Y12877D01*
X64574Y12887D01*
X65197Y12877D01*
X65779Y12846D01*
X66318Y12796D01*
X66816Y12725D01*
X67273Y12634D01*
X67688Y12522D01*
X68061Y12391D01*
X68393Y12239D01*
X68684Y12065D01*
X68937Y11868D01*
X69151Y11648D01*
X69326Y11404D01*
X69462Y11138D01*
X69559Y10848D01*
X69617Y10535D01*
X69637Y10198D01*
X69618Y9859D01*
X69561Y9545D01*
X69465Y9254D01*
X69332Y8986D01*
X69161Y8742D01*
X68952Y8522D01*
X68705Y8326D01*
X68419Y8153D01*
X68093Y8002D01*
X67722Y7871D01*
X67308Y7761D01*
X66849Y7670D01*
X66347Y7600D01*
X65800Y7549D01*
X65209Y7519D01*
X64574Y7509D01*
X63921Y7519D01*
G37*
%LPD*%
G36*
X65006Y-16801D02*
X65474Y-16768D01*
X65925Y-16712D01*
X66360Y-16634D01*
X66778Y-16533D01*
X67180Y-16411D01*
X67565Y-16266D01*
X67933Y-16098D01*
X68283Y-15910D01*
X68612Y-15701D01*
X68920Y-15472D01*
X69208Y-15223D01*
X69474Y-14953D01*
X69720Y-14663D01*
X69945Y-14353D01*
X70149Y-14023D01*
X70331Y-13674D01*
X70488Y-13310D01*
X70621Y-12930D01*
X70730Y-12535D01*
X70815Y-12124D01*
X70876Y-11696D01*
X70912Y-11254D01*
X70924Y-10795D01*
X70911Y-10347D01*
X70872Y-9912D01*
X70807Y-9491D01*
X70716Y-9084D01*
X70599Y-8691D01*
X70456Y-8311D01*
X70287Y-7946D01*
X70092Y-7594D01*
X69872Y-7259D01*
X69628Y-6943D01*
X69361Y-6646D01*
X69070Y-6369D01*
X68754Y-6111D01*
X68415Y-5872D01*
X68053Y-5653D01*
X67666Y-5452D01*
X66983Y-6819D01*
X67294Y-6987D01*
X67584Y-7165D01*
X67855Y-7353D01*
X68106Y-7552D01*
X68336Y-7760D01*
X68547Y-7979D01*
X68737Y-8207D01*
X68908Y-8446D01*
X69058Y-8694D01*
X69188Y-8953D01*
X69298Y-9222D01*
X69389Y-9501D01*
X69459Y-9789D01*
X69509Y-10088D01*
X69539Y-10397D01*
X69549Y-10716D01*
X69528Y-11209D01*
X69463Y-11676D01*
X69355Y-12116D01*
X69204Y-12530D01*
X69010Y-12919D01*
X68773Y-13281D01*
X68493Y-13617D01*
X68170Y-13926D01*
X67811Y-14204D01*
X67424Y-14446D01*
X67010Y-14650D01*
X66568Y-14816D01*
X66098Y-14946D01*
X65600Y-15039D01*
X65075Y-15095D01*
X64522Y-15113D01*
X63963Y-15095D01*
X63435Y-15042D01*
X62938Y-14953D01*
X62471Y-14828D01*
X62035Y-14668D01*
X61629Y-14473D01*
X61254Y-14241D01*
X60909Y-13974D01*
X60600Y-13676D01*
X60332Y-13348D01*
X60106Y-12992D01*
X59920Y-12608D01*
X59776Y-12195D01*
X59673Y-11754D01*
X59611Y-11285D01*
X59591Y-10786D01*
X59600Y-10466D01*
X59626Y-10156D01*
X59671Y-9858D01*
X59733Y-9570D01*
X59813Y-9294D01*
X59911Y-9028D01*
X60027Y-8774D01*
X60160Y-8531D01*
X60310Y-8302D01*
X60476Y-8088D01*
X60658Y-7892D01*
X60856Y-7711D01*
X61070Y-7547D01*
X61300Y-7399D01*
X61545Y-7267D01*
X61807Y-7152D01*
X61281Y-5566D01*
X60914Y-5733D01*
X60570Y-5921D01*
X60249Y-6131D01*
X59952Y-6363D01*
X59678Y-6617D01*
X59427Y-6893D01*
X59199Y-7191D01*
X58995Y-7511D01*
X58814Y-7851D01*
X58658Y-8212D01*
X58525Y-8594D01*
X58417Y-8995D01*
X58333Y-9417D01*
X58272Y-9859D01*
X58236Y-10321D01*
X58224Y-10804D01*
X58231Y-11152D01*
X58250Y-11490D01*
X58283Y-11818D01*
X58329Y-12137D01*
X58388Y-12447D01*
X58460Y-12747D01*
X58545Y-13037D01*
X58643Y-13318D01*
X58754Y-13589D01*
X58878Y-13850D01*
X59015Y-14102D01*
X59165Y-14345D01*
X59505Y-14801D01*
X59897Y-15218D01*
X60335Y-15592D01*
X60814Y-15916D01*
X61332Y-16190D01*
X61606Y-16308D01*
X61890Y-16414D01*
X62184Y-16507D01*
X62488Y-16588D01*
X62802Y-16657D01*
X63126Y-16713D01*
X63460Y-16756D01*
X63804Y-16787D01*
X64158Y-16806D01*
X64522Y-16812D01*
X65006Y-16801D01*
G37*
G36*
X70749Y4346D02*
X69409Y4346D01*
X69409Y1342D01*
X58408Y1342D01*
X58408Y-112D01*
X60414Y-3029D01*
X61903Y-3029D01*
X59915Y-244D01*
X69409Y-244D01*
X69409Y-3388D01*
X70749Y-3388D01*
X70749Y4346D01*
G37*
G36*
X200692Y-3429D02*
X201160Y-3396D01*
X201611Y-3340D01*
X202046Y-3262D01*
X202464Y-3162D01*
X202866Y-3039D01*
X203251Y-2894D01*
X203619Y-2727D01*
X203969Y-2538D01*
X204298Y-2329D01*
X204606Y-2100D01*
X204894Y-1851D01*
X205160Y-1581D01*
X205406Y-1291D01*
X205631Y-981D01*
X205835Y-651D01*
X206017Y-302D01*
X206174Y62D01*
X206307Y442D01*
X206416Y837D01*
X206501Y1248D01*
X206562Y1675D01*
X206598Y2118D01*
X206610Y2577D01*
X206597Y3025D01*
X206558Y3460D01*
X206493Y3881D01*
X206402Y4288D01*
X206285Y4681D01*
X206142Y5061D01*
X205973Y5426D01*
X205778Y5778D01*
X205558Y6113D01*
X205314Y6429D01*
X205047Y6726D01*
X204756Y7003D01*
X204440Y7261D01*
X204101Y7500D01*
X203739Y7719D01*
X203352Y7919D01*
X202669Y6553D01*
X202980Y6385D01*
X203270Y6207D01*
X203541Y6018D01*
X203792Y5820D01*
X204022Y5612D01*
X204233Y5393D01*
X204423Y5165D01*
X204594Y4926D01*
X204744Y4678D01*
X204874Y4419D01*
X204984Y4150D01*
X205075Y3871D01*
X205145Y3583D01*
X205195Y3284D01*
X205225Y2975D01*
X205235Y2656D01*
X205214Y2163D01*
X205149Y1696D01*
X205041Y1256D01*
X204890Y841D01*
X204696Y453D01*
X204459Y91D01*
X204179Y-245D01*
X203856Y-554D01*
X203497Y-833D01*
X203110Y-1074D01*
X202696Y-1278D01*
X202254Y-1445D01*
X201784Y-1574D01*
X201286Y-1667D01*
X200761Y-1723D01*
X200208Y-1741D01*
X199649Y-1723D01*
X199121Y-1670D01*
X198624Y-1581D01*
X198157Y-1457D01*
X197721Y-1296D01*
X197315Y-1101D01*
X196940Y-869D01*
X196595Y-603D01*
X196286Y-304D01*
X196018Y24D01*
X195792Y379D01*
X195606Y764D01*
X195462Y1176D01*
X195359Y1618D01*
X195297Y2087D01*
X195277Y2586D01*
X195286Y2906D01*
X195312Y3216D01*
X195357Y3514D01*
X195419Y3802D01*
X195499Y4078D01*
X195597Y4344D01*
X195713Y4598D01*
X195846Y4841D01*
X195996Y5070D01*
X196162Y5283D01*
X196344Y5480D01*
X196542Y5661D01*
X196756Y5825D01*
X196986Y5973D01*
X197231Y6105D01*
X197493Y6220D01*
X196967Y7806D01*
X196600Y7639D01*
X196256Y7451D01*
X195935Y7241D01*
X195638Y7009D01*
X195364Y6755D01*
X195113Y6479D01*
X194885Y6181D01*
X194681Y5861D01*
X194500Y5520D01*
X194344Y5159D01*
X194211Y4778D01*
X194103Y4377D01*
X194019Y3955D01*
X193958Y3513D01*
X193922Y3051D01*
X193910Y2568D01*
X193917Y2220D01*
X193936Y1882D01*
X193969Y1554D01*
X194015Y1235D01*
X194074Y925D01*
X194146Y625D01*
X194231Y335D01*
X194329Y54D01*
X194440Y-217D01*
X194564Y-478D01*
X194701Y-730D01*
X194851Y-973D01*
X195191Y-1429D01*
X195583Y-1846D01*
X196021Y-2220D01*
X196500Y-2544D01*
X197018Y-2818D01*
X197292Y-2936D01*
X197576Y-3042D01*
X197870Y-3135D01*
X198174Y-3216D01*
X198488Y-3285D01*
X198812Y-3341D01*
X199146Y-3384D01*
X199490Y-3415D01*
X199844Y-3434D01*
X200208Y-3440D01*
X200692Y-3429D01*
G37*
G36*
X206435Y17718D02*
X205095Y17718D01*
X205095Y14713D01*
X194094Y14713D01*
X194094Y13260D01*
X196100Y10343D01*
X197589Y10343D01*
X195601Y13128D01*
X205095Y13128D01*
X205095Y9984D01*
X206435Y9984D01*
X206435Y17718D01*
G37*
G36*
X206435Y26343D02*
X205095Y26343D01*
X205095Y23338D01*
X194094Y23338D01*
X194094Y21885D01*
X196100Y18968D01*
X197589Y18968D01*
X195601Y21753D01*
X205095Y21753D01*
X205095Y18609D01*
X206435Y18609D01*
X206435Y26343D01*
G37*
G36*
X-2929Y-162947D02*
X-2461Y-162913D01*
X-2010Y-162858D01*
X-1575Y-162779D01*
X-1157Y-162679D01*
X-755Y-162556D01*
X-370Y-162411D01*
X-2Y-162244D01*
X348Y-162055D01*
X677Y-161847D01*
X985Y-161618D01*
X1273Y-161368D01*
X1539Y-161099D01*
X1785Y-160809D01*
X2010Y-160499D01*
X2214Y-160168D01*
X2396Y-159820D01*
X2553Y-159456D01*
X2686Y-159076D01*
X2795Y-158680D01*
X2880Y-158269D01*
X2941Y-157842D01*
X2977Y-157399D01*
X2989Y-156941D01*
X2976Y-156492D01*
X2937Y-156058D01*
X2872Y-155637D01*
X2781Y-155230D01*
X2664Y-154836D01*
X2521Y-154457D01*
X2352Y-154091D01*
X2157Y-153740D01*
X1937Y-153404D01*
X1693Y-153088D01*
X1426Y-152792D01*
X1135Y-152514D01*
X819Y-152256D01*
X480Y-152018D01*
X118Y-151798D01*
X-269Y-151598D01*
X-952Y-152964D01*
X-641Y-153133D01*
X-351Y-153311D01*
X-80Y-153499D01*
X171Y-153697D01*
X401Y-153906D01*
X612Y-154124D01*
X802Y-154353D01*
X973Y-154591D01*
X1123Y-154840D01*
X1253Y-155099D01*
X1363Y-155367D01*
X1454Y-155646D01*
X1524Y-155935D01*
X1574Y-156234D01*
X1604Y-156543D01*
X1614Y-156862D01*
X1593Y-157355D01*
X1528Y-157821D01*
X1420Y-158262D01*
X1269Y-158676D01*
X1075Y-159064D01*
X838Y-159426D01*
X558Y-159762D01*
X235Y-160072D01*
X-124Y-160350D01*
X-511Y-160591D01*
X-925Y-160795D01*
X-1367Y-160962D01*
X-1837Y-161092D01*
X-2335Y-161185D01*
X-2860Y-161240D01*
X-3413Y-161259D01*
X-3972Y-161241D01*
X-4500Y-161188D01*
X-4997Y-161099D01*
X-5464Y-160974D01*
X-5900Y-160814D01*
X-6306Y-160618D01*
X-6681Y-160387D01*
X-7026Y-160120D01*
X-7335Y-159821D01*
X-7603Y-159494D01*
X-7829Y-159138D01*
X-8015Y-158754D01*
X-8159Y-158341D01*
X-8262Y-157900D01*
X-8324Y-157430D01*
X-8344Y-156932D01*
X-8335Y-156611D01*
X-8309Y-156302D01*
X-8264Y-156003D01*
X-8202Y-155716D01*
X-8122Y-155439D01*
X-8024Y-155174D01*
X-7909Y-154920D01*
X-7775Y-154677D01*
X-7625Y-154447D01*
X-7459Y-154234D01*
X-7277Y-154037D01*
X-7079Y-153857D01*
X-6865Y-153692D01*
X-6635Y-153544D01*
X-6390Y-153413D01*
X-6128Y-153297D01*
X-6654Y-151712D01*
X-7021Y-151878D01*
X-7365Y-152067D01*
X-7686Y-152277D01*
X-7983Y-152509D01*
X-8257Y-152763D01*
X-8508Y-153039D01*
X-8736Y-153337D01*
X-8940Y-153656D01*
X-9121Y-153997D01*
X-9277Y-154358D01*
X-9410Y-154739D01*
X-9518Y-155141D01*
X-9602Y-155563D01*
X-9663Y-156005D01*
X-9699Y-156467D01*
X-9711Y-156950D01*
X-9704Y-157297D01*
X-9685Y-157635D01*
X-9652Y-157964D01*
X-9606Y-158283D01*
X-9547Y-158592D01*
X-9475Y-158892D01*
X-9391Y-159183D01*
X-9292Y-159463D01*
X-9181Y-159734D01*
X-9057Y-159996D01*
X-8920Y-160248D01*
X-8770Y-160490D01*
X-8430Y-160946D01*
X-8038Y-161364D01*
X-7600Y-161737D01*
X-7121Y-162061D01*
X-6603Y-162335D01*
X-6329Y-162454D01*
X-6045Y-162559D01*
X-5751Y-162653D01*
X-5447Y-162734D01*
X-5133Y-162802D01*
X-4809Y-162858D01*
X-4475Y-162902D01*
X-4131Y-162933D01*
X-3777Y-162952D01*
X-3413Y-162958D01*
X-2929Y-162947D01*
G37*
G36*
X45Y-150150D02*
X420Y-150055D01*
X771Y-149932D01*
X1096Y-149780D01*
X1396Y-149600D01*
X1671Y-149392D01*
X1920Y-149155D01*
X2144Y-148890D01*
X2342Y-148599D01*
X2514Y-148284D01*
X2659Y-147946D01*
X2778Y-147584D01*
X2870Y-147198D01*
X2936Y-146789D01*
X2976Y-146356D01*
X2989Y-145899D01*
X2975Y-145410D01*
X2931Y-144950D01*
X2857Y-144519D01*
X2755Y-144117D01*
X2623Y-143743D01*
X2462Y-143399D01*
X2272Y-143084D01*
X2052Y-142798D01*
X1806Y-142544D01*
X1535Y-142323D01*
X1241Y-142137D01*
X922Y-141984D01*
X580Y-141865D01*
X213Y-141780D01*
X-178Y-141729D01*
X-593Y-141712D01*
X-882Y-141724D01*
X-1159Y-141760D01*
X-1423Y-141821D01*
X-1675Y-141905D01*
X-1914Y-142013D01*
X-2140Y-142146D01*
X-2354Y-142302D01*
X-2555Y-142483D01*
X-2740Y-142685D01*
X-2905Y-142907D01*
X-3051Y-143147D01*
X-3177Y-143407D01*
X-3283Y-143686D01*
X-3370Y-143984D01*
X-3436Y-144301D01*
X-3483Y-144638D01*
X-3518Y-144638D01*
X-3592Y-144332D01*
X-3680Y-144045D01*
X-3783Y-143776D01*
X-3901Y-143526D01*
X-4033Y-143295D01*
X-4181Y-143083D01*
X-4344Y-142890D01*
X-4521Y-142715D01*
X-4713Y-142560D01*
X-4919Y-142426D01*
X-5139Y-142312D01*
X-5372Y-142219D01*
X-5619Y-142147D01*
X-5880Y-142095D01*
X-6155Y-142064D01*
X-6444Y-142054D01*
X-6819Y-142070D01*
X-7172Y-142118D01*
X-7504Y-142199D01*
X-7816Y-142311D01*
X-8106Y-142456D01*
X-8374Y-142633D01*
X-8622Y-142842D01*
X-8848Y-143083D01*
X-9050Y-143353D01*
X-9225Y-143649D01*
X-9374Y-143971D01*
X-9495Y-144319D01*
X-9589Y-144693D01*
X-9657Y-145092D01*
X-9697Y-145518D01*
X-9711Y-145969D01*
X-9697Y-146384D01*
X-9658Y-146780D01*
X-9591Y-147157D01*
X-9498Y-147514D01*
X-9379Y-147852D01*
X-9233Y-148170D01*
X-9060Y-148470D01*
X-8861Y-148750D01*
X-8638Y-149006D01*
X-8395Y-149234D01*
X-8130Y-149434D01*
X-7845Y-149605D01*
X-7539Y-149748D01*
X-7212Y-149862D01*
X-6865Y-149949D01*
X-6496Y-150007D01*
X-6374Y-148421D01*
X-6610Y-148387D01*
X-6832Y-148335D01*
X-7041Y-148267D01*
X-7236Y-148182D01*
X-7418Y-148080D01*
X-7586Y-147961D01*
X-7740Y-147825D01*
X-7880Y-147673D01*
X-8005Y-147505D01*
X-8114Y-147326D01*
X-8206Y-147134D01*
X-8281Y-146929D01*
X-8339Y-146712D01*
X-8381Y-146483D01*
X-8406Y-146241D01*
X-8414Y-145986D01*
X-8405Y-145708D01*
X-8379Y-145448D01*
X-8334Y-145205D01*
X-8271Y-144980D01*
X-8190Y-144773D01*
X-8092Y-144583D01*
X-7975Y-144411D01*
X-7841Y-144257D01*
X-7691Y-144120D01*
X-7528Y-144002D01*
X-7352Y-143902D01*
X-7163Y-143820D01*
X-6961Y-143756D01*
X-6746Y-143711D01*
X-6518Y-143683D01*
X-6277Y-143674D01*
X-6035Y-143685D01*
X-5805Y-143719D01*
X-5589Y-143775D01*
X-5387Y-143853D01*
X-5199Y-143953D01*
X-5024Y-144076D01*
X-4862Y-144221D01*
X-4714Y-144388D01*
X-4582Y-144576D01*
X-4467Y-144781D01*
X-4370Y-145005D01*
X-4290Y-145247D01*
X-4228Y-145508D01*
X-4184Y-145786D01*
X-4158Y-146083D01*
X-4149Y-146398D01*
X-4149Y-147256D01*
X-2783Y-147256D01*
X-2783Y-146363D01*
X-2774Y-146008D01*
X-2747Y-145675D01*
X-2703Y-145363D01*
X-2641Y-145072D01*
X-2562Y-144803D01*
X-2465Y-144556D01*
X-2350Y-144330D01*
X-2218Y-144125D01*
X-2070Y-143944D01*
X-1908Y-143786D01*
X-1732Y-143653D01*
X-1542Y-143544D01*
X-1339Y-143459D01*
X-1122Y-143399D01*
X-891Y-143362D01*
X-646Y-143350D01*
X-365Y-143361D01*
X-103Y-143393D01*
X141Y-143446D01*
X368Y-143520D01*
X577Y-143615D01*
X768Y-143732D01*
X942Y-143870D01*
X1097Y-144029D01*
X1235Y-144207D01*
X1354Y-144400D01*
X1455Y-144610D01*
X1537Y-144836D01*
X1602Y-145078D01*
X1648Y-145335D01*
X1675Y-145609D01*
X1684Y-145899D01*
X1676Y-146188D01*
X1650Y-146460D01*
X1607Y-146717D01*
X1547Y-146957D01*
X1470Y-147181D01*
X1376Y-147390D01*
X1265Y-147582D01*
X1137Y-147758D01*
X991Y-147918D01*
X829Y-148062D01*
X649Y-148190D01*
X453Y-148301D01*
X239Y-148397D01*
X8Y-148477D01*
X-240Y-148540D01*
X-505Y-148588D01*
X-357Y-150217D01*
X45Y-150150D01*
G37*
G36*
X103515Y-129433D02*
X106309Y-129433D01*
X106309Y-127944D01*
X103515Y-127944D01*
X103515Y-126210D01*
X102271Y-126210D01*
X102271Y-127944D01*
X93968Y-127944D01*
X93968Y-129599D01*
X102289Y-135248D01*
X103515Y-135248D01*
X103515Y-129433D01*
G37*
%LPC*%
G36*
X102096Y-133654D02*
X101448Y-133181D01*
X96788Y-130020D01*
X96210Y-129678D01*
X95746Y-129433D01*
X102271Y-129433D01*
X102271Y-133794D01*
X102096Y-133654D01*
G37*
%LPD*%
G36*
X100566Y-147707D02*
X101034Y-147673D01*
X101485Y-147618D01*
X101920Y-147539D01*
X102338Y-147439D01*
X102740Y-147316D01*
X103125Y-147171D01*
X103493Y-147004D01*
X103843Y-146815D01*
X104172Y-146607D01*
X104480Y-146378D01*
X104768Y-146128D01*
X105034Y-145859D01*
X105280Y-145569D01*
X105505Y-145259D01*
X105709Y-144928D01*
X105891Y-144580D01*
X106048Y-144216D01*
X106181Y-143836D01*
X106290Y-143440D01*
X106375Y-143029D01*
X106436Y-142602D01*
X106472Y-142159D01*
X106484Y-141701D01*
X106471Y-141252D01*
X106432Y-140818D01*
X106367Y-140397D01*
X106276Y-139990D01*
X106159Y-139596D01*
X106016Y-139217D01*
X105847Y-138851D01*
X105652Y-138500D01*
X105432Y-138164D01*
X105188Y-137848D01*
X104921Y-137552D01*
X104630Y-137274D01*
X104314Y-137016D01*
X103975Y-136778D01*
X103613Y-136558D01*
X103226Y-136358D01*
X102543Y-137724D01*
X102854Y-137893D01*
X103144Y-138071D01*
X103415Y-138259D01*
X103666Y-138457D01*
X103896Y-138666D01*
X104107Y-138884D01*
X104297Y-139113D01*
X104468Y-139351D01*
X104618Y-139600D01*
X104748Y-139859D01*
X104858Y-140127D01*
X104949Y-140406D01*
X105019Y-140695D01*
X105069Y-140994D01*
X105099Y-141303D01*
X105109Y-141622D01*
X105088Y-142115D01*
X105023Y-142581D01*
X104915Y-143022D01*
X104764Y-143436D01*
X104570Y-143824D01*
X104333Y-144186D01*
X104053Y-144522D01*
X103730Y-144832D01*
X103371Y-145110D01*
X102984Y-145351D01*
X102570Y-145555D01*
X102128Y-145722D01*
X101658Y-145852D01*
X101160Y-145945D01*
X100635Y-146000D01*
X100082Y-146019D01*
X99523Y-146001D01*
X98995Y-145948D01*
X98498Y-145859D01*
X98031Y-145734D01*
X97595Y-145574D01*
X97189Y-145378D01*
X96814Y-145147D01*
X96469Y-144880D01*
X96160Y-144581D01*
X95892Y-144254D01*
X95666Y-143898D01*
X95480Y-143514D01*
X95336Y-143101D01*
X95233Y-142660D01*
X95171Y-142190D01*
X95151Y-141692D01*
X95160Y-141371D01*
X95186Y-141062D01*
X95231Y-140763D01*
X95293Y-140476D01*
X95373Y-140199D01*
X95471Y-139934D01*
X95587Y-139680D01*
X95720Y-139437D01*
X95870Y-139207D01*
X96036Y-138994D01*
X96218Y-138797D01*
X96416Y-138617D01*
X96630Y-138452D01*
X96860Y-138304D01*
X97105Y-138173D01*
X97367Y-138057D01*
X96841Y-136472D01*
X96474Y-136638D01*
X96130Y-136827D01*
X95809Y-137037D01*
X95512Y-137269D01*
X95238Y-137523D01*
X94987Y-137799D01*
X94759Y-138097D01*
X94555Y-138416D01*
X94374Y-138757D01*
X94218Y-139118D01*
X94085Y-139499D01*
X93977Y-139901D01*
X93893Y-140323D01*
X93832Y-140765D01*
X93796Y-141227D01*
X93784Y-141710D01*
X93791Y-142057D01*
X93810Y-142395D01*
X93843Y-142724D01*
X93889Y-143043D01*
X93948Y-143352D01*
X94020Y-143652D01*
X94105Y-143943D01*
X94203Y-144223D01*
X94314Y-144494D01*
X94438Y-144756D01*
X94575Y-145008D01*
X94725Y-145250D01*
X95065Y-145706D01*
X95457Y-146124D01*
X95895Y-146497D01*
X96374Y-146821D01*
X96892Y-147095D01*
X97166Y-147214D01*
X97450Y-147319D01*
X97744Y-147413D01*
X98048Y-147494D01*
X98362Y-147562D01*
X98686Y-147618D01*
X99020Y-147662D01*
X99364Y-147693D01*
X99718Y-147712D01*
X100082Y-147718D01*
X100566Y-147707D01*
G37*
G36*
X243854Y-3812D02*
X244322Y-3779D01*
X244773Y-3723D01*
X245208Y-3645D01*
X245626Y-3544D01*
X246028Y-3422D01*
X246413Y-3277D01*
X246781Y-3109D01*
X247131Y-2921D01*
X247460Y-2712D01*
X247768Y-2483D01*
X248056Y-2234D01*
X248322Y-1964D01*
X248568Y-1674D01*
X248793Y-1364D01*
X248997Y-1034D01*
X249179Y-685D01*
X249336Y-321D01*
X249469Y59D01*
X249578Y454D01*
X249663Y866D01*
X249724Y1293D01*
X249760Y1735D01*
X249772Y2194D01*
X249759Y2642D01*
X249720Y3077D01*
X249655Y3498D01*
X249564Y3905D01*
X249447Y4298D01*
X249304Y4678D01*
X249135Y5043D01*
X248940Y5395D01*
X248720Y5730D01*
X248476Y6046D01*
X248209Y6343D01*
X247918Y6620D01*
X247602Y6878D01*
X247263Y7117D01*
X246901Y7336D01*
X246514Y7537D01*
X245831Y6170D01*
X246142Y6002D01*
X246432Y5824D01*
X246703Y5636D01*
X246954Y5437D01*
X247184Y5229D01*
X247395Y5010D01*
X247585Y4782D01*
X247756Y4543D01*
X247906Y4295D01*
X248036Y4036D01*
X248146Y3767D01*
X248237Y3489D01*
X248307Y3200D01*
X248357Y2901D01*
X248387Y2592D01*
X248397Y2273D01*
X248376Y1780D01*
X248311Y1313D01*
X248203Y873D01*
X248052Y459D01*
X247858Y70D01*
X247621Y-292D01*
X247341Y-628D01*
X247018Y-937D01*
X246659Y-1215D01*
X246272Y-1457D01*
X245858Y-1661D01*
X245416Y-1827D01*
X244946Y-1957D01*
X244448Y-2050D01*
X243923Y-2106D01*
X243370Y-2124D01*
X242811Y-2106D01*
X242283Y-2053D01*
X241786Y-1964D01*
X241319Y-1839D01*
X240883Y-1679D01*
X240477Y-1484D01*
X240102Y-1252D01*
X239757Y-985D01*
X239448Y-687D01*
X239180Y-359D01*
X238954Y-3D01*
X238768Y381D01*
X238624Y794D01*
X238521Y1235D01*
X238459Y1705D01*
X238439Y2203D01*
X238448Y2523D01*
X238474Y2833D01*
X238519Y3132D01*
X238581Y3419D01*
X238661Y3695D01*
X238759Y3961D01*
X238875Y4215D01*
X239008Y4458D01*
X239158Y4687D01*
X239324Y4901D01*
X239506Y5097D01*
X239704Y5278D01*
X239918Y5442D01*
X240148Y5590D01*
X240393Y5722D01*
X240655Y5837D01*
X240129Y7423D01*
X239762Y7256D01*
X239418Y7068D01*
X239097Y6858D01*
X238800Y6626D01*
X238526Y6372D01*
X238275Y6096D01*
X238047Y5798D01*
X237843Y5478D01*
X237662Y5138D01*
X237506Y4777D01*
X237373Y4395D01*
X237265Y3994D01*
X237181Y3572D01*
X237120Y3130D01*
X237084Y2668D01*
X237072Y2185D01*
X237079Y1837D01*
X237098Y1499D01*
X237131Y1171D01*
X237177Y852D01*
X237236Y542D01*
X237308Y242D01*
X237393Y-48D01*
X237491Y-329D01*
X237602Y-600D01*
X237726Y-861D01*
X237863Y-1113D01*
X238013Y-1356D01*
X238353Y-1812D01*
X238745Y-2229D01*
X239183Y-2603D01*
X239662Y-2927D01*
X240180Y-3201D01*
X240454Y-3319D01*
X240738Y-3425D01*
X241032Y-3518D01*
X241336Y-3599D01*
X241650Y-3668D01*
X241974Y-3724D01*
X242308Y-3767D01*
X242652Y-3798D01*
X243006Y-3817D01*
X243370Y-3823D01*
X243854Y-3812D01*
G37*
G36*
X247184Y9035D02*
X247510Y9142D01*
X247814Y9273D01*
X248097Y9428D01*
X248359Y9608D01*
X248600Y9812D01*
X248820Y10040D01*
X249019Y10293D01*
X249196Y10568D01*
X249349Y10864D01*
X249478Y11181D01*
X249584Y11519D01*
X249666Y11878D01*
X249725Y12257D01*
X249760Y12657D01*
X249772Y13078D01*
X249755Y13579D01*
X249702Y14051D01*
X249615Y14496D01*
X249492Y14912D01*
X249334Y15300D01*
X249142Y15661D01*
X248914Y15993D01*
X248651Y16297D01*
X248358Y16569D01*
X248039Y16805D01*
X247693Y17004D01*
X247322Y17167D01*
X246925Y17294D01*
X246501Y17385D01*
X246052Y17439D01*
X245577Y17457D01*
X245158Y17440D01*
X244759Y17390D01*
X244380Y17305D01*
X244022Y17187D01*
X243684Y17035D01*
X243366Y16849D01*
X243069Y16629D01*
X242792Y16376D01*
X242541Y16094D01*
X242324Y15789D01*
X242140Y15460D01*
X241990Y15109D01*
X241873Y14734D01*
X241790Y14337D01*
X241740Y13916D01*
X241723Y13472D01*
X241735Y13099D01*
X241772Y12741D01*
X241834Y12399D01*
X241920Y12073D01*
X242031Y11762D01*
X242167Y11467D01*
X242327Y11187D01*
X242511Y10923D01*
X238596Y11160D01*
X238596Y16739D01*
X237256Y16739D01*
X237256Y9724D01*
X243895Y9312D01*
X243895Y10853D01*
X243672Y11129D01*
X243484Y11405D01*
X243330Y11681D01*
X243212Y11957D01*
X243124Y12238D01*
X243061Y12531D01*
X243023Y12834D01*
X243011Y13148D01*
X243022Y13447D01*
X243055Y13730D01*
X243112Y13997D01*
X243190Y14248D01*
X243291Y14484D01*
X243415Y14704D01*
X243560Y14908D01*
X243729Y15097D01*
X243915Y15266D01*
X244116Y15413D01*
X244330Y15537D01*
X244559Y15639D01*
X244801Y15718D01*
X245057Y15774D01*
X245328Y15808D01*
X245612Y15820D01*
X245938Y15808D01*
X246246Y15775D01*
X246536Y15719D01*
X246809Y15640D01*
X247063Y15539D01*
X247299Y15416D01*
X247518Y15270D01*
X247718Y15101D01*
X247898Y14913D01*
X248054Y14708D01*
X248185Y14485D01*
X248293Y14245D01*
X248377Y13988D01*
X248437Y13714D01*
X248473Y13422D01*
X248485Y13113D01*
X248478Y12861D01*
X248456Y12621D01*
X248420Y12393D01*
X248370Y12178D01*
X248306Y11974D01*
X248227Y11783D01*
X248134Y11605D01*
X248027Y11438D01*
X247906Y11284D01*
X247770Y11142D01*
X247619Y11012D01*
X247455Y10894D01*
X247276Y10789D01*
X247083Y10696D01*
X246876Y10615D01*
X246654Y10547D01*
X246838Y8953D01*
X247184Y9035D01*
G37*
G36*
X264119Y5578D02*
X264793Y5629D01*
X265423Y5716D01*
X266009Y5836D01*
X266550Y5991D01*
X267048Y6181D01*
X267502Y6405D01*
X267911Y6664D01*
X268275Y6955D01*
X268590Y7277D01*
X268856Y7630D01*
X269074Y8013D01*
X269244Y8427D01*
X269365Y8871D01*
X269437Y9346D01*
X269456Y9595D01*
X269462Y9852D01*
X269444Y10306D01*
X269391Y10734D01*
X269303Y11138D01*
X269179Y11516D01*
X269020Y11869D01*
X268826Y12197D01*
X268597Y12500D01*
X268332Y12777D01*
X268037Y13026D01*
X267715Y13241D01*
X267369Y13423D01*
X266996Y13572D01*
X266598Y13688D01*
X266174Y13771D01*
X265724Y13821D01*
X265249Y13837D01*
X264809Y13822D01*
X264393Y13775D01*
X263999Y13696D01*
X263629Y13587D01*
X263281Y13445D01*
X262956Y13273D01*
X262655Y13069D01*
X262376Y12834D01*
X262126Y12573D01*
X261909Y12289D01*
X261725Y11983D01*
X261575Y11655D01*
X261458Y11305D01*
X261374Y10933D01*
X261324Y10540D01*
X261307Y10124D01*
X261314Y9875D01*
X261333Y9634D01*
X261366Y9400D01*
X261412Y9173D01*
X261542Y8741D01*
X261724Y8337D01*
X261955Y7969D01*
X262235Y7645D01*
X262562Y7365D01*
X262937Y7128D01*
X262359Y7140D01*
X261816Y7174D01*
X261308Y7232D01*
X260836Y7313D01*
X260398Y7417D01*
X259996Y7544D01*
X259629Y7695D01*
X259297Y7868D01*
X259003Y8063D01*
X258748Y8276D01*
X258532Y8509D01*
X258355Y8761D01*
X258217Y9031D01*
X258119Y9321D01*
X258060Y9629D01*
X258041Y9957D01*
X258064Y10332D01*
X258135Y10672D01*
X258252Y10978D01*
X258417Y11249D01*
X258629Y11486D01*
X258888Y11688D01*
X259194Y11856D01*
X259547Y11989D01*
X259276Y13496D01*
X258971Y13397D01*
X258686Y13282D01*
X258421Y13150D01*
X258176Y13003D01*
X257950Y12839D01*
X257744Y12660D01*
X257557Y12464D01*
X257390Y12252D01*
X257243Y12024D01*
X257115Y11780D01*
X257007Y11519D01*
X256919Y11242D01*
X256850Y10950D01*
X256801Y10641D01*
X256772Y10316D01*
X256762Y9975D01*
X256769Y9714D01*
X256789Y9460D01*
X256822Y9214D01*
X256869Y8976D01*
X256929Y8745D01*
X257003Y8522D01*
X257191Y8098D01*
X257432Y7705D01*
X257727Y7342D01*
X258076Y7010D01*
X258478Y6708D01*
X258931Y6439D01*
X259430Y6206D01*
X259975Y6009D01*
X260567Y5847D01*
X261206Y5722D01*
X261891Y5632D01*
X262623Y5578D01*
X263401Y5560D01*
X264119Y5578D01*
G37*
%LPC*%
G36*
X264667Y7296D02*
X264408Y7328D01*
X264163Y7381D01*
X263934Y7456D01*
X263720Y7551D01*
X263521Y7668D01*
X263337Y7806D01*
X263169Y7965D01*
X263018Y8141D01*
X262887Y8331D01*
X262776Y8533D01*
X262686Y8750D01*
X262615Y8979D01*
X262565Y9222D01*
X262535Y9478D01*
X262525Y9747D01*
X262536Y10032D01*
X262570Y10301D01*
X262627Y10555D01*
X262707Y10791D01*
X262809Y11012D01*
X262934Y11217D01*
X263082Y11405D01*
X263252Y11578D01*
X263443Y11731D01*
X263654Y11865D01*
X263883Y11978D01*
X264132Y12070D01*
X264400Y12142D01*
X264687Y12193D01*
X264993Y12224D01*
X265319Y12234D01*
X265645Y12224D01*
X265953Y12194D01*
X266243Y12143D01*
X266516Y12072D01*
X266770Y11981D01*
X267006Y11870D01*
X267225Y11738D01*
X267425Y11586D01*
X267605Y11417D01*
X267761Y11232D01*
X267892Y11031D01*
X268000Y10816D01*
X268084Y10585D01*
X268144Y10338D01*
X268180Y10077D01*
X268192Y9800D01*
X268177Y9530D01*
X268135Y9273D01*
X268064Y9028D01*
X267964Y8796D01*
X267836Y8576D01*
X267679Y8368D01*
X267494Y8173D01*
X267281Y7991D01*
X267045Y7826D01*
X266793Y7682D01*
X266525Y7561D01*
X266241Y7462D01*
X265940Y7385D01*
X265624Y7330D01*
X265291Y7297D01*
X264942Y7286D01*
X264667Y7296D01*
G37*
%LPD*%
G36*
X263544Y-7397D02*
X264011Y-7364D01*
X264463Y-7308D01*
X264897Y-7230D01*
X265316Y-7130D01*
X265717Y-7007D01*
X266102Y-6862D01*
X266471Y-6695D01*
X266820Y-6506D01*
X267149Y-6297D01*
X267458Y-6068D01*
X267745Y-5819D01*
X268012Y-5549D01*
X268257Y-5259D01*
X268482Y-4949D01*
X268687Y-4619D01*
X268868Y-4270D01*
X269026Y-3906D01*
X269159Y-3527D01*
X269268Y-3131D01*
X269353Y-2720D01*
X269413Y-2293D01*
X269450Y-1850D01*
X269462Y-1391D01*
X269449Y-943D01*
X269410Y-508D01*
X269345Y-87D01*
X269254Y320D01*
X269137Y713D01*
X268994Y1093D01*
X268825Y1458D01*
X268630Y1810D01*
X268410Y2145D01*
X268166Y2461D01*
X267898Y2758D01*
X267607Y3035D01*
X267292Y3293D01*
X266953Y3532D01*
X266590Y3751D01*
X266204Y3951D01*
X265520Y2585D01*
X265831Y2417D01*
X266122Y2239D01*
X266392Y2050D01*
X266643Y1852D01*
X266874Y1644D01*
X267084Y1425D01*
X267275Y1197D01*
X267445Y958D01*
X267595Y710D01*
X267726Y451D01*
X267836Y182D01*
X267926Y-97D01*
X267996Y-386D01*
X268047Y-684D01*
X268077Y-993D01*
X268087Y-1312D01*
X268065Y-1805D01*
X268000Y-2272D01*
X267893Y-2712D01*
X267742Y-3127D01*
X267548Y-3515D01*
X267311Y-3877D01*
X267030Y-4213D01*
X266707Y-4522D01*
X266348Y-4801D01*
X265962Y-5042D01*
X265548Y-5246D01*
X265105Y-5413D01*
X264636Y-5542D01*
X264138Y-5635D01*
X263612Y-5691D01*
X263059Y-5709D01*
X262501Y-5691D01*
X261973Y-5638D01*
X261475Y-5549D01*
X261009Y-5425D01*
X260572Y-5264D01*
X260166Y-5069D01*
X259791Y-4837D01*
X259446Y-4571D01*
X259137Y-4272D01*
X258870Y-3944D01*
X258643Y-3589D01*
X258458Y-3204D01*
X258314Y-2792D01*
X258211Y-2350D01*
X258149Y-1881D01*
X258128Y-1383D01*
X258137Y-1062D01*
X258164Y-752D01*
X258208Y-454D01*
X258270Y-166D01*
X258351Y110D01*
X258448Y376D01*
X258564Y630D01*
X258697Y873D01*
X258848Y1102D01*
X259014Y1315D01*
X259196Y1512D01*
X259394Y1693D01*
X259608Y1857D01*
X259837Y2005D01*
X260083Y2137D01*
X260344Y2252D01*
X259819Y3838D01*
X259451Y3671D01*
X259107Y3483D01*
X258787Y3273D01*
X258489Y3041D01*
X258215Y2787D01*
X257964Y2511D01*
X257737Y2213D01*
X257533Y1893D01*
X257352Y1552D01*
X257195Y1191D01*
X257063Y810D01*
X256954Y409D01*
X256870Y-13D01*
X256810Y-455D01*
X256774Y-917D01*
X256762Y-1400D01*
X256768Y-1748D01*
X256788Y-2086D01*
X256821Y-2415D01*
X256866Y-2734D01*
X256925Y-3043D01*
X256997Y-3343D01*
X257082Y-3633D01*
X257180Y-3914D01*
X257291Y-4185D01*
X257415Y-4446D01*
X257553Y-4698D01*
X257703Y-4941D01*
X258043Y-5397D01*
X258435Y-5814D01*
X258873Y-6188D01*
X259351Y-6512D01*
X259869Y-6786D01*
X260143Y-6904D01*
X260427Y-7010D01*
X260721Y-7103D01*
X261025Y-7184D01*
X261339Y-7253D01*
X261663Y-7309D01*
X261997Y-7352D01*
X262341Y-7383D01*
X262695Y-7402D01*
X263059Y-7408D01*
X263544Y-7397D01*
G37*
G36*
X41407Y-11307D02*
X41875Y-11274D01*
X42326Y-11218D01*
X42761Y-11140D01*
X43179Y-11039D01*
X43581Y-10917D01*
X43966Y-10772D01*
X44334Y-10604D01*
X44684Y-10416D01*
X45013Y-10207D01*
X45321Y-9978D01*
X45609Y-9729D01*
X45875Y-9459D01*
X46121Y-9169D01*
X46346Y-8859D01*
X46550Y-8529D01*
X46732Y-8180D01*
X46889Y-7816D01*
X47022Y-7436D01*
X47131Y-7041D01*
X47216Y-6630D01*
X47277Y-6202D01*
X47313Y-5760D01*
X47325Y-5301D01*
X47312Y-4853D01*
X47273Y-4418D01*
X47208Y-3997D01*
X47117Y-3590D01*
X47000Y-3197D01*
X46857Y-2817D01*
X46688Y-2452D01*
X46493Y-2100D01*
X46273Y-1765D01*
X46029Y-1449D01*
X45762Y-1152D01*
X45471Y-875D01*
X45155Y-617D01*
X44816Y-378D01*
X44454Y-159D01*
X44067Y42D01*
X43384Y-1325D01*
X43695Y-1493D01*
X43985Y-1671D01*
X44256Y-1859D01*
X44507Y-2058D01*
X44737Y-2266D01*
X44948Y-2485D01*
X45138Y-2713D01*
X45309Y-2952D01*
X45459Y-3200D01*
X45589Y-3459D01*
X45699Y-3728D01*
X45790Y-4007D01*
X45860Y-4295D01*
X45910Y-4594D01*
X45940Y-4903D01*
X45950Y-5222D01*
X45929Y-5715D01*
X45864Y-6182D01*
X45756Y-6622D01*
X45605Y-7036D01*
X45411Y-7425D01*
X45174Y-7787D01*
X44894Y-8123D01*
X44571Y-8432D01*
X44212Y-8710D01*
X43825Y-8952D01*
X43411Y-9156D01*
X42969Y-9322D01*
X42499Y-9452D01*
X42001Y-9545D01*
X41476Y-9601D01*
X40923Y-9619D01*
X40364Y-9601D01*
X39836Y-9548D01*
X39339Y-9459D01*
X38872Y-9334D01*
X38436Y-9174D01*
X38030Y-8979D01*
X37655Y-8747D01*
X37310Y-8480D01*
X37001Y-8182D01*
X36733Y-7854D01*
X36507Y-7498D01*
X36321Y-7114D01*
X36177Y-6701D01*
X36074Y-6260D01*
X36012Y-5791D01*
X35992Y-5292D01*
X36001Y-4972D01*
X36027Y-4662D01*
X36072Y-4364D01*
X36134Y-4076D01*
X36214Y-3800D01*
X36312Y-3534D01*
X36428Y-3280D01*
X36561Y-3037D01*
X36711Y-2808D01*
X36877Y-2594D01*
X37059Y-2398D01*
X37257Y-2217D01*
X37471Y-2053D01*
X37701Y-1905D01*
X37946Y-1773D01*
X38208Y-1658D01*
X37682Y-72D01*
X37315Y-239D01*
X36971Y-427D01*
X36650Y-637D01*
X36353Y-869D01*
X36079Y-1123D01*
X35828Y-1399D01*
X35600Y-1697D01*
X35396Y-2017D01*
X35215Y-2357D01*
X35059Y-2718D01*
X34926Y-3100D01*
X34818Y-3501D01*
X34734Y-3923D01*
X34673Y-4365D01*
X34637Y-4827D01*
X34625Y-5310D01*
X34632Y-5658D01*
X34651Y-5996D01*
X34684Y-6324D01*
X34730Y-6643D01*
X34789Y-6953D01*
X34861Y-7253D01*
X34946Y-7543D01*
X35044Y-7824D01*
X35155Y-8095D01*
X35279Y-8356D01*
X35416Y-8608D01*
X35566Y-8851D01*
X35906Y-9307D01*
X36298Y-9724D01*
X36736Y-10098D01*
X37215Y-10422D01*
X37733Y-10696D01*
X38007Y-10814D01*
X38291Y-10920D01*
X38585Y-11013D01*
X38889Y-11094D01*
X39203Y-11163D01*
X39527Y-11219D01*
X39861Y-11262D01*
X40205Y-11293D01*
X40559Y-11312D01*
X40923Y-11318D01*
X41407Y-11307D01*
G37*
G36*
X36149Y8289D02*
X36989Y7724D01*
X37803Y7200D01*
X38593Y6718D01*
X39358Y6278D01*
X40099Y5881D01*
X40814Y5525D01*
X41505Y5211D01*
X42171Y4939D01*
X42821Y4704D01*
X43462Y4501D01*
X44097Y4328D01*
X44723Y4187D01*
X45341Y4078D01*
X45952Y3999D01*
X46555Y3952D01*
X47150Y3936D01*
X47150Y5583D01*
X46725Y5589D01*
X46303Y5607D01*
X45471Y5681D01*
X44652Y5802D01*
X43848Y5973D01*
X43048Y6192D01*
X42243Y6460D01*
X41432Y6777D01*
X40616Y7142D01*
X39719Y7601D01*
X38665Y8200D01*
X37455Y8937D01*
X36088Y9813D01*
X34809Y9813D01*
X34809Y1659D01*
X36149Y1659D01*
X36149Y8289D01*
G37*
G36*
X203105Y3567D02*
X203500Y3619D01*
X203870Y3707D01*
X204215Y3829D01*
X204535Y3986D01*
X204831Y4178D01*
X205102Y4404D01*
X205349Y4666D01*
X205569Y4959D01*
X205759Y5279D01*
X205920Y5625D01*
X206052Y5999D01*
X206154Y6399D01*
X206228Y6827D01*
X206272Y7281D01*
X206286Y7762D01*
X206271Y8256D01*
X206227Y8719D01*
X206152Y9153D01*
X206048Y9558D01*
X205913Y9933D01*
X205749Y10278D01*
X205555Y10594D01*
X205332Y10880D01*
X205081Y11135D01*
X204807Y11356D01*
X204510Y11542D01*
X204189Y11695D01*
X203844Y11814D01*
X203476Y11899D01*
X203084Y11950D01*
X202669Y11966D01*
X202371Y11956D01*
X202086Y11925D01*
X201813Y11874D01*
X201553Y11802D01*
X201306Y11710D01*
X201072Y11597D01*
X200850Y11464D01*
X200641Y11310D01*
X200604Y11276D01*
X200448Y11137D01*
X200275Y10948D01*
X200121Y10743D01*
X199986Y10521D01*
X199870Y10283D01*
X199773Y10029D01*
X199696Y9758D01*
X199638Y9470D01*
X199603Y9470D01*
X199544Y9718D01*
X199466Y9951D01*
X199370Y10172D01*
X199255Y10379D01*
X199122Y10573D01*
X198986Y10735D01*
X198971Y10753D01*
X198802Y10920D01*
X198614Y11073D01*
X198412Y11211D01*
X198203Y11330D01*
X197984Y11431D01*
X197758Y11513D01*
X197522Y11577D01*
X197279Y11623D01*
X197026Y11651D01*
X196766Y11660D01*
X196409Y11643D01*
X196072Y11594D01*
X195754Y11512D01*
X195454Y11396D01*
X195173Y11248D01*
X194912Y11066D01*
X194669Y10852D01*
X194445Y10605D01*
X194243Y10329D01*
X194069Y10029D01*
X193922Y9705D01*
X193801Y9358D01*
X193707Y8986D01*
X193640Y8590D01*
X193600Y8171D01*
X193586Y7727D01*
X193600Y7294D01*
X193641Y6884D01*
X193709Y6495D01*
X193805Y6130D01*
X193928Y5787D01*
X194079Y5467D01*
X194257Y5169D01*
X194462Y4894D01*
X194689Y4647D01*
X194933Y4432D01*
X195194Y4251D01*
X195472Y4102D01*
X195766Y3987D01*
X196076Y3905D01*
X196404Y3855D01*
X196748Y3839D01*
X197009Y3848D01*
X197261Y3875D01*
X197505Y3920D01*
X197740Y3984D01*
X197967Y4066D01*
X198185Y4166D01*
X198395Y4284D01*
X198596Y4421D01*
X198785Y4573D01*
X198956Y4739D01*
X199110Y4918D01*
X199247Y5110D01*
X199366Y5315D01*
X199468Y5534D01*
X199553Y5765D01*
X199621Y6011D01*
X199656Y6011D01*
X199710Y5747D01*
X199784Y5496D01*
X199879Y5257D01*
X199993Y5030D01*
X200128Y4815D01*
X200283Y4611D01*
X200459Y4420D01*
X200654Y4241D01*
X200866Y4079D01*
X201090Y3939D01*
X201326Y3820D01*
X201574Y3722D01*
X201834Y3647D01*
X202106Y3593D01*
X202390Y3560D01*
X202686Y3550D01*
X203105Y3567D01*
G37*
%LPC*%
G36*
X202289Y5189D02*
X202037Y5221D01*
X201800Y5273D01*
X201577Y5347D01*
X201370Y5442D01*
X201176Y5558D01*
X200998Y5695D01*
X200834Y5853D01*
X200687Y6030D01*
X200560Y6223D01*
X200452Y6433D01*
X200364Y6659D01*
X200296Y6901D01*
X200247Y7160D01*
X200218Y7436D01*
X200208Y7727D01*
X200217Y8027D01*
X200244Y8310D01*
X200290Y8576D01*
X200353Y8824D01*
X200435Y9055D01*
X200535Y9269D01*
X200654Y9466D01*
X200790Y9645D01*
X200945Y9806D01*
X201117Y9944D01*
X201306Y10062D01*
X201514Y10158D01*
X201739Y10233D01*
X201982Y10286D01*
X202242Y10318D01*
X202520Y10329D01*
X202846Y10319D01*
X203149Y10289D01*
X203429Y10240D01*
X203686Y10171D01*
X203920Y10082D01*
X204132Y9974D01*
X204321Y9846D01*
X204486Y9698D01*
X204631Y9530D01*
X204756Y9342D01*
X204863Y9133D01*
X204949Y8903D01*
X205017Y8653D01*
X205065Y8383D01*
X205094Y8092D01*
X205104Y7780D01*
X205094Y7465D01*
X205064Y7170D01*
X205014Y6896D01*
X204945Y6642D01*
X204855Y6408D01*
X204745Y6195D01*
X204616Y6002D01*
X204467Y5829D01*
X204297Y5677D01*
X204108Y5544D01*
X203899Y5433D01*
X203670Y5341D01*
X203421Y5270D01*
X203152Y5219D01*
X202864Y5189D01*
X202555Y5179D01*
X202289Y5189D01*
G37*
G36*
X196601Y5459D02*
X196364Y5487D01*
X196144Y5532D01*
X195940Y5596D01*
X195752Y5678D01*
X195581Y5778D01*
X195425Y5896D01*
X195285Y6033D01*
X195162Y6186D01*
X195056Y6357D01*
X194965Y6544D01*
X194891Y6747D01*
X194834Y6968D01*
X194793Y7204D01*
X194768Y7458D01*
X194760Y7727D01*
X194768Y8005D01*
X194793Y8265D01*
X194834Y8507D01*
X194891Y8731D01*
X194964Y8937D01*
X195054Y9126D01*
X195161Y9296D01*
X195283Y9448D01*
X195422Y9583D01*
X195578Y9699D01*
X195749Y9798D01*
X195937Y9879D01*
X196142Y9941D01*
X196363Y9986D01*
X196600Y10013D01*
X196853Y10022D01*
X197130Y10013D01*
X197387Y9986D01*
X197624Y9940D01*
X197842Y9876D01*
X198039Y9795D01*
X198217Y9694D01*
X198375Y9576D01*
X198513Y9440D01*
X198633Y9286D01*
X198737Y9115D01*
X198825Y8928D01*
X198897Y8725D01*
X198953Y8505D01*
X198993Y8268D01*
X199017Y8015D01*
X199025Y7745D01*
X199017Y7479D01*
X198991Y7228D01*
X198947Y6993D01*
X198886Y6774D01*
X198808Y6570D01*
X198713Y6381D01*
X198600Y6208D01*
X198469Y6050D01*
X198322Y5909D01*
X198160Y5788D01*
X197981Y5684D01*
X197787Y5600D01*
X197577Y5534D01*
X197352Y5488D01*
X197110Y5459D01*
X196853Y5450D01*
X196601Y5459D01*
G37*
%LPD*%
G36*
X200368Y-9277D02*
X200836Y-9243D01*
X201287Y-9188D01*
X201722Y-9109D01*
X202140Y-9009D01*
X202542Y-8886D01*
X202927Y-8741D01*
X203295Y-8574D01*
X203645Y-8385D01*
X203974Y-8177D01*
X204282Y-7948D01*
X204570Y-7698D01*
X204836Y-7429D01*
X205082Y-7139D01*
X205307Y-6829D01*
X205511Y-6498D01*
X205693Y-6150D01*
X205850Y-5786D01*
X205983Y-5406D01*
X206092Y-5010D01*
X206177Y-4599D01*
X206238Y-4172D01*
X206274Y-3729D01*
X206286Y-3271D01*
X206273Y-2822D01*
X206234Y-2388D01*
X206169Y-1967D01*
X206078Y-1560D01*
X205961Y-1166D01*
X205818Y-787D01*
X205649Y-421D01*
X205454Y-70D01*
X205234Y266D01*
X204990Y582D01*
X204723Y878D01*
X204432Y1156D01*
X204116Y1414D01*
X203777Y1652D01*
X203415Y1872D01*
X203028Y2072D01*
X202345Y706D01*
X202656Y537D01*
X202946Y359D01*
X203217Y171D01*
X203468Y-27D01*
X203698Y-236D01*
X203909Y-454D01*
X204099Y-683D01*
X204270Y-921D01*
X204420Y-1170D01*
X204550Y-1429D01*
X204660Y-1697D01*
X204751Y-1976D01*
X204821Y-2265D01*
X204871Y-2564D01*
X204901Y-2873D01*
X204911Y-3192D01*
X204890Y-3685D01*
X204825Y-4151D01*
X204717Y-4592D01*
X204566Y-5006D01*
X204372Y-5394D01*
X204135Y-5756D01*
X203855Y-6092D01*
X203532Y-6402D01*
X203173Y-6680D01*
X202786Y-6921D01*
X202372Y-7125D01*
X201930Y-7292D01*
X201460Y-7422D01*
X200962Y-7515D01*
X200437Y-7570D01*
X199884Y-7589D01*
X199325Y-7571D01*
X198797Y-7518D01*
X198300Y-7429D01*
X197833Y-7304D01*
X197397Y-7144D01*
X196991Y-6948D01*
X196616Y-6717D01*
X196271Y-6450D01*
X195962Y-6151D01*
X195694Y-5824D01*
X195468Y-5468D01*
X195282Y-5084D01*
X195138Y-4671D01*
X195035Y-4230D01*
X194973Y-3760D01*
X194953Y-3262D01*
X194962Y-2941D01*
X194988Y-2632D01*
X195033Y-2333D01*
X195095Y-2046D01*
X195175Y-1769D01*
X195273Y-1504D01*
X195389Y-1250D01*
X195522Y-1007D01*
X195672Y-777D01*
X195838Y-564D01*
X196020Y-367D01*
X196218Y-187D01*
X196432Y-22D01*
X196662Y126D01*
X196907Y257D01*
X197169Y373D01*
X196643Y1958D01*
X196276Y1792D01*
X195932Y1603D01*
X195611Y1393D01*
X195314Y1161D01*
X195040Y907D01*
X194789Y631D01*
X194561Y333D01*
X194357Y14D01*
X194176Y-327D01*
X194020Y-688D01*
X193887Y-1069D01*
X193779Y-1471D01*
X193695Y-1893D01*
X193634Y-2335D01*
X193598Y-2797D01*
X193586Y-3280D01*
X193593Y-3627D01*
X193612Y-3965D01*
X193645Y-4294D01*
X193691Y-4613D01*
X193750Y-4922D01*
X193822Y-5222D01*
X193907Y-5513D01*
X194005Y-5793D01*
X194116Y-6064D01*
X194240Y-6326D01*
X194377Y-6578D01*
X194527Y-6820D01*
X194867Y-7276D01*
X195259Y-7694D01*
X195697Y-8067D01*
X196176Y-8391D01*
X196694Y-8665D01*
X196968Y-8784D01*
X197252Y-8889D01*
X197546Y-8983D01*
X197850Y-9064D01*
X198164Y-9132D01*
X198488Y-9188D01*
X198822Y-9232D01*
X199166Y-9263D01*
X199520Y-9282D01*
X199884Y-9288D01*
X200368Y-9277D01*
G37*
G36*
X161367Y-1454D02*
X161803Y-1407D01*
X162215Y-1329D01*
X162605Y-1220D01*
X162971Y-1079D01*
X163314Y-908D01*
X163633Y-705D01*
X163930Y-471D01*
X164196Y-211D01*
X164428Y70D01*
X164623Y372D01*
X164784Y694D01*
X164908Y1037D01*
X164997Y1401D01*
X165050Y1786D01*
X165068Y2192D01*
X165061Y2443D01*
X165038Y2689D01*
X165001Y2930D01*
X164949Y3166D01*
X164882Y3397D01*
X164800Y3622D01*
X164703Y3842D01*
X164591Y4057D01*
X164467Y4262D01*
X164333Y4451D01*
X164189Y4624D01*
X164036Y4782D01*
X163873Y4924D01*
X163700Y5051D01*
X163517Y5162D01*
X163325Y5257D01*
X163893Y5238D01*
X164427Y5196D01*
X164928Y5131D01*
X165394Y5045D01*
X165828Y4936D01*
X166227Y4806D01*
X166593Y4653D01*
X166925Y4478D01*
X167221Y4282D01*
X167477Y4067D01*
X167694Y3833D01*
X167871Y3580D01*
X168009Y3308D01*
X168107Y3016D01*
X168167Y2706D01*
X168186Y2376D01*
X168180Y2179D01*
X168162Y1991D01*
X168090Y1641D01*
X167969Y1327D01*
X167801Y1049D01*
X167584Y806D01*
X167319Y599D01*
X167006Y427D01*
X166645Y291D01*
X166881Y-1215D01*
X167209Y-1113D01*
X167513Y-996D01*
X167794Y-863D01*
X168052Y-715D01*
X168286Y-551D01*
X168496Y-372D01*
X168684Y-177D01*
X168847Y33D01*
X168990Y260D01*
X169114Y505D01*
X169218Y767D01*
X169304Y1048D01*
X169371Y1346D01*
X169418Y1663D01*
X169447Y1997D01*
X169456Y2350D01*
X169449Y2614D01*
X169429Y2871D01*
X169396Y3120D01*
X169349Y3361D01*
X169289Y3594D01*
X169216Y3820D01*
X169029Y4249D01*
X168789Y4647D01*
X168495Y5014D01*
X168149Y5350D01*
X167748Y5656D01*
X167298Y5928D01*
X166802Y6164D01*
X166260Y6363D01*
X165673Y6526D01*
X165039Y6653D01*
X164359Y6744D01*
X163633Y6798D01*
X162861Y6816D01*
X162121Y6800D01*
X161428Y6750D01*
X160784Y6667D01*
X160187Y6551D01*
X159639Y6402D01*
X159138Y6220D01*
X158685Y6005D01*
X158280Y5757D01*
X157923Y5476D01*
X157614Y5164D01*
X157352Y4821D01*
X157137Y4447D01*
X156971Y4042D01*
X156852Y3605D01*
X156780Y3138D01*
X156762Y2892D01*
X156756Y2639D01*
X156774Y2168D01*
X156826Y1724D01*
X156912Y1306D01*
X157033Y915D01*
X157189Y551D01*
X157380Y213D01*
X157605Y-98D01*
X157864Y-383D01*
X158154Y-638D01*
X158470Y-858D01*
X158812Y-1045D01*
X159179Y-1198D01*
X159573Y-1316D01*
X159992Y-1401D01*
X160437Y-1452D01*
X160908Y-1469D01*
X161367Y-1454D01*
G37*
%LPC*%
G36*
X160586Y144D02*
X160281Y175D01*
X159993Y226D01*
X159722Y298D01*
X159469Y390D01*
X159232Y503D01*
X159013Y637D01*
X158810Y791D01*
X158629Y962D01*
X158471Y1149D01*
X158338Y1351D01*
X158229Y1568D01*
X158144Y1800D01*
X158084Y2047D01*
X158047Y2309D01*
X158035Y2586D01*
X158049Y2866D01*
X158092Y3131D01*
X158163Y3381D01*
X158262Y3617D01*
X158389Y3839D01*
X158545Y4046D01*
X158729Y4239D01*
X158942Y4417D01*
X159177Y4577D01*
X159431Y4715D01*
X159703Y4833D01*
X159994Y4929D01*
X160302Y5004D01*
X160629Y5057D01*
X160974Y5089D01*
X161337Y5100D01*
X161691Y5079D01*
X162025Y5015D01*
X162339Y4910D01*
X162633Y4763D01*
X162902Y4578D01*
X163138Y4363D01*
X163342Y4116D01*
X163514Y3838D01*
X163650Y3539D01*
X163747Y3228D01*
X163805Y2904D01*
X163824Y2569D01*
X163812Y2295D01*
X163775Y2037D01*
X163714Y1793D01*
X163628Y1563D01*
X163518Y1348D01*
X163384Y1148D01*
X163224Y962D01*
X163041Y791D01*
X162836Y637D01*
X162613Y503D01*
X162373Y390D01*
X162115Y298D01*
X161840Y226D01*
X161547Y175D01*
X161236Y144D01*
X160908Y134D01*
X160586Y144D01*
G37*
%LPD*%
G36*
X163538Y-14357D02*
X164006Y-14323D01*
X164457Y-14268D01*
X164892Y-14189D01*
X165310Y-14089D01*
X165712Y-13966D01*
X166097Y-13821D01*
X166465Y-13654D01*
X166815Y-13465D01*
X167144Y-13257D01*
X167452Y-13028D01*
X167740Y-12778D01*
X168006Y-12509D01*
X168252Y-12219D01*
X168477Y-11909D01*
X168681Y-11578D01*
X168863Y-11230D01*
X169020Y-10866D01*
X169153Y-10486D01*
X169262Y-10090D01*
X169347Y-9679D01*
X169408Y-9252D01*
X169444Y-8809D01*
X169456Y-8351D01*
X169443Y-7902D01*
X169404Y-7468D01*
X169339Y-7047D01*
X169248Y-6640D01*
X169131Y-6246D01*
X168988Y-5867D01*
X168819Y-5501D01*
X168624Y-5150D01*
X168404Y-4814D01*
X168160Y-4498D01*
X167893Y-4202D01*
X167602Y-3924D01*
X167286Y-3666D01*
X166947Y-3428D01*
X166585Y-3208D01*
X166198Y-3008D01*
X165515Y-4374D01*
X165826Y-4543D01*
X166116Y-4721D01*
X166387Y-4909D01*
X166638Y-5107D01*
X166868Y-5316D01*
X167079Y-5534D01*
X167269Y-5763D01*
X167440Y-6001D01*
X167590Y-6250D01*
X167720Y-6509D01*
X167830Y-6777D01*
X167921Y-7056D01*
X167991Y-7345D01*
X168041Y-7644D01*
X168071Y-7953D01*
X168081Y-8272D01*
X168060Y-8765D01*
X167995Y-9231D01*
X167887Y-9672D01*
X167736Y-10086D01*
X167542Y-10474D01*
X167305Y-10836D01*
X167025Y-11172D01*
X166702Y-11482D01*
X166343Y-11760D01*
X165956Y-12001D01*
X165542Y-12205D01*
X165100Y-12372D01*
X164630Y-12502D01*
X164132Y-12595D01*
X163607Y-12650D01*
X163054Y-12669D01*
X162495Y-12651D01*
X161967Y-12598D01*
X161470Y-12509D01*
X161003Y-12384D01*
X160567Y-12224D01*
X160161Y-12028D01*
X159786Y-11797D01*
X159441Y-11530D01*
X159132Y-11231D01*
X158864Y-10904D01*
X158638Y-10548D01*
X158452Y-10164D01*
X158308Y-9751D01*
X158205Y-9310D01*
X158143Y-8840D01*
X158123Y-8342D01*
X158132Y-8021D01*
X158158Y-7712D01*
X158203Y-7413D01*
X158265Y-7126D01*
X158345Y-6849D01*
X158443Y-6584D01*
X158559Y-6330D01*
X158692Y-6087D01*
X158842Y-5857D01*
X159008Y-5644D01*
X159190Y-5447D01*
X159388Y-5267D01*
X159602Y-5102D01*
X159832Y-4954D01*
X160077Y-4823D01*
X160339Y-4707D01*
X159813Y-3122D01*
X159446Y-3288D01*
X159102Y-3477D01*
X158781Y-3687D01*
X158484Y-3919D01*
X158210Y-4173D01*
X157959Y-4449D01*
X157731Y-4747D01*
X157527Y-5066D01*
X157346Y-5407D01*
X157190Y-5768D01*
X157057Y-6149D01*
X156949Y-6551D01*
X156865Y-6973D01*
X156804Y-7415D01*
X156768Y-7877D01*
X156756Y-8360D01*
X156763Y-8707D01*
X156782Y-9045D01*
X156815Y-9374D01*
X156861Y-9693D01*
X156920Y-10002D01*
X156992Y-10302D01*
X157077Y-10593D01*
X157175Y-10873D01*
X157286Y-11144D01*
X157410Y-11406D01*
X157547Y-11658D01*
X157697Y-11900D01*
X158037Y-12356D01*
X158429Y-12774D01*
X158867Y-13147D01*
X159346Y-13471D01*
X159864Y-13745D01*
X160138Y-13864D01*
X160422Y-13969D01*
X160716Y-14063D01*
X161020Y-14144D01*
X161334Y-14212D01*
X161658Y-14268D01*
X161992Y-14312D01*
X162336Y-14343D01*
X162690Y-14362D01*
X163054Y-14368D01*
X163538Y-14357D01*
G37*
G36*
X273227Y67066D02*
X273654Y67102D01*
X274068Y67161D01*
X274469Y67244D01*
X274856Y67352D01*
X275231Y67483D01*
X275592Y67637D01*
X275940Y67816D01*
X276272Y68017D01*
X276585Y68239D01*
X276878Y68482D01*
X277151Y68745D01*
X277405Y69030D01*
X277640Y69336D01*
X277855Y69662D01*
X278051Y70010D01*
X278226Y70375D01*
X278377Y70756D01*
X278505Y71151D01*
X278609Y71561D01*
X278691Y71986D01*
X278749Y72427D01*
X278784Y72882D01*
X278796Y73351D01*
X278789Y73709D01*
X278769Y74055D01*
X278736Y74392D01*
X278689Y74718D01*
X278629Y75034D01*
X278556Y75339D01*
X278469Y75634D01*
X278370Y75919D01*
X278257Y76193D01*
X278130Y76457D01*
X277990Y76710D01*
X277837Y76954D01*
X277671Y77186D01*
X277491Y77409D01*
X277298Y77621D01*
X277092Y77823D01*
X276873Y78013D01*
X276644Y78191D01*
X276403Y78357D01*
X276151Y78510D01*
X275887Y78652D01*
X275613Y78781D01*
X275327Y78897D01*
X275030Y79002D01*
X274722Y79094D01*
X274403Y79174D01*
X274073Y79241D01*
X273731Y79297D01*
X273378Y79340D01*
X273014Y79370D01*
X272639Y79389D01*
X272253Y79395D01*
X268171Y79395D01*
X268171Y67054D01*
X272787Y67054D01*
X273227Y67066D01*
G37*
%LPC*%
G36*
X269844Y68394D02*
X269844Y78055D01*
X272218Y78055D01*
X272796Y78036D01*
X273339Y77979D01*
X273846Y77885D01*
X274319Y77754D01*
X274756Y77584D01*
X275158Y77377D01*
X275525Y77133D01*
X275857Y76850D01*
X276152Y76532D01*
X276407Y76180D01*
X276623Y75794D01*
X276800Y75374D01*
X276937Y74919D01*
X277035Y74431D01*
X277094Y73908D01*
X277114Y73351D01*
X277105Y72977D01*
X277079Y72615D01*
X277036Y72265D01*
X276976Y71928D01*
X276898Y71604D01*
X276804Y71292D01*
X276691Y70993D01*
X276562Y70706D01*
X276417Y70434D01*
X276256Y70179D01*
X276081Y69939D01*
X275891Y69717D01*
X275686Y69510D01*
X275466Y69320D01*
X275231Y69147D01*
X274981Y68990D01*
X274719Y68850D01*
X274446Y68729D01*
X274163Y68627D01*
X273870Y68543D01*
X273566Y68478D01*
X273253Y68431D01*
X272929Y68403D01*
X272595Y68394D01*
X269844Y68394D01*
G37*
%LPD*%
G36*
X288769Y68394D02*
X285765Y68394D01*
X285765Y79395D01*
X284311Y79395D01*
X281394Y77389D01*
X281394Y75900D01*
X284179Y77888D01*
X284179Y68394D01*
X281035Y68394D01*
X281035Y67054D01*
X288769Y67054D01*
X288769Y68394D01*
G37*
G36*
X145597Y50812D02*
X146024Y50848D01*
X146438Y50907D01*
X146839Y50990D01*
X147226Y51098D01*
X147601Y51229D01*
X147962Y51383D01*
X148310Y51562D01*
X148642Y51763D01*
X148955Y51985D01*
X149248Y52228D01*
X149521Y52491D01*
X149775Y52776D01*
X150010Y53082D01*
X150225Y53408D01*
X150421Y53756D01*
X150596Y54121D01*
X150747Y54502D01*
X150875Y54897D01*
X150979Y55307D01*
X151061Y55732D01*
X151119Y56173D01*
X151154Y56628D01*
X151166Y57097D01*
X151159Y57455D01*
X151139Y57801D01*
X151106Y58138D01*
X151059Y58464D01*
X150999Y58780D01*
X150926Y59085D01*
X150839Y59380D01*
X150740Y59665D01*
X150627Y59939D01*
X150500Y60203D01*
X150360Y60456D01*
X150207Y60700D01*
X150041Y60932D01*
X149861Y61155D01*
X149668Y61367D01*
X149462Y61569D01*
X149243Y61759D01*
X149014Y61937D01*
X148773Y62103D01*
X148521Y62256D01*
X148257Y62398D01*
X147983Y62527D01*
X147697Y62643D01*
X147400Y62748D01*
X147092Y62840D01*
X146773Y62920D01*
X146443Y62987D01*
X146101Y63043D01*
X145748Y63086D01*
X145384Y63116D01*
X145009Y63135D01*
X144623Y63141D01*
X140541Y63141D01*
X140541Y50800D01*
X145157Y50800D01*
X145597Y50812D01*
G37*
%LPC*%
G36*
X142214Y52140D02*
X142214Y61801D01*
X144588Y61801D01*
X145166Y61782D01*
X145709Y61725D01*
X146216Y61631D01*
X146689Y61500D01*
X147126Y61330D01*
X147528Y61123D01*
X147895Y60879D01*
X148227Y60596D01*
X148522Y60278D01*
X148777Y59926D01*
X148993Y59540D01*
X149170Y59120D01*
X149307Y58665D01*
X149405Y58177D01*
X149464Y57654D01*
X149484Y57097D01*
X149475Y56723D01*
X149449Y56361D01*
X149406Y56011D01*
X149346Y55674D01*
X149268Y55350D01*
X149174Y55038D01*
X149061Y54739D01*
X148932Y54452D01*
X148787Y54180D01*
X148626Y53925D01*
X148451Y53685D01*
X148261Y53463D01*
X148056Y53256D01*
X147836Y53066D01*
X147601Y52893D01*
X147351Y52736D01*
X147089Y52596D01*
X146816Y52475D01*
X146533Y52373D01*
X146240Y52289D01*
X145936Y52224D01*
X145623Y52177D01*
X145299Y52149D01*
X144965Y52140D01*
X142214Y52140D01*
G37*
%LPD*%
G36*
X161113Y52140D02*
X154675Y52140D01*
X154827Y52450D01*
X155021Y52765D01*
X155256Y53087D01*
X155533Y53414D01*
X155857Y53755D01*
X156232Y54116D01*
X156658Y54497D01*
X157136Y54899D01*
X157978Y55595D01*
X158671Y56193D01*
X159217Y56694D01*
X159615Y57097D01*
X159919Y57452D01*
X160183Y57807D01*
X160407Y58162D01*
X160591Y58516D01*
X160735Y58872D01*
X160838Y59228D01*
X160899Y59585D01*
X160920Y59944D01*
X160904Y60337D01*
X160857Y60708D01*
X160779Y61055D01*
X160669Y61379D01*
X160528Y61680D01*
X160356Y61958D01*
X160152Y62213D01*
X159917Y62444D01*
X159653Y62651D01*
X159362Y62830D01*
X159044Y62981D01*
X158699Y63105D01*
X158326Y63201D01*
X157928Y63270D01*
X157502Y63311D01*
X157049Y63325D01*
X156633Y63311D01*
X156238Y63270D01*
X155861Y63202D01*
X155504Y63106D01*
X155166Y62983D01*
X154847Y62832D01*
X154548Y62654D01*
X154268Y62449D01*
X154012Y62220D01*
X153784Y61973D01*
X153584Y61707D01*
X153413Y61422D01*
X153270Y61118D01*
X153155Y60795D01*
X153069Y60453D01*
X153011Y60093D01*
X154623Y59944D01*
X154659Y60184D01*
X154713Y60411D01*
X154784Y60624D01*
X154871Y60823D01*
X154975Y61008D01*
X155096Y61180D01*
X155234Y61337D01*
X155389Y61481D01*
X155558Y61609D01*
X155737Y61721D01*
X155928Y61815D01*
X156130Y61892D01*
X156343Y61951D01*
X156567Y61994D01*
X156802Y62020D01*
X157049Y62028D01*
X157306Y62020D01*
X157550Y61993D01*
X157778Y61950D01*
X157992Y61888D01*
X158192Y61809D01*
X158377Y61713D01*
X158548Y61599D01*
X158704Y61468D01*
X158844Y61321D01*
X158965Y61159D01*
X159067Y60983D01*
X159151Y60793D01*
X159216Y60589D01*
X159262Y60371D01*
X159290Y60138D01*
X159300Y59891D01*
X159278Y59525D01*
X159213Y59178D01*
X159105Y58850D01*
X158954Y58543D01*
X158767Y58248D01*
X158554Y57960D01*
X158314Y57679D01*
X158047Y57404D01*
X157453Y56861D01*
X156790Y56318D01*
X156091Y55752D01*
X155385Y55140D01*
X155034Y54813D01*
X154691Y54468D01*
X154357Y54104D01*
X154031Y53721D01*
X153722Y53314D01*
X153437Y52877D01*
X153177Y52410D01*
X152941Y51912D01*
X152941Y50800D01*
X161113Y50800D01*
X161113Y52140D01*
G37*
G36*
X47807Y76598D02*
X48234Y76634D01*
X48648Y76693D01*
X49049Y76776D01*
X49436Y76884D01*
X49811Y77015D01*
X50172Y77169D01*
X50520Y77348D01*
X50852Y77549D01*
X51165Y77771D01*
X51458Y78014D01*
X51731Y78277D01*
X51985Y78562D01*
X52220Y78868D01*
X52435Y79194D01*
X52631Y79542D01*
X52806Y79907D01*
X52957Y80288D01*
X53085Y80683D01*
X53189Y81093D01*
X53271Y81518D01*
X53329Y81959D01*
X53364Y82414D01*
X53376Y82883D01*
X53369Y83241D01*
X53349Y83587D01*
X53316Y83924D01*
X53269Y84250D01*
X53209Y84566D01*
X53136Y84871D01*
X53049Y85166D01*
X52950Y85451D01*
X52837Y85725D01*
X52710Y85989D01*
X52570Y86242D01*
X52417Y86486D01*
X52251Y86718D01*
X52071Y86941D01*
X51878Y87153D01*
X51672Y87355D01*
X51453Y87545D01*
X51224Y87723D01*
X50983Y87889D01*
X50731Y88042D01*
X50467Y88184D01*
X50193Y88313D01*
X49907Y88429D01*
X49610Y88534D01*
X49302Y88626D01*
X48983Y88706D01*
X48653Y88773D01*
X48311Y88829D01*
X47958Y88872D01*
X47594Y88902D01*
X47219Y88921D01*
X46833Y88927D01*
X42751Y88927D01*
X42751Y76586D01*
X47367Y76586D01*
X47807Y76598D01*
G37*
%LPC*%
G36*
X44424Y77926D02*
X44424Y87587D01*
X46798Y87587D01*
X47376Y87568D01*
X47919Y87511D01*
X48426Y87417D01*
X48899Y87286D01*
X49336Y87116D01*
X49738Y86909D01*
X50105Y86665D01*
X50437Y86382D01*
X50732Y86064D01*
X50987Y85712D01*
X51203Y85326D01*
X51380Y84906D01*
X51517Y84451D01*
X51615Y83963D01*
X51674Y83440D01*
X51694Y82883D01*
X51685Y82509D01*
X51659Y82147D01*
X51616Y81797D01*
X51556Y81460D01*
X51478Y81136D01*
X51384Y80824D01*
X51271Y80525D01*
X51142Y80238D01*
X50997Y79966D01*
X50836Y79711D01*
X50661Y79471D01*
X50471Y79249D01*
X50266Y79042D01*
X50046Y78852D01*
X49811Y78679D01*
X49561Y78522D01*
X49299Y78382D01*
X49026Y78261D01*
X48743Y78159D01*
X48450Y78075D01*
X48146Y78010D01*
X47833Y77963D01*
X47509Y77935D01*
X47175Y77926D01*
X44424Y77926D01*
G37*
%LPD*%
G36*
X59739Y76426D02*
X60199Y76469D01*
X60630Y76543D01*
X61032Y76645D01*
X61405Y76777D01*
X61749Y76938D01*
X62064Y77128D01*
X62350Y77348D01*
X62605Y77594D01*
X62826Y77865D01*
X63012Y78159D01*
X63165Y78478D01*
X63284Y78821D01*
X63369Y79187D01*
X63419Y79578D01*
X63436Y79993D01*
X63424Y80282D01*
X63388Y80559D01*
X63328Y80823D01*
X63244Y81075D01*
X63135Y81314D01*
X63003Y81540D01*
X62846Y81754D01*
X62666Y81955D01*
X62463Y82140D01*
X62242Y82305D01*
X62001Y82451D01*
X61742Y82577D01*
X61463Y82683D01*
X61165Y82770D01*
X60847Y82836D01*
X60511Y82883D01*
X60511Y82918D01*
X60817Y82992D01*
X61104Y83080D01*
X61373Y83183D01*
X61622Y83301D01*
X61853Y83433D01*
X62065Y83581D01*
X62259Y83744D01*
X62434Y83921D01*
X62589Y84113D01*
X62723Y84319D01*
X62837Y84539D01*
X62930Y84772D01*
X63002Y85019D01*
X63054Y85280D01*
X63085Y85555D01*
X63095Y85844D01*
X63079Y86219D01*
X63031Y86572D01*
X62950Y86904D01*
X62838Y87216D01*
X62693Y87506D01*
X62516Y87774D01*
X62307Y88022D01*
X62066Y88248D01*
X61796Y88450D01*
X61499Y88625D01*
X61178Y88774D01*
X60830Y88895D01*
X60456Y88989D01*
X60056Y89057D01*
X59631Y89097D01*
X59180Y89111D01*
X58765Y89097D01*
X58369Y89058D01*
X57992Y88991D01*
X57635Y88898D01*
X57297Y88779D01*
X56978Y88633D01*
X56679Y88460D01*
X56399Y88261D01*
X56143Y88038D01*
X55915Y87795D01*
X55715Y87530D01*
X55544Y87245D01*
X55401Y86939D01*
X55286Y86612D01*
X55200Y86265D01*
X55142Y85896D01*
X56727Y85774D01*
X56762Y86010D01*
X56814Y86232D01*
X56882Y86441D01*
X56967Y86636D01*
X57069Y86818D01*
X57188Y86986D01*
X57324Y87140D01*
X57476Y87280D01*
X57643Y87405D01*
X57823Y87514D01*
X58015Y87606D01*
X58220Y87681D01*
X58437Y87739D01*
X58666Y87781D01*
X58908Y87806D01*
X59162Y87814D01*
X59440Y87805D01*
X59701Y87779D01*
X59943Y87734D01*
X60168Y87671D01*
X60376Y87590D01*
X60566Y87492D01*
X60738Y87375D01*
X60892Y87241D01*
X61029Y87091D01*
X61147Y86928D01*
X61247Y86752D01*
X61329Y86563D01*
X61393Y86361D01*
X61438Y86146D01*
X61465Y85918D01*
X61475Y85677D01*
X61463Y85435D01*
X61430Y85205D01*
X61374Y84989D01*
X61296Y84787D01*
X61196Y84599D01*
X61073Y84424D01*
X60928Y84262D01*
X60761Y84114D01*
X60573Y83982D01*
X60367Y83867D01*
X60143Y83770D01*
X59901Y83690D01*
X59641Y83628D01*
X59362Y83584D01*
X59066Y83558D01*
X58751Y83549D01*
X57892Y83549D01*
X57892Y82183D01*
X58786Y82183D01*
X59141Y82174D01*
X59474Y82147D01*
X59786Y82103D01*
X60076Y82041D01*
X60345Y81962D01*
X60593Y81865D01*
X60819Y81750D01*
X61023Y81618D01*
X61205Y81470D01*
X61363Y81308D01*
X61496Y81132D01*
X61605Y80942D01*
X61690Y80739D01*
X61750Y80522D01*
X61787Y80291D01*
X61799Y80046D01*
X61788Y79765D01*
X61756Y79503D01*
X61703Y79259D01*
X61629Y79032D01*
X61533Y78823D01*
X61417Y78632D01*
X61279Y78458D01*
X61120Y78303D01*
X60942Y78165D01*
X60748Y78046D01*
X60539Y77945D01*
X60313Y77863D01*
X60071Y77798D01*
X59813Y77753D01*
X59540Y77725D01*
X59250Y77716D01*
X58961Y77724D01*
X58689Y77750D01*
X58432Y77793D01*
X58192Y77853D01*
X57967Y77930D01*
X57759Y78024D01*
X57567Y78135D01*
X57391Y78263D01*
X57231Y78409D01*
X57087Y78571D01*
X56959Y78751D01*
X56847Y78948D01*
X56752Y79161D01*
X56672Y79392D01*
X56608Y79640D01*
X56561Y79905D01*
X54932Y79757D01*
X54999Y79355D01*
X55094Y78980D01*
X55217Y78629D01*
X55369Y78304D01*
X55549Y78004D01*
X55757Y77729D01*
X55994Y77480D01*
X56259Y77256D01*
X56550Y77058D01*
X56865Y76886D01*
X57203Y76741D01*
X57565Y76622D01*
X57951Y76530D01*
X58360Y76464D01*
X58793Y76424D01*
X59250Y76411D01*
X59739Y76426D01*
G37*
G36*
X253662Y-57312D02*
X254097Y-57273D01*
X254518Y-57208D01*
X254925Y-57117D01*
X255318Y-57000D01*
X255698Y-56857D01*
X256063Y-56688D01*
X256415Y-56493D01*
X256750Y-56273D01*
X257066Y-56029D01*
X257363Y-55762D01*
X257640Y-55471D01*
X257898Y-55155D01*
X258137Y-54816D01*
X258356Y-54454D01*
X258556Y-54067D01*
X257190Y-53384D01*
X257022Y-53695D01*
X256844Y-53985D01*
X256655Y-54256D01*
X256457Y-54507D01*
X256249Y-54737D01*
X256030Y-54948D01*
X255802Y-55138D01*
X255563Y-55309D01*
X255314Y-55459D01*
X255056Y-55589D01*
X254787Y-55699D01*
X254508Y-55790D01*
X254219Y-55860D01*
X253920Y-55910D01*
X253611Y-55940D01*
X253292Y-55950D01*
X252800Y-55929D01*
X252333Y-55864D01*
X251893Y-55756D01*
X251478Y-55605D01*
X251090Y-55411D01*
X250728Y-55174D01*
X250392Y-54894D01*
X250082Y-54571D01*
X249804Y-54212D01*
X249563Y-53825D01*
X249359Y-53411D01*
X249192Y-52969D01*
X249063Y-52499D01*
X248970Y-52001D01*
X248914Y-51476D01*
X248896Y-50923D01*
X248913Y-50364D01*
X248967Y-49836D01*
X249056Y-49339D01*
X249180Y-48872D01*
X249340Y-48436D01*
X249536Y-48030D01*
X249767Y-47655D01*
X250034Y-47310D01*
X250333Y-47001D01*
X250661Y-46733D01*
X251016Y-46507D01*
X251401Y-46321D01*
X251813Y-46177D01*
X252255Y-46074D01*
X252724Y-46012D01*
X253222Y-45992D01*
X253543Y-46001D01*
X253853Y-46027D01*
X254151Y-46072D01*
X254439Y-46134D01*
X254715Y-46214D01*
X254980Y-46312D01*
X255235Y-46428D01*
X255478Y-46561D01*
X255707Y-46711D01*
X255920Y-46877D01*
X256117Y-47059D01*
X256298Y-47257D01*
X256462Y-47471D01*
X256610Y-47701D01*
X256742Y-47946D01*
X256857Y-48208D01*
X258442Y-47682D01*
X258276Y-47315D01*
X258088Y-46971D01*
X257878Y-46650D01*
X257645Y-46353D01*
X257391Y-46079D01*
X257116Y-45828D01*
X256818Y-45600D01*
X256498Y-45396D01*
X256157Y-45215D01*
X255796Y-45059D01*
X255415Y-44926D01*
X255014Y-44818D01*
X254592Y-44734D01*
X254150Y-44673D01*
X253687Y-44637D01*
X253205Y-44625D01*
X252857Y-44632D01*
X252519Y-44651D01*
X252190Y-44684D01*
X251871Y-44730D01*
X251562Y-44789D01*
X251262Y-44861D01*
X250972Y-44946D01*
X250691Y-45044D01*
X250420Y-45155D01*
X250159Y-45279D01*
X249907Y-45416D01*
X249664Y-45566D01*
X249208Y-45906D01*
X248791Y-46298D01*
X248417Y-46736D01*
X248093Y-47215D01*
X247819Y-47733D01*
X247701Y-48007D01*
X247595Y-48291D01*
X247502Y-48585D01*
X247421Y-48889D01*
X247352Y-49203D01*
X247296Y-49527D01*
X247253Y-49861D01*
X247221Y-50205D01*
X247203Y-50559D01*
X247197Y-50923D01*
X247208Y-51407D01*
X247241Y-51875D01*
X247297Y-52326D01*
X247375Y-52761D01*
X247475Y-53179D01*
X247598Y-53581D01*
X247743Y-53966D01*
X247910Y-54334D01*
X248099Y-54684D01*
X248308Y-55013D01*
X248537Y-55321D01*
X248786Y-55609D01*
X249056Y-55875D01*
X249346Y-56121D01*
X249656Y-56346D01*
X249986Y-56550D01*
X250334Y-56732D01*
X250699Y-56889D01*
X251078Y-57022D01*
X251474Y-57131D01*
X251885Y-57216D01*
X252312Y-57277D01*
X252755Y-57313D01*
X253214Y-57325D01*
X253662Y-57312D01*
G37*
G36*
X268355Y-55810D02*
X265350Y-55810D01*
X265350Y-44809D01*
X263896Y-44809D01*
X260980Y-46815D01*
X260980Y-48304D01*
X263765Y-46316D01*
X263765Y-55810D01*
X260621Y-55810D01*
X260621Y-57150D01*
X268355Y-57150D01*
X268355Y-55810D01*
G37*
G36*
X244645Y-44809D02*
X242972Y-44809D01*
X242972Y-57150D01*
X244645Y-57150D01*
X244645Y-44809D01*
G37*
G36*
X-25887Y-237382D02*
X-25419Y-237348D01*
X-24968Y-237293D01*
X-24533Y-237214D01*
X-24115Y-237114D01*
X-23714Y-236991D01*
X-23329Y-236846D01*
X-22960Y-236679D01*
X-22610Y-236490D01*
X-22281Y-236282D01*
X-21973Y-236053D01*
X-21686Y-235803D01*
X-21419Y-235534D01*
X-21173Y-235244D01*
X-20948Y-234934D01*
X-20744Y-234603D01*
X-20562Y-234255D01*
X-20405Y-233891D01*
X-20272Y-233511D01*
X-20163Y-233115D01*
X-20078Y-232704D01*
X-20017Y-232277D01*
X-19981Y-231834D01*
X-19969Y-231376D01*
X-19982Y-230927D01*
X-20021Y-230493D01*
X-20086Y-230072D01*
X-20177Y-229665D01*
X-20294Y-229271D01*
X-20437Y-228892D01*
X-20606Y-228526D01*
X-20801Y-228175D01*
X-21021Y-227839D01*
X-21265Y-227523D01*
X-21532Y-227227D01*
X-21824Y-226949D01*
X-22139Y-226691D01*
X-22478Y-226453D01*
X-22841Y-226233D01*
X-23227Y-226033D01*
X-23910Y-227399D01*
X-23600Y-227568D01*
X-23309Y-227746D01*
X-23038Y-227934D01*
X-22788Y-228132D01*
X-22557Y-228341D01*
X-22347Y-228559D01*
X-22156Y-228788D01*
X-21986Y-229026D01*
X-21835Y-229275D01*
X-21705Y-229534D01*
X-21595Y-229802D01*
X-21504Y-230081D01*
X-21434Y-230370D01*
X-21384Y-230669D01*
X-21354Y-230978D01*
X-21344Y-231297D01*
X-21366Y-231790D01*
X-21430Y-232256D01*
X-21538Y-232697D01*
X-21689Y-233111D01*
X-21883Y-233499D01*
X-22120Y-233861D01*
X-22400Y-234197D01*
X-22724Y-234507D01*
X-23082Y-234785D01*
X-23469Y-235026D01*
X-23883Y-235230D01*
X-24325Y-235397D01*
X-24795Y-235527D01*
X-25293Y-235620D01*
X-25818Y-235675D01*
X-26372Y-235694D01*
X-26930Y-235676D01*
X-27458Y-235623D01*
X-27955Y-235534D01*
X-28422Y-235409D01*
X-28858Y-235249D01*
X-29264Y-235053D01*
X-29640Y-234822D01*
X-29984Y-234555D01*
X-30293Y-234256D01*
X-30561Y-233929D01*
X-30788Y-233573D01*
X-30973Y-233189D01*
X-31117Y-232776D01*
X-31220Y-232335D01*
X-31282Y-231865D01*
X-31303Y-231367D01*
X-31294Y-231046D01*
X-31267Y-230737D01*
X-31223Y-230438D01*
X-31160Y-230151D01*
X-31080Y-229874D01*
X-30982Y-229609D01*
X-30867Y-229355D01*
X-30733Y-229112D01*
X-30583Y-228882D01*
X-30417Y-228669D01*
X-30235Y-228472D01*
X-30037Y-228292D01*
X-29823Y-228127D01*
X-29594Y-227979D01*
X-29348Y-227848D01*
X-29087Y-227732D01*
X-29612Y-226147D01*
X-29979Y-226313D01*
X-30323Y-226502D01*
X-30644Y-226712D01*
X-30941Y-226944D01*
X-31215Y-227198D01*
X-31466Y-227474D01*
X-31694Y-227772D01*
X-31898Y-228091D01*
X-32079Y-228432D01*
X-32235Y-228793D01*
X-32368Y-229174D01*
X-32476Y-229576D01*
X-32561Y-229998D01*
X-32621Y-230440D01*
X-32657Y-230902D01*
X-32669Y-231385D01*
X-32662Y-231732D01*
X-32643Y-232070D01*
X-32610Y-232399D01*
X-32564Y-232718D01*
X-32506Y-233027D01*
X-32434Y-233327D01*
X-32349Y-233618D01*
X-32251Y-233898D01*
X-32140Y-234169D01*
X-32015Y-234431D01*
X-31878Y-234683D01*
X-31728Y-234925D01*
X-31388Y-235381D01*
X-30996Y-235799D01*
X-30558Y-236172D01*
X-30080Y-236496D01*
X-29562Y-236770D01*
X-29287Y-236889D01*
X-29003Y-236994D01*
X-28709Y-237088D01*
X-28405Y-237169D01*
X-28091Y-237237D01*
X-27767Y-237293D01*
X-27433Y-237337D01*
X-27089Y-237368D01*
X-26735Y-237387D01*
X-26372Y-237393D01*
X-25887Y-237382D01*
G37*
G36*
X-20144Y-216261D02*
X-21484Y-216261D01*
X-21484Y-222699D01*
X-21794Y-222547D01*
X-22109Y-222353D01*
X-22431Y-222117D01*
X-22759Y-221840D01*
X-23099Y-221517D01*
X-23460Y-221142D01*
X-23842Y-220715D01*
X-24243Y-220238D01*
X-24939Y-219396D01*
X-25537Y-218703D01*
X-26038Y-218157D01*
X-26442Y-217759D01*
X-26796Y-217455D01*
X-27151Y-217191D01*
X-27506Y-216967D01*
X-27860Y-216782D01*
X-28216Y-216639D01*
X-28572Y-216536D01*
X-28930Y-216474D01*
X-29288Y-216454D01*
X-29682Y-216470D01*
X-30052Y-216517D01*
X-30399Y-216595D01*
X-30723Y-216705D01*
X-31024Y-216846D01*
X-31302Y-217018D01*
X-31557Y-217222D01*
X-31789Y-217457D01*
X-31995Y-217721D01*
X-32174Y-218012D01*
X-32325Y-218330D01*
X-32449Y-218675D01*
X-32545Y-219047D01*
X-32614Y-219446D01*
X-32655Y-219872D01*
X-32669Y-220325D01*
X-32655Y-220740D01*
X-32614Y-221136D01*
X-32546Y-221513D01*
X-32450Y-221870D01*
X-32327Y-222208D01*
X-32176Y-222527D01*
X-31998Y-222826D01*
X-31793Y-223106D01*
X-31565Y-223362D01*
X-31317Y-223590D01*
X-31051Y-223790D01*
X-30766Y-223961D01*
X-30462Y-224104D01*
X-30139Y-224219D01*
X-29798Y-224305D01*
X-29437Y-224363D01*
X-29288Y-222751D01*
X-29529Y-222714D01*
X-29755Y-222661D01*
X-29968Y-222590D01*
X-30167Y-222503D01*
X-30352Y-222399D01*
X-30524Y-222277D01*
X-30681Y-222140D01*
X-30825Y-221985D01*
X-30954Y-221816D01*
X-31065Y-221636D01*
X-31159Y-221446D01*
X-31236Y-221244D01*
X-31296Y-221031D01*
X-31338Y-220807D01*
X-31364Y-220571D01*
X-31373Y-220325D01*
X-31364Y-220067D01*
X-31338Y-219824D01*
X-31294Y-219596D01*
X-31233Y-219381D01*
X-31154Y-219182D01*
X-31057Y-218997D01*
X-30943Y-218826D01*
X-30812Y-218670D01*
X-30665Y-218530D01*
X-30503Y-218409D01*
X-30328Y-218307D01*
X-30138Y-218223D01*
X-29934Y-218158D01*
X-29715Y-218111D01*
X-29482Y-218084D01*
X-29236Y-218074D01*
X-28869Y-218096D01*
X-28522Y-218161D01*
X-28194Y-218269D01*
X-27887Y-218420D01*
X-27592Y-218607D01*
X-27304Y-218820D01*
X-27023Y-219060D01*
X-26748Y-219327D01*
X-26205Y-219921D01*
X-25662Y-220584D01*
X-25096Y-221283D01*
X-24484Y-221989D01*
X-24157Y-222340D01*
X-23812Y-222682D01*
X-23448Y-223016D01*
X-23065Y-223342D01*
X-22658Y-223652D01*
X-22221Y-223937D01*
X-21754Y-224197D01*
X-21257Y-224433D01*
X-20144Y-224433D01*
X-20144Y-216261D01*
G37*
G36*
X-20144Y-239944D02*
X-32485Y-239944D01*
X-32485Y-241617D01*
X-20144Y-241617D01*
X-20144Y-239944D01*
G37*
G36*
X163492Y-44612D02*
X163927Y-44573D01*
X164348Y-44508D01*
X164755Y-44417D01*
X165148Y-44300D01*
X165528Y-44157D01*
X165893Y-43988D01*
X166245Y-43793D01*
X166580Y-43573D01*
X166896Y-43329D01*
X167193Y-43062D01*
X167470Y-42771D01*
X167728Y-42455D01*
X167967Y-42116D01*
X168186Y-41754D01*
X168386Y-41367D01*
X167020Y-40684D01*
X166852Y-40995D01*
X166674Y-41285D01*
X166485Y-41556D01*
X166287Y-41807D01*
X166079Y-42037D01*
X165860Y-42248D01*
X165632Y-42438D01*
X165393Y-42609D01*
X165144Y-42759D01*
X164886Y-42889D01*
X164617Y-42999D01*
X164338Y-43090D01*
X164049Y-43160D01*
X163750Y-43210D01*
X163441Y-43240D01*
X163122Y-43250D01*
X162630Y-43229D01*
X162163Y-43164D01*
X161723Y-43056D01*
X161308Y-42905D01*
X160920Y-42711D01*
X160558Y-42474D01*
X160222Y-42194D01*
X159912Y-41871D01*
X159634Y-41512D01*
X159393Y-41125D01*
X159189Y-40711D01*
X159022Y-40269D01*
X158893Y-39799D01*
X158800Y-39301D01*
X158744Y-38776D01*
X158726Y-38223D01*
X158743Y-37664D01*
X158797Y-37136D01*
X158886Y-36639D01*
X159010Y-36172D01*
X159170Y-35736D01*
X159366Y-35330D01*
X159597Y-34955D01*
X159864Y-34610D01*
X160163Y-34301D01*
X160491Y-34033D01*
X160846Y-33807D01*
X161231Y-33621D01*
X161643Y-33477D01*
X162085Y-33374D01*
X162554Y-33312D01*
X163052Y-33292D01*
X163373Y-33301D01*
X163683Y-33327D01*
X163981Y-33372D01*
X164269Y-33434D01*
X164545Y-33514D01*
X164810Y-33612D01*
X165065Y-33728D01*
X165308Y-33861D01*
X165537Y-34011D01*
X165750Y-34177D01*
X165947Y-34359D01*
X166128Y-34557D01*
X166292Y-34771D01*
X166440Y-35001D01*
X166572Y-35246D01*
X166687Y-35508D01*
X168272Y-34982D01*
X168106Y-34615D01*
X167918Y-34271D01*
X167708Y-33950D01*
X167475Y-33653D01*
X167221Y-33379D01*
X166946Y-33128D01*
X166648Y-32900D01*
X166328Y-32696D01*
X165987Y-32515D01*
X165626Y-32359D01*
X165245Y-32226D01*
X164844Y-32118D01*
X164422Y-32034D01*
X163980Y-31973D01*
X163517Y-31937D01*
X163035Y-31925D01*
X162687Y-31932D01*
X162349Y-31951D01*
X162020Y-31984D01*
X161701Y-32030D01*
X161392Y-32089D01*
X161092Y-32161D01*
X160802Y-32246D01*
X160521Y-32344D01*
X160250Y-32455D01*
X159989Y-32579D01*
X159737Y-32716D01*
X159494Y-32866D01*
X159038Y-33206D01*
X158621Y-33598D01*
X158247Y-34036D01*
X157923Y-34515D01*
X157649Y-35033D01*
X157531Y-35307D01*
X157425Y-35591D01*
X157332Y-35885D01*
X157251Y-36189D01*
X157182Y-36503D01*
X157126Y-36827D01*
X157083Y-37161D01*
X157051Y-37505D01*
X157033Y-37859D01*
X157027Y-38223D01*
X157038Y-38707D01*
X157071Y-39175D01*
X157127Y-39626D01*
X157205Y-40061D01*
X157305Y-40479D01*
X157428Y-40881D01*
X157573Y-41266D01*
X157740Y-41634D01*
X157929Y-41984D01*
X158138Y-42313D01*
X158367Y-42621D01*
X158616Y-42909D01*
X158886Y-43175D01*
X159176Y-43421D01*
X159486Y-43646D01*
X159816Y-43850D01*
X160164Y-44032D01*
X160529Y-44189D01*
X160908Y-44322D01*
X161304Y-44431D01*
X161715Y-44516D01*
X162142Y-44577D01*
X162585Y-44613D01*
X163044Y-44625D01*
X163492Y-44612D01*
G37*
G36*
X174575Y-44611D02*
X175035Y-44567D01*
X175466Y-44493D01*
X175868Y-44391D01*
X176241Y-44259D01*
X176585Y-44098D01*
X176900Y-43908D01*
X177186Y-43688D01*
X177441Y-43442D01*
X177661Y-43171D01*
X177848Y-42877D01*
X178001Y-42558D01*
X178119Y-42216D01*
X178204Y-41849D01*
X178255Y-41458D01*
X178272Y-41043D01*
X178260Y-40754D01*
X178224Y-40477D01*
X178164Y-40213D01*
X178079Y-39961D01*
X177971Y-39722D01*
X177839Y-39496D01*
X177682Y-39282D01*
X177501Y-39081D01*
X177299Y-38896D01*
X177078Y-38731D01*
X176837Y-38585D01*
X176577Y-38459D01*
X176298Y-38353D01*
X176000Y-38266D01*
X175683Y-38200D01*
X175347Y-38153D01*
X175347Y-38118D01*
X175653Y-38044D01*
X175940Y-37956D01*
X176208Y-37853D01*
X176458Y-37736D01*
X176689Y-37603D01*
X176901Y-37455D01*
X177095Y-37292D01*
X177269Y-37115D01*
X177424Y-36923D01*
X177559Y-36717D01*
X177672Y-36497D01*
X177765Y-36264D01*
X177838Y-36017D01*
X177889Y-35756D01*
X177920Y-35481D01*
X177931Y-35192D01*
X177914Y-34817D01*
X177866Y-34464D01*
X177786Y-34132D01*
X177673Y-33820D01*
X177529Y-33531D01*
X177352Y-33262D01*
X177143Y-33014D01*
X176901Y-32788D01*
X176631Y-32586D01*
X176335Y-32411D01*
X176013Y-32262D01*
X175665Y-32141D01*
X175292Y-32047D01*
X174892Y-31979D01*
X174467Y-31939D01*
X174015Y-31925D01*
X173600Y-31939D01*
X173204Y-31978D01*
X172828Y-32045D01*
X172471Y-32138D01*
X172133Y-32257D01*
X171814Y-32403D01*
X171515Y-32576D01*
X171235Y-32775D01*
X170978Y-32998D01*
X170750Y-33241D01*
X170551Y-33506D01*
X170380Y-33791D01*
X170237Y-34097D01*
X170122Y-34424D01*
X170036Y-34771D01*
X169978Y-35140D01*
X171563Y-35262D01*
X171598Y-35026D01*
X171649Y-34804D01*
X171718Y-34595D01*
X171803Y-34400D01*
X171905Y-34218D01*
X172024Y-34050D01*
X172159Y-33896D01*
X172312Y-33756D01*
X172479Y-33631D01*
X172659Y-33522D01*
X172851Y-33430D01*
X173055Y-33355D01*
X173272Y-33297D01*
X173502Y-33255D01*
X173744Y-33230D01*
X173998Y-33222D01*
X174276Y-33231D01*
X174536Y-33257D01*
X174779Y-33302D01*
X175004Y-33365D01*
X175211Y-33446D01*
X175401Y-33544D01*
X175573Y-33661D01*
X175728Y-33795D01*
X175864Y-33945D01*
X175983Y-34108D01*
X176083Y-34284D01*
X176165Y-34473D01*
X176228Y-34675D01*
X176274Y-34890D01*
X176301Y-35118D01*
X176310Y-35359D01*
X176299Y-35602D01*
X176266Y-35831D01*
X176210Y-36047D01*
X176132Y-36249D01*
X176031Y-36437D01*
X175909Y-36613D01*
X175764Y-36774D01*
X175596Y-36922D01*
X175409Y-37054D01*
X175203Y-37169D01*
X174979Y-37266D01*
X174737Y-37346D01*
X174477Y-37408D01*
X174198Y-37452D01*
X173901Y-37478D01*
X173586Y-37487D01*
X172728Y-37487D01*
X172728Y-38853D01*
X173621Y-38853D01*
X173976Y-38862D01*
X174310Y-38889D01*
X174622Y-38933D01*
X174912Y-38995D01*
X175181Y-39074D01*
X175429Y-39171D01*
X175655Y-39286D01*
X175859Y-39418D01*
X176041Y-39566D01*
X176198Y-39728D01*
X176331Y-39904D01*
X176440Y-40094D01*
X176525Y-40297D01*
X176586Y-40514D01*
X176622Y-40746D01*
X176634Y-40990D01*
X176624Y-41271D01*
X176592Y-41533D01*
X176539Y-41777D01*
X176465Y-42004D01*
X176369Y-42213D01*
X176252Y-42404D01*
X176115Y-42578D01*
X175955Y-42733D01*
X175778Y-42871D01*
X175584Y-42990D01*
X175374Y-43091D01*
X175149Y-43173D01*
X174907Y-43238D01*
X174649Y-43284D01*
X174375Y-43311D01*
X174086Y-43320D01*
X173797Y-43312D01*
X173524Y-43286D01*
X173268Y-43243D01*
X173027Y-43183D01*
X172803Y-43106D01*
X172595Y-43012D01*
X172403Y-42901D01*
X172227Y-42773D01*
X172066Y-42627D01*
X171923Y-42465D01*
X171795Y-42285D01*
X171683Y-42089D01*
X171587Y-41875D01*
X171508Y-41644D01*
X171444Y-41396D01*
X171397Y-41131D01*
X169768Y-41279D01*
X169834Y-41681D01*
X169929Y-42056D01*
X170053Y-42407D01*
X170204Y-42732D01*
X170384Y-43032D01*
X170593Y-43307D01*
X170829Y-43556D01*
X171094Y-43780D01*
X171385Y-43978D01*
X171700Y-44150D01*
X172039Y-44295D01*
X172401Y-44414D01*
X172786Y-44506D01*
X173196Y-44572D01*
X173629Y-44612D01*
X174086Y-44625D01*
X174575Y-44611D01*
G37*
G36*
X154475Y-32109D02*
X152802Y-32109D01*
X152802Y-44450D01*
X154475Y-44450D01*
X154475Y-32109D01*
G37*
G36*
X73931Y-60706D02*
X75665Y-60706D01*
X75665Y-59462D01*
X73931Y-59462D01*
X73931Y-51159D01*
X72275Y-51159D01*
X66626Y-59480D01*
X66626Y-60706D01*
X72442Y-60706D01*
X72442Y-63500D01*
X73931Y-63500D01*
X73931Y-60706D01*
G37*
%LPC*%
G36*
X68080Y-59462D02*
X68220Y-59287D01*
X68693Y-58639D01*
X71855Y-53979D01*
X72196Y-53401D01*
X72442Y-52937D01*
X72442Y-59462D01*
X68080Y-59462D01*
G37*
%LPD*%
G36*
X60622Y-63662D02*
X61057Y-63623D01*
X61478Y-63558D01*
X61885Y-63467D01*
X62278Y-63350D01*
X62658Y-63207D01*
X63023Y-63038D01*
X63375Y-62843D01*
X63710Y-62623D01*
X64026Y-62379D01*
X64323Y-62112D01*
X64600Y-61821D01*
X64858Y-61505D01*
X65097Y-61166D01*
X65316Y-60804D01*
X65516Y-60417D01*
X64150Y-59734D01*
X63982Y-60045D01*
X63804Y-60335D01*
X63615Y-60606D01*
X63417Y-60857D01*
X63209Y-61087D01*
X62990Y-61298D01*
X62762Y-61488D01*
X62523Y-61659D01*
X62274Y-61809D01*
X62016Y-61939D01*
X61747Y-62049D01*
X61468Y-62140D01*
X61179Y-62210D01*
X60880Y-62260D01*
X60571Y-62290D01*
X60252Y-62300D01*
X59760Y-62279D01*
X59293Y-62214D01*
X58853Y-62106D01*
X58438Y-61955D01*
X58050Y-61761D01*
X57688Y-61524D01*
X57352Y-61244D01*
X57042Y-60921D01*
X56764Y-60562D01*
X56523Y-60175D01*
X56319Y-59761D01*
X56152Y-59319D01*
X56023Y-58849D01*
X55930Y-58351D01*
X55874Y-57826D01*
X55856Y-57273D01*
X55873Y-56714D01*
X55927Y-56186D01*
X56016Y-55689D01*
X56140Y-55222D01*
X56300Y-54786D01*
X56496Y-54380D01*
X56727Y-54005D01*
X56994Y-53660D01*
X57293Y-53351D01*
X57621Y-53083D01*
X57976Y-52857D01*
X58361Y-52671D01*
X58773Y-52527D01*
X59215Y-52424D01*
X59684Y-52362D01*
X60182Y-52342D01*
X60503Y-52351D01*
X60813Y-52377D01*
X61111Y-52422D01*
X61399Y-52484D01*
X61675Y-52564D01*
X61940Y-52662D01*
X62195Y-52778D01*
X62438Y-52911D01*
X62667Y-53061D01*
X62880Y-53227D01*
X63077Y-53409D01*
X63258Y-53607D01*
X63422Y-53821D01*
X63570Y-54051D01*
X63702Y-54296D01*
X63817Y-54558D01*
X65402Y-54032D01*
X65236Y-53665D01*
X65048Y-53321D01*
X64838Y-53000D01*
X64605Y-52703D01*
X64351Y-52429D01*
X64076Y-52178D01*
X63778Y-51950D01*
X63458Y-51746D01*
X63117Y-51565D01*
X62756Y-51409D01*
X62375Y-51276D01*
X61974Y-51168D01*
X61552Y-51084D01*
X61110Y-51023D01*
X60647Y-50987D01*
X60165Y-50975D01*
X59817Y-50982D01*
X59479Y-51001D01*
X59150Y-51034D01*
X58831Y-51080D01*
X58522Y-51139D01*
X58222Y-51211D01*
X57932Y-51296D01*
X57651Y-51394D01*
X57380Y-51505D01*
X57119Y-51629D01*
X56867Y-51766D01*
X56624Y-51916D01*
X56168Y-52256D01*
X55751Y-52648D01*
X55377Y-53086D01*
X55053Y-53565D01*
X54779Y-54083D01*
X54661Y-54357D01*
X54555Y-54641D01*
X54462Y-54935D01*
X54381Y-55239D01*
X54312Y-55553D01*
X54256Y-55877D01*
X54213Y-56211D01*
X54181Y-56555D01*
X54163Y-56909D01*
X54157Y-57273D01*
X54168Y-57757D01*
X54201Y-58225D01*
X54257Y-58676D01*
X54335Y-59111D01*
X54435Y-59529D01*
X54558Y-59931D01*
X54703Y-60316D01*
X54870Y-60684D01*
X55059Y-61034D01*
X55268Y-61363D01*
X55497Y-61671D01*
X55746Y-61959D01*
X56016Y-62225D01*
X56306Y-62471D01*
X56616Y-62696D01*
X56946Y-62900D01*
X57294Y-63082D01*
X57659Y-63239D01*
X58038Y-63372D01*
X58434Y-63481D01*
X58845Y-63566D01*
X59272Y-63627D01*
X59715Y-63663D01*
X60174Y-63675D01*
X60622Y-63662D01*
G37*
G36*
X51605Y-51159D02*
X49932Y-51159D01*
X49932Y-63500D01*
X51605Y-63500D01*
X51605Y-51159D01*
G37*
G36*
X290517Y142673D02*
X290902Y142709D01*
X291297Y142769D01*
X291699Y142853D01*
X291699Y144027D01*
X291185Y143941D01*
X290936Y143920D01*
X290692Y143913D01*
X290474Y143921D01*
X290265Y143944D01*
X290066Y143982D01*
X289877Y144036D01*
X289697Y144105D01*
X289527Y144189D01*
X289367Y144288D01*
X289216Y144403D01*
X289074Y144536D01*
X288939Y144687D01*
X288811Y144858D01*
X288690Y145047D01*
X288468Y145484D01*
X288275Y145997D01*
X288843Y146096D01*
X289380Y146237D01*
X289885Y146421D01*
X290357Y146648D01*
X290798Y146918D01*
X291206Y147231D01*
X291583Y147587D01*
X291927Y147986D01*
X292235Y148421D01*
X292502Y148884D01*
X292728Y149377D01*
X292912Y149899D01*
X293056Y150450D01*
X293159Y151030D01*
X293220Y151639D01*
X293241Y152277D01*
X293229Y152755D01*
X293195Y153217D01*
X293138Y153663D01*
X293058Y154093D01*
X292955Y154506D01*
X292830Y154903D01*
X292681Y155284D01*
X292510Y155649D01*
X292317Y155996D01*
X292103Y156321D01*
X291869Y156625D01*
X291615Y156907D01*
X291341Y157169D01*
X291046Y157409D01*
X290730Y157628D01*
X290394Y157826D01*
X290041Y158001D01*
X289671Y158153D01*
X289286Y158282D01*
X288886Y158388D01*
X288470Y158469D01*
X288038Y158528D01*
X287590Y158563D01*
X287127Y158575D01*
X286771Y158568D01*
X286425Y158549D01*
X286088Y158516D01*
X285762Y158470D01*
X285445Y158412D01*
X285138Y158340D01*
X284841Y158255D01*
X284555Y158158D01*
X284278Y158047D01*
X284011Y157923D01*
X283754Y157786D01*
X283506Y157636D01*
X283269Y157473D01*
X283042Y157297D01*
X282617Y156906D01*
X282237Y156469D01*
X281908Y155991D01*
X281762Y155737D01*
X281629Y155473D01*
X281509Y155199D01*
X281402Y154915D01*
X281307Y154620D01*
X281224Y154316D01*
X281155Y154001D01*
X281098Y153677D01*
X281053Y153342D01*
X281022Y152997D01*
X281003Y152642D01*
X280996Y152277D01*
X281007Y151818D01*
X281038Y151373D01*
X281089Y150942D01*
X281162Y150525D01*
X281255Y150122D01*
X281368Y149733D01*
X281503Y149358D01*
X281658Y148997D01*
X281832Y148653D01*
X282026Y148329D01*
X282237Y148024D01*
X282468Y147738D01*
X282717Y147472D01*
X282985Y147225D01*
X283271Y146998D01*
X283576Y146790D01*
X283898Y146603D01*
X284234Y146438D01*
X284586Y146295D01*
X284952Y146174D01*
X285333Y146075D01*
X285730Y145998D01*
X286141Y145943D01*
X286567Y145910D01*
X286708Y145488D01*
X286858Y145097D01*
X287018Y144737D01*
X287188Y144409D01*
X287367Y144112D01*
X287556Y143846D01*
X287755Y143612D01*
X287964Y143409D01*
X288185Y143234D01*
X288420Y143082D01*
X288670Y142953D01*
X288935Y142848D01*
X289214Y142766D01*
X289508Y142707D01*
X289817Y142672D01*
X290140Y142660D01*
X290517Y142673D01*
G37*
%LPC*%
G36*
X286605Y147254D02*
X286129Y147318D01*
X285681Y147424D01*
X285261Y147573D01*
X284869Y147764D01*
X284506Y147999D01*
X284171Y148275D01*
X283865Y148594D01*
X283591Y148950D01*
X283353Y149335D01*
X283152Y149751D01*
X282988Y150196D01*
X282860Y150671D01*
X282769Y151177D01*
X282714Y151712D01*
X282696Y152277D01*
X282714Y152846D01*
X282768Y153381D01*
X282858Y153885D01*
X282985Y154355D01*
X283147Y154793D01*
X283346Y155199D01*
X283581Y155572D01*
X283852Y155912D01*
X284156Y156216D01*
X284490Y156479D01*
X284854Y156702D01*
X285249Y156884D01*
X285673Y157026D01*
X286128Y157127D01*
X286613Y157188D01*
X287127Y157208D01*
X287638Y157188D01*
X288119Y157126D01*
X288570Y157024D01*
X288992Y156880D01*
X289384Y156695D01*
X289746Y156469D01*
X290078Y156203D01*
X290381Y155895D01*
X290651Y155551D01*
X290885Y155176D01*
X291083Y154770D01*
X291245Y154333D01*
X291371Y153866D01*
X291461Y153367D01*
X291515Y152838D01*
X291533Y152277D01*
X291515Y151692D01*
X291462Y151141D01*
X291372Y150624D01*
X291247Y150141D01*
X291087Y149693D01*
X290890Y149278D01*
X290658Y148897D01*
X290390Y148551D01*
X290089Y148242D01*
X289756Y147974D01*
X289393Y147747D01*
X288998Y147562D01*
X288573Y147418D01*
X288116Y147315D01*
X287629Y147253D01*
X287110Y147232D01*
X286605Y147254D01*
G37*
%LPD*%
G36*
X303185Y147390D02*
X300180Y147390D01*
X300180Y158391D01*
X298726Y158391D01*
X295810Y156385D01*
X295810Y154896D01*
X298595Y156884D01*
X298595Y147390D01*
X295451Y147390D01*
X295451Y146050D01*
X303185Y146050D01*
X303185Y147390D01*
G37*
G36*
X163517Y142673D02*
X163902Y142709D01*
X164297Y142769D01*
X164699Y142853D01*
X164699Y144027D01*
X164185Y143941D01*
X163936Y143920D01*
X163692Y143913D01*
X163474Y143921D01*
X163265Y143944D01*
X163066Y143982D01*
X162877Y144036D01*
X162697Y144105D01*
X162527Y144189D01*
X162367Y144288D01*
X162216Y144403D01*
X162074Y144536D01*
X161939Y144687D01*
X161811Y144858D01*
X161690Y145047D01*
X161468Y145484D01*
X161275Y145997D01*
X161843Y146096D01*
X162380Y146237D01*
X162885Y146421D01*
X163357Y146648D01*
X163798Y146918D01*
X164206Y147231D01*
X164583Y147587D01*
X164927Y147986D01*
X165235Y148421D01*
X165502Y148884D01*
X165728Y149377D01*
X165912Y149899D01*
X166056Y150450D01*
X166159Y151030D01*
X166220Y151639D01*
X166241Y152277D01*
X166229Y152755D01*
X166195Y153217D01*
X166138Y153663D01*
X166058Y154093D01*
X165955Y154506D01*
X165830Y154903D01*
X165681Y155284D01*
X165510Y155649D01*
X165317Y155996D01*
X165103Y156321D01*
X164869Y156625D01*
X164615Y156907D01*
X164341Y157169D01*
X164046Y157409D01*
X163730Y157628D01*
X163394Y157826D01*
X163041Y158001D01*
X162671Y158153D01*
X162286Y158282D01*
X161886Y158388D01*
X161470Y158469D01*
X161038Y158528D01*
X160590Y158563D01*
X160127Y158575D01*
X159771Y158568D01*
X159425Y158549D01*
X159088Y158516D01*
X158762Y158470D01*
X158445Y158412D01*
X158138Y158340D01*
X157841Y158255D01*
X157555Y158158D01*
X157278Y158047D01*
X157011Y157923D01*
X156754Y157786D01*
X156506Y157636D01*
X156269Y157473D01*
X156042Y157297D01*
X155617Y156906D01*
X155237Y156469D01*
X154908Y155991D01*
X154762Y155737D01*
X154629Y155473D01*
X154509Y155199D01*
X154402Y154915D01*
X154307Y154620D01*
X154224Y154316D01*
X154155Y154001D01*
X154098Y153677D01*
X154053Y153342D01*
X154022Y152997D01*
X154003Y152642D01*
X153996Y152277D01*
X154007Y151818D01*
X154038Y151373D01*
X154089Y150942D01*
X154162Y150525D01*
X154255Y150122D01*
X154368Y149733D01*
X154503Y149358D01*
X154658Y148997D01*
X154832Y148653D01*
X155026Y148329D01*
X155237Y148024D01*
X155468Y147738D01*
X155717Y147472D01*
X155985Y147225D01*
X156271Y146998D01*
X156576Y146790D01*
X156898Y146603D01*
X157234Y146438D01*
X157586Y146295D01*
X157952Y146174D01*
X158333Y146075D01*
X158730Y145998D01*
X159141Y145943D01*
X159567Y145910D01*
X159708Y145488D01*
X159858Y145097D01*
X160018Y144737D01*
X160188Y144409D01*
X160367Y144112D01*
X160556Y143846D01*
X160755Y143612D01*
X160964Y143409D01*
X161185Y143234D01*
X161420Y143082D01*
X161670Y142953D01*
X161935Y142848D01*
X162214Y142766D01*
X162508Y142707D01*
X162817Y142672D01*
X163140Y142660D01*
X163517Y142673D01*
G37*
%LPC*%
G36*
X159605Y147254D02*
X159129Y147318D01*
X158681Y147424D01*
X158261Y147573D01*
X157869Y147764D01*
X157506Y147999D01*
X157171Y148275D01*
X156865Y148594D01*
X156591Y148950D01*
X156353Y149335D01*
X156152Y149751D01*
X155988Y150196D01*
X155860Y150671D01*
X155769Y151177D01*
X155714Y151712D01*
X155696Y152277D01*
X155714Y152846D01*
X155768Y153381D01*
X155858Y153885D01*
X155985Y154355D01*
X156147Y154793D01*
X156346Y155199D01*
X156581Y155572D01*
X156852Y155912D01*
X157156Y156216D01*
X157490Y156479D01*
X157854Y156702D01*
X158249Y156884D01*
X158673Y157026D01*
X159128Y157127D01*
X159613Y157188D01*
X160127Y157208D01*
X160638Y157188D01*
X161119Y157126D01*
X161570Y157024D01*
X161992Y156880D01*
X162384Y156695D01*
X162746Y156469D01*
X163078Y156203D01*
X163381Y155895D01*
X163651Y155551D01*
X163885Y155176D01*
X164083Y154770D01*
X164245Y154333D01*
X164371Y153866D01*
X164461Y153367D01*
X164515Y152838D01*
X164533Y152277D01*
X164515Y151692D01*
X164462Y151141D01*
X164372Y150624D01*
X164247Y150141D01*
X164087Y149693D01*
X163890Y149278D01*
X163658Y148897D01*
X163390Y148551D01*
X163089Y148242D01*
X162756Y147974D01*
X162393Y147747D01*
X161998Y147562D01*
X161573Y147418D01*
X161116Y147315D01*
X160629Y147253D01*
X160110Y147232D01*
X159605Y147254D01*
G37*
%LPD*%
G36*
X176158Y147390D02*
X169721Y147390D01*
X169873Y147700D01*
X170067Y148015D01*
X170302Y148337D01*
X170579Y148664D01*
X170903Y149005D01*
X171278Y149366D01*
X171704Y149747D01*
X172182Y150149D01*
X173023Y150845D01*
X173717Y151443D01*
X174263Y151944D01*
X174661Y152347D01*
X174965Y152702D01*
X175229Y153057D01*
X175453Y153412D01*
X175637Y153766D01*
X175781Y154122D01*
X175883Y154478D01*
X175945Y154835D01*
X175966Y155194D01*
X175950Y155587D01*
X175903Y155958D01*
X175825Y156305D01*
X175715Y156629D01*
X175574Y156930D01*
X175401Y157208D01*
X175198Y157463D01*
X174963Y157694D01*
X174698Y157901D01*
X174407Y158080D01*
X174089Y158231D01*
X173744Y158355D01*
X173372Y158451D01*
X172973Y158520D01*
X172547Y158561D01*
X172094Y158575D01*
X171679Y158561D01*
X171283Y158520D01*
X170907Y158452D01*
X170549Y158356D01*
X170212Y158233D01*
X169893Y158082D01*
X169593Y157904D01*
X169313Y157699D01*
X169057Y157470D01*
X168829Y157223D01*
X168630Y156957D01*
X168458Y156672D01*
X168315Y156368D01*
X168201Y156045D01*
X168115Y155703D01*
X168057Y155343D01*
X169668Y155194D01*
X169705Y155434D01*
X169759Y155661D01*
X169829Y155874D01*
X169917Y156073D01*
X170021Y156258D01*
X170142Y156430D01*
X170280Y156587D01*
X170435Y156731D01*
X170603Y156859D01*
X170783Y156971D01*
X170974Y157065D01*
X171176Y157142D01*
X171389Y157201D01*
X171613Y157244D01*
X171848Y157270D01*
X172094Y157278D01*
X172352Y157270D01*
X172595Y157243D01*
X172824Y157200D01*
X173038Y157138D01*
X173238Y157059D01*
X173423Y156963D01*
X173593Y156849D01*
X173750Y156718D01*
X173889Y156571D01*
X174010Y156409D01*
X174113Y156233D01*
X174196Y156043D01*
X174261Y155839D01*
X174308Y155621D01*
X174336Y155388D01*
X174345Y155141D01*
X174324Y154775D01*
X174259Y154428D01*
X174151Y154100D01*
X173999Y153793D01*
X173813Y153498D01*
X173600Y153210D01*
X173360Y152929D01*
X173093Y152654D01*
X172498Y152111D01*
X171836Y151568D01*
X171136Y151002D01*
X170430Y150390D01*
X170080Y150063D01*
X169737Y149718D01*
X169403Y149354D01*
X169077Y148971D01*
X168767Y148564D01*
X168482Y148127D01*
X168222Y147660D01*
X167987Y147162D01*
X167987Y146050D01*
X176158Y146050D01*
X176158Y147390D01*
G37*
G36*
X36517Y142673D02*
X36902Y142709D01*
X37297Y142769D01*
X37699Y142853D01*
X37699Y144027D01*
X37185Y143941D01*
X36936Y143920D01*
X36692Y143913D01*
X36474Y143921D01*
X36265Y143944D01*
X36066Y143982D01*
X35877Y144036D01*
X35697Y144105D01*
X35527Y144189D01*
X35367Y144288D01*
X35216Y144403D01*
X35074Y144536D01*
X34939Y144687D01*
X34811Y144858D01*
X34690Y145047D01*
X34468Y145484D01*
X34275Y145997D01*
X34843Y146096D01*
X35380Y146237D01*
X35885Y146421D01*
X36357Y146648D01*
X36798Y146918D01*
X37206Y147231D01*
X37583Y147587D01*
X37927Y147986D01*
X38235Y148421D01*
X38502Y148884D01*
X38728Y149377D01*
X38912Y149899D01*
X39056Y150450D01*
X39159Y151030D01*
X39220Y151639D01*
X39241Y152277D01*
X39229Y152755D01*
X39195Y153217D01*
X39138Y153663D01*
X39058Y154093D01*
X38955Y154506D01*
X38830Y154903D01*
X38681Y155284D01*
X38510Y155649D01*
X38317Y155996D01*
X38103Y156321D01*
X37869Y156625D01*
X37615Y156907D01*
X37341Y157169D01*
X37046Y157409D01*
X36730Y157628D01*
X36394Y157826D01*
X36041Y158001D01*
X35671Y158153D01*
X35286Y158282D01*
X34886Y158388D01*
X34470Y158469D01*
X34038Y158528D01*
X33590Y158563D01*
X33127Y158575D01*
X32771Y158568D01*
X32425Y158549D01*
X32088Y158516D01*
X31762Y158470D01*
X31445Y158412D01*
X31138Y158340D01*
X30841Y158255D01*
X30555Y158158D01*
X30278Y158047D01*
X30011Y157923D01*
X29754Y157786D01*
X29506Y157636D01*
X29269Y157473D01*
X29042Y157297D01*
X28617Y156906D01*
X28237Y156469D01*
X27908Y155991D01*
X27762Y155737D01*
X27629Y155473D01*
X27509Y155199D01*
X27402Y154915D01*
X27307Y154620D01*
X27224Y154316D01*
X27155Y154001D01*
X27098Y153677D01*
X27053Y153342D01*
X27022Y152997D01*
X27003Y152642D01*
X26996Y152277D01*
X27007Y151818D01*
X27038Y151373D01*
X27089Y150942D01*
X27162Y150525D01*
X27255Y150122D01*
X27368Y149733D01*
X27503Y149358D01*
X27658Y148997D01*
X27832Y148653D01*
X28026Y148329D01*
X28237Y148024D01*
X28468Y147738D01*
X28717Y147472D01*
X28985Y147225D01*
X29271Y146998D01*
X29576Y146790D01*
X29898Y146603D01*
X30234Y146438D01*
X30586Y146295D01*
X30952Y146174D01*
X31333Y146075D01*
X31730Y145998D01*
X32141Y145943D01*
X32567Y145910D01*
X32708Y145488D01*
X32858Y145097D01*
X33018Y144737D01*
X33188Y144409D01*
X33367Y144112D01*
X33556Y143846D01*
X33755Y143612D01*
X33964Y143409D01*
X34185Y143234D01*
X34420Y143082D01*
X34670Y142953D01*
X34935Y142848D01*
X35214Y142766D01*
X35508Y142707D01*
X35817Y142672D01*
X36140Y142660D01*
X36517Y142673D01*
G37*
%LPC*%
G36*
X32605Y147254D02*
X32129Y147318D01*
X31681Y147424D01*
X31261Y147573D01*
X30869Y147764D01*
X30506Y147999D01*
X30171Y148275D01*
X29865Y148594D01*
X29591Y148950D01*
X29353Y149335D01*
X29152Y149751D01*
X28988Y150196D01*
X28860Y150671D01*
X28769Y151177D01*
X28714Y151712D01*
X28696Y152277D01*
X28714Y152846D01*
X28768Y153381D01*
X28858Y153885D01*
X28985Y154355D01*
X29147Y154793D01*
X29346Y155199D01*
X29581Y155572D01*
X29852Y155912D01*
X30156Y156216D01*
X30490Y156479D01*
X30854Y156702D01*
X31249Y156884D01*
X31673Y157026D01*
X32128Y157127D01*
X32613Y157188D01*
X33127Y157208D01*
X33638Y157188D01*
X34119Y157126D01*
X34570Y157024D01*
X34992Y156880D01*
X35384Y156695D01*
X35746Y156469D01*
X36078Y156203D01*
X36381Y155895D01*
X36651Y155551D01*
X36885Y155176D01*
X37083Y154770D01*
X37245Y154333D01*
X37371Y153866D01*
X37461Y153367D01*
X37515Y152838D01*
X37533Y152277D01*
X37515Y151692D01*
X37462Y151141D01*
X37372Y150624D01*
X37247Y150141D01*
X37087Y149693D01*
X36890Y149278D01*
X36658Y148897D01*
X36390Y148551D01*
X36089Y148242D01*
X35756Y147974D01*
X35393Y147747D01*
X34998Y147562D01*
X34573Y147418D01*
X34116Y147315D01*
X33629Y147253D01*
X33110Y147232D01*
X32605Y147254D01*
G37*
%LPD*%
G36*
X45575Y145890D02*
X46035Y145933D01*
X46466Y146007D01*
X46868Y146109D01*
X47241Y146241D01*
X47585Y146402D01*
X47900Y146592D01*
X48186Y146812D01*
X48441Y147058D01*
X48661Y147329D01*
X48848Y147623D01*
X49001Y147942D01*
X49119Y148285D01*
X49204Y148651D01*
X49255Y149042D01*
X49272Y149457D01*
X49260Y149746D01*
X49224Y150023D01*
X49164Y150287D01*
X49079Y150539D01*
X48971Y150778D01*
X48839Y151004D01*
X48682Y151218D01*
X48501Y151419D01*
X48299Y151604D01*
X48078Y151769D01*
X47837Y151915D01*
X47577Y152041D01*
X47298Y152147D01*
X47000Y152234D01*
X46683Y152300D01*
X46347Y152347D01*
X46347Y152382D01*
X46653Y152456D01*
X46940Y152544D01*
X47208Y152647D01*
X47458Y152765D01*
X47689Y152897D01*
X47901Y153045D01*
X48095Y153208D01*
X48269Y153385D01*
X48424Y153577D01*
X48559Y153783D01*
X48672Y154003D01*
X48765Y154236D01*
X48838Y154483D01*
X48889Y154744D01*
X48920Y155019D01*
X48931Y155308D01*
X48914Y155683D01*
X48866Y156036D01*
X48786Y156368D01*
X48673Y156680D01*
X48529Y156970D01*
X48352Y157238D01*
X48143Y157486D01*
X47901Y157712D01*
X47631Y157914D01*
X47335Y158089D01*
X47013Y158238D01*
X46665Y158359D01*
X46292Y158453D01*
X45892Y158521D01*
X45467Y158561D01*
X45015Y158575D01*
X44600Y158561D01*
X44204Y158522D01*
X43828Y158455D01*
X43471Y158362D01*
X43133Y158243D01*
X42814Y158097D01*
X42515Y157924D01*
X42235Y157725D01*
X41978Y157502D01*
X41750Y157259D01*
X41551Y156994D01*
X41380Y156709D01*
X41237Y156403D01*
X41122Y156076D01*
X41036Y155729D01*
X40978Y155360D01*
X42563Y155238D01*
X42598Y155474D01*
X42649Y155696D01*
X42718Y155905D01*
X42803Y156100D01*
X42905Y156282D01*
X43024Y156450D01*
X43159Y156604D01*
X43312Y156744D01*
X43479Y156869D01*
X43659Y156978D01*
X43851Y157070D01*
X44055Y157145D01*
X44272Y157203D01*
X44502Y157245D01*
X44744Y157270D01*
X44998Y157278D01*
X45276Y157269D01*
X45536Y157243D01*
X45779Y157198D01*
X46004Y157135D01*
X46211Y157054D01*
X46401Y156956D01*
X46573Y156839D01*
X46728Y156705D01*
X46864Y156555D01*
X46983Y156392D01*
X47083Y156216D01*
X47165Y156027D01*
X47228Y155825D01*
X47274Y155610D01*
X47301Y155382D01*
X47310Y155141D01*
X47299Y154899D01*
X47266Y154669D01*
X47210Y154453D01*
X47132Y154251D01*
X47031Y154063D01*
X46909Y153888D01*
X46764Y153726D01*
X46596Y153578D01*
X46409Y153446D01*
X46203Y153331D01*
X45979Y153234D01*
X45737Y153154D01*
X45477Y153092D01*
X45198Y153048D01*
X44901Y153022D01*
X44586Y153013D01*
X43728Y153013D01*
X43728Y151647D01*
X44621Y151647D01*
X44976Y151638D01*
X45310Y151611D01*
X45622Y151567D01*
X45912Y151505D01*
X46181Y151426D01*
X46429Y151329D01*
X46655Y151214D01*
X46859Y151082D01*
X47041Y150934D01*
X47198Y150772D01*
X47331Y150596D01*
X47440Y150406D01*
X47525Y150203D01*
X47586Y149986D01*
X47622Y149755D01*
X47634Y149510D01*
X47624Y149229D01*
X47592Y148967D01*
X47539Y148723D01*
X47465Y148496D01*
X47369Y148287D01*
X47252Y148096D01*
X47115Y147922D01*
X46955Y147767D01*
X46778Y147629D01*
X46584Y147510D01*
X46374Y147409D01*
X46149Y147327D01*
X45907Y147262D01*
X45649Y147217D01*
X45375Y147189D01*
X45086Y147180D01*
X44797Y147188D01*
X44524Y147214D01*
X44268Y147257D01*
X44027Y147317D01*
X43803Y147394D01*
X43595Y147488D01*
X43403Y147599D01*
X43227Y147727D01*
X43066Y147873D01*
X42923Y148035D01*
X42795Y148215D01*
X42683Y148412D01*
X42587Y148625D01*
X42508Y148856D01*
X42444Y149104D01*
X42397Y149369D01*
X40768Y149221D01*
X40834Y148819D01*
X40929Y148444D01*
X41053Y148093D01*
X41204Y147768D01*
X41384Y147468D01*
X41593Y147193D01*
X41829Y146944D01*
X42094Y146720D01*
X42385Y146522D01*
X42700Y146350D01*
X43039Y146205D01*
X43401Y146086D01*
X43786Y145994D01*
X44196Y145928D01*
X44629Y145888D01*
X45086Y145875D01*
X45575Y145890D01*
G37*
G36*
X316952Y72266D02*
X311828Y72266D01*
X311828Y76111D01*
X316952Y79316D01*
X316952Y81243D01*
X313899Y79231D01*
X311635Y77740D01*
X311563Y78083D01*
X311470Y78407D01*
X311354Y78712D01*
X311217Y78998D01*
X311124Y79154D01*
X311059Y79265D01*
X310878Y79513D01*
X310676Y79741D01*
X310453Y79951D01*
X310212Y80139D01*
X309957Y80302D01*
X309689Y80440D01*
X309406Y80552D01*
X309110Y80640D01*
X308801Y80703D01*
X308478Y80740D01*
X308141Y80753D01*
X307736Y80735D01*
X307354Y80682D01*
X306995Y80593D01*
X306659Y80469D01*
X306346Y80310D01*
X306056Y80115D01*
X305788Y79884D01*
X305544Y79618D01*
X305325Y79320D01*
X305136Y78992D01*
X304975Y78634D01*
X304844Y78247D01*
X304742Y77829D01*
X304669Y77383D01*
X304626Y76906D01*
X304611Y76400D01*
X304611Y70593D01*
X316952Y70593D01*
X316952Y72266D01*
G37*
%LPC*%
G36*
X305951Y72266D02*
X305951Y76233D01*
X305960Y76567D01*
X305986Y76881D01*
X306031Y77174D01*
X306092Y77447D01*
X306172Y77701D01*
X306269Y77934D01*
X306384Y78147D01*
X306516Y78340D01*
X306665Y78511D01*
X306831Y78660D01*
X307012Y78785D01*
X307209Y78888D01*
X307422Y78968D01*
X307652Y79025D01*
X307897Y79060D01*
X308158Y79071D01*
X308429Y79060D01*
X308684Y79026D01*
X308923Y78969D01*
X309147Y78890D01*
X309355Y78789D01*
X309548Y78665D01*
X309726Y78518D01*
X309888Y78348D01*
X310033Y78158D01*
X310158Y77950D01*
X310264Y77722D01*
X310351Y77476D01*
X310419Y77211D01*
X310467Y76927D01*
X310496Y76625D01*
X310506Y76303D01*
X310506Y72266D01*
X305951Y72266D01*
G37*
%LPD*%
G36*
X316952Y91190D02*
X315612Y91190D01*
X315612Y88186D01*
X304611Y88186D01*
X304611Y86732D01*
X306617Y83815D01*
X308106Y83815D01*
X306118Y86601D01*
X315612Y86601D01*
X315612Y83456D01*
X316952Y83456D01*
X316952Y91190D01*
G37*
G36*
X43720Y96102D02*
X44428Y96152D01*
X45089Y96235D01*
X45703Y96352D01*
X46271Y96502D01*
X46793Y96686D01*
X47268Y96903D01*
X47696Y97154D01*
X48076Y97437D01*
X48405Y97754D01*
X48683Y98104D01*
X48911Y98487D01*
X49088Y98903D01*
X49215Y99353D01*
X49259Y99590D01*
X49291Y99835D01*
X49310Y100089D01*
X49316Y100350D01*
X49310Y100612D01*
X49291Y100866D01*
X49259Y101112D01*
X49214Y101350D01*
X49087Y101801D01*
X48909Y102219D01*
X48680Y102605D01*
X48400Y102959D01*
X48069Y103280D01*
X47687Y103569D01*
X47257Y103825D01*
X46781Y104046D01*
X46260Y104234D01*
X45692Y104387D01*
X45079Y104506D01*
X44421Y104592D01*
X43716Y104643D01*
X42966Y104660D01*
X42204Y104643D01*
X41490Y104595D01*
X40825Y104514D01*
X40207Y104400D01*
X39638Y104254D01*
X39117Y104076D01*
X38644Y103865D01*
X38219Y103622D01*
X37843Y103344D01*
X37518Y103031D01*
X37242Y102683D01*
X37017Y102298D01*
X36842Y101878D01*
X36773Y101654D01*
X36716Y101422D01*
X36673Y101181D01*
X36641Y100930D01*
X36623Y100671D01*
X36616Y100403D01*
X36623Y100127D01*
X36641Y99861D01*
X36672Y99605D01*
X36715Y99357D01*
X36771Y99119D01*
X36839Y98891D01*
X37013Y98462D01*
X37236Y98071D01*
X37508Y97717D01*
X37830Y97401D01*
X38202Y97123D01*
X38623Y96880D01*
X39094Y96669D01*
X39615Y96490D01*
X40185Y96345D01*
X40806Y96231D01*
X41476Y96150D01*
X42196Y96101D01*
X42966Y96085D01*
X43720Y96102D01*
G37*
%LPC*%
G36*
X42313Y97689D02*
X41708Y97719D01*
X41151Y97768D01*
X40641Y97838D01*
X40179Y97927D01*
X39764Y98036D01*
X39397Y98165D01*
X39077Y98314D01*
X38800Y98486D01*
X38560Y98683D01*
X38357Y98906D01*
X38191Y99154D01*
X38061Y99428D01*
X37969Y99727D01*
X37914Y100052D01*
X37895Y100403D01*
X37914Y100745D01*
X37970Y101062D01*
X38064Y101354D01*
X38195Y101622D01*
X38364Y101864D01*
X38570Y102081D01*
X38814Y102272D01*
X39095Y102439D01*
X39418Y102584D01*
X39787Y102710D01*
X40202Y102816D01*
X40663Y102902D01*
X41170Y102970D01*
X41723Y103018D01*
X42321Y103047D01*
X42966Y103057D01*
X43589Y103047D01*
X44171Y103016D01*
X44710Y102966D01*
X45208Y102895D01*
X45665Y102804D01*
X46080Y102692D01*
X46453Y102561D01*
X46785Y102409D01*
X47076Y102235D01*
X47329Y102038D01*
X47543Y101818D01*
X47718Y101574D01*
X47854Y101308D01*
X47951Y101018D01*
X48009Y100705D01*
X48029Y100368D01*
X48010Y100029D01*
X47953Y99715D01*
X47857Y99424D01*
X47724Y99156D01*
X47553Y98912D01*
X47344Y98692D01*
X47097Y98496D01*
X46811Y98323D01*
X46485Y98172D01*
X46114Y98041D01*
X45700Y97931D01*
X45241Y97840D01*
X44739Y97770D01*
X44192Y97719D01*
X43601Y97689D01*
X42966Y97679D01*
X42313Y97689D01*
G37*
%LPD*%
G36*
X49141Y75591D02*
X44017Y75591D01*
X44017Y79436D01*
X49141Y82642D01*
X49141Y84569D01*
X46088Y82557D01*
X43825Y81065D01*
X43752Y81408D01*
X43659Y81732D01*
X43543Y82037D01*
X43406Y82323D01*
X43314Y82479D01*
X43248Y82590D01*
X43068Y82838D01*
X42866Y83067D01*
X42642Y83277D01*
X42401Y83465D01*
X42146Y83627D01*
X41878Y83765D01*
X41596Y83878D01*
X41300Y83966D01*
X40990Y84028D01*
X40667Y84066D01*
X40330Y84078D01*
X39925Y84061D01*
X39544Y84007D01*
X39185Y83919D01*
X38849Y83795D01*
X38535Y83635D01*
X38245Y83440D01*
X37978Y83210D01*
X37733Y82944D01*
X37514Y82646D01*
X37325Y82317D01*
X37165Y81960D01*
X37033Y81572D01*
X36931Y81155D01*
X36859Y80708D01*
X36815Y80232D01*
X36800Y79725D01*
X36800Y73918D01*
X49141Y73918D01*
X49141Y75591D01*
G37*
%LPC*%
G36*
X38140Y75591D02*
X38140Y79559D01*
X38149Y79893D01*
X38176Y80206D01*
X38220Y80500D01*
X38282Y80773D01*
X38361Y81026D01*
X38458Y81259D01*
X38573Y81472D01*
X38705Y81665D01*
X38854Y81837D01*
X39020Y81985D01*
X39201Y82111D01*
X39398Y82214D01*
X39612Y82294D01*
X39841Y82351D01*
X40086Y82385D01*
X40347Y82397D01*
X40618Y82385D01*
X40873Y82351D01*
X41112Y82295D01*
X41336Y82216D01*
X41545Y82114D01*
X41738Y81990D01*
X41915Y81843D01*
X42077Y81674D01*
X42222Y81484D01*
X42347Y81275D01*
X42454Y81048D01*
X42540Y80801D01*
X42608Y80536D01*
X42656Y80253D01*
X42685Y79950D01*
X42695Y79629D01*
X42695Y75591D01*
X38140Y75591D01*
G37*
%LPD*%
G36*
X49141Y94516D02*
X47801Y94516D01*
X47801Y91512D01*
X36800Y91512D01*
X36800Y90058D01*
X38806Y87141D01*
X40295Y87141D01*
X38307Y89926D01*
X47801Y89926D01*
X47801Y86782D01*
X49141Y86782D01*
X49141Y94516D01*
G37*
G36*
X-14359Y76263D02*
X-19483Y76263D01*
X-19483Y80108D01*
X-14359Y83314D01*
X-14359Y85241D01*
X-17412Y83229D01*
X-19675Y81737D01*
X-19748Y82080D01*
X-19841Y82404D01*
X-19957Y82709D01*
X-20094Y82995D01*
X-20186Y83151D01*
X-20252Y83262D01*
X-20433Y83510D01*
X-20634Y83739D01*
X-20858Y83949D01*
X-21099Y84137D01*
X-21354Y84299D01*
X-21622Y84437D01*
X-21904Y84550D01*
X-22200Y84637D01*
X-22510Y84700D01*
X-22833Y84738D01*
X-23170Y84750D01*
X-23575Y84732D01*
X-23956Y84679D01*
X-24315Y84591D01*
X-24651Y84467D01*
X-24965Y84307D01*
X-25255Y84112D01*
X-25522Y83882D01*
X-25767Y83616D01*
X-25986Y83317D01*
X-26175Y82989D01*
X-26335Y82632D01*
X-26467Y82244D01*
X-26569Y81827D01*
X-26641Y81380D01*
X-26685Y80903D01*
X-26700Y80397D01*
X-26700Y74590D01*
X-14359Y74590D01*
X-14359Y76263D01*
G37*
%LPC*%
G36*
X-25360Y76263D02*
X-25360Y80231D01*
X-25351Y80564D01*
X-25324Y80878D01*
X-25280Y81171D01*
X-25219Y81445D01*
X-25139Y81698D01*
X-25042Y81931D01*
X-24927Y82144D01*
X-24795Y82337D01*
X-24646Y82509D01*
X-24480Y82657D01*
X-24299Y82783D01*
X-24102Y82886D01*
X-23889Y82966D01*
X-23659Y83023D01*
X-23414Y83057D01*
X-23153Y83068D01*
X-22882Y83057D01*
X-22627Y83023D01*
X-22388Y82967D01*
X-22164Y82888D01*
X-21955Y82786D01*
X-21762Y82662D01*
X-21585Y82515D01*
X-21423Y82346D01*
X-21278Y82156D01*
X-21153Y81947D01*
X-21046Y81720D01*
X-20960Y81473D01*
X-20892Y81208D01*
X-20844Y80925D01*
X-20815Y80622D01*
X-20805Y80301D01*
X-20805Y76263D01*
X-25360Y76263D01*
G37*
%LPD*%
G36*
X-14359Y95188D02*
X-15699Y95188D01*
X-15699Y92183D01*
X-26700Y92183D01*
X-26700Y90730D01*
X-24694Y87813D01*
X-23205Y87813D01*
X-25193Y90598D01*
X-15699Y90598D01*
X-15699Y87454D01*
X-14359Y87454D01*
X-14359Y95188D01*
G37*
G36*
X-14359Y103813D02*
X-15699Y103813D01*
X-15699Y100808D01*
X-26700Y100808D01*
X-26700Y99355D01*
X-24694Y96438D01*
X-23205Y96438D01*
X-25193Y99223D01*
X-15699Y99223D01*
X-15699Y96079D01*
X-14359Y96079D01*
X-14359Y103813D01*
G37*
G36*
X23741Y75591D02*
X18617Y75591D01*
X18617Y79436D01*
X23741Y82642D01*
X23741Y84569D01*
X20688Y82557D01*
X18425Y81065D01*
X18352Y81408D01*
X18259Y81732D01*
X18143Y82037D01*
X18006Y82323D01*
X17914Y82479D01*
X17848Y82590D01*
X17668Y82838D01*
X17466Y83067D01*
X17242Y83277D01*
X17001Y83465D01*
X16746Y83627D01*
X16478Y83765D01*
X16196Y83878D01*
X15900Y83966D01*
X15590Y84028D01*
X15267Y84066D01*
X14930Y84078D01*
X14525Y84061D01*
X14144Y84007D01*
X13785Y83919D01*
X13449Y83795D01*
X13135Y83635D01*
X12845Y83440D01*
X12578Y83210D01*
X12333Y82944D01*
X12114Y82646D01*
X11925Y82317D01*
X11765Y81960D01*
X11633Y81572D01*
X11531Y81155D01*
X11459Y80708D01*
X11415Y80232D01*
X11400Y79725D01*
X11400Y73918D01*
X23741Y73918D01*
X23741Y75591D01*
G37*
%LPC*%
G36*
X12740Y75591D02*
X12740Y79559D01*
X12749Y79893D01*
X12776Y80206D01*
X12820Y80500D01*
X12882Y80773D01*
X12961Y81026D01*
X13058Y81259D01*
X13173Y81472D01*
X13305Y81665D01*
X13454Y81837D01*
X13620Y81985D01*
X13801Y82111D01*
X13998Y82214D01*
X14212Y82294D01*
X14441Y82351D01*
X14686Y82385D01*
X14947Y82397D01*
X15218Y82385D01*
X15473Y82351D01*
X15712Y82295D01*
X15936Y82216D01*
X16145Y82114D01*
X16338Y81990D01*
X16515Y81843D01*
X16677Y81674D01*
X16822Y81484D01*
X16947Y81275D01*
X17054Y81048D01*
X17140Y80801D01*
X17208Y80536D01*
X17256Y80253D01*
X17285Y79950D01*
X17295Y79629D01*
X17295Y75591D01*
X12740Y75591D01*
G37*
%LPD*%
G36*
X23741Y104458D02*
X22401Y104458D01*
X22401Y98021D01*
X22091Y98173D01*
X21776Y98367D01*
X21454Y98602D01*
X21127Y98879D01*
X20786Y99203D01*
X20425Y99578D01*
X20044Y100004D01*
X19642Y100482D01*
X18946Y101323D01*
X18348Y102017D01*
X17847Y102563D01*
X17444Y102961D01*
X17089Y103265D01*
X16734Y103529D01*
X16379Y103753D01*
X16025Y103937D01*
X15669Y104081D01*
X15313Y104183D01*
X14956Y104245D01*
X14597Y104266D01*
X14204Y104250D01*
X13833Y104203D01*
X13486Y104125D01*
X13162Y104015D01*
X12861Y103874D01*
X12583Y103701D01*
X12328Y103498D01*
X12097Y103263D01*
X11890Y102998D01*
X11711Y102707D01*
X11560Y102389D01*
X11436Y102044D01*
X11340Y101672D01*
X11271Y101273D01*
X11230Y100847D01*
X11216Y100394D01*
X11230Y99979D01*
X11271Y99583D01*
X11339Y99207D01*
X11435Y98849D01*
X11558Y98512D01*
X11709Y98193D01*
X11887Y97893D01*
X12092Y97613D01*
X12321Y97357D01*
X12568Y97129D01*
X12834Y96930D01*
X13119Y96758D01*
X13423Y96615D01*
X13746Y96501D01*
X14088Y96415D01*
X14448Y96357D01*
X14597Y97968D01*
X14357Y98005D01*
X14130Y98059D01*
X13917Y98129D01*
X13718Y98217D01*
X13533Y98321D01*
X13361Y98442D01*
X13204Y98580D01*
X13060Y98735D01*
X12932Y98903D01*
X12820Y99083D01*
X12726Y99274D01*
X12649Y99476D01*
X12590Y99689D01*
X12547Y99913D01*
X12521Y100148D01*
X12513Y100394D01*
X12521Y100652D01*
X12548Y100895D01*
X12591Y101124D01*
X12653Y101338D01*
X12732Y101538D01*
X12828Y101723D01*
X12942Y101893D01*
X13073Y102050D01*
X13220Y102189D01*
X13382Y102310D01*
X13558Y102413D01*
X13748Y102496D01*
X13952Y102561D01*
X14170Y102608D01*
X14403Y102636D01*
X14650Y102645D01*
X15016Y102624D01*
X15363Y102559D01*
X15691Y102451D01*
X15998Y102299D01*
X16293Y102113D01*
X16581Y101900D01*
X16862Y101660D01*
X17137Y101393D01*
X17680Y100798D01*
X18223Y100136D01*
X18789Y99436D01*
X19401Y98730D01*
X19728Y98380D01*
X20073Y98037D01*
X20437Y97703D01*
X20820Y97377D01*
X21227Y97067D01*
X21664Y96782D01*
X22131Y96522D01*
X22629Y96287D01*
X23741Y96287D01*
X23741Y104458D01*
G37*
G36*
X23741Y94516D02*
X22401Y94516D01*
X22401Y91512D01*
X11400Y91512D01*
X11400Y90058D01*
X13406Y87141D01*
X14895Y87141D01*
X12907Y89926D01*
X22401Y89926D01*
X22401Y86782D01*
X23741Y86782D01*
X23741Y94516D01*
G37*
G36*
X5961Y75591D02*
X837Y75591D01*
X837Y79436D01*
X5961Y82642D01*
X5961Y84569D01*
X2908Y82557D01*
X645Y81065D01*
X572Y81408D01*
X479Y81732D01*
X363Y82037D01*
X226Y82323D01*
X134Y82479D01*
X68Y82590D01*
X-113Y82838D01*
X-314Y83067D01*
X-538Y83277D01*
X-779Y83465D01*
X-1034Y83627D01*
X-1302Y83765D01*
X-1584Y83878D01*
X-1880Y83966D01*
X-2190Y84028D01*
X-2513Y84066D01*
X-2850Y84078D01*
X-3255Y84061D01*
X-3636Y84007D01*
X-3995Y83919D01*
X-4331Y83795D01*
X-4645Y83635D01*
X-4935Y83440D01*
X-5202Y83210D01*
X-5447Y82944D01*
X-5666Y82646D01*
X-5855Y82317D01*
X-6015Y81960D01*
X-6147Y81572D01*
X-6249Y81155D01*
X-6321Y80708D01*
X-6365Y80232D01*
X-6380Y79725D01*
X-6380Y73918D01*
X5961Y73918D01*
X5961Y75591D01*
G37*
%LPC*%
G36*
X-5040Y75591D02*
X-5040Y79559D01*
X-5031Y79893D01*
X-5004Y80206D01*
X-4960Y80500D01*
X-4899Y80773D01*
X-4819Y81026D01*
X-4722Y81259D01*
X-4607Y81472D01*
X-4475Y81665D01*
X-4326Y81837D01*
X-4160Y81985D01*
X-3979Y82111D01*
X-3782Y82214D01*
X-3569Y82294D01*
X-3339Y82351D01*
X-3094Y82385D01*
X-2833Y82397D01*
X-2562Y82385D01*
X-2307Y82351D01*
X-2068Y82295D01*
X-1844Y82216D01*
X-1635Y82114D01*
X-1442Y81990D01*
X-1265Y81843D01*
X-1103Y81674D01*
X-958Y81484D01*
X-833Y81275D01*
X-726Y81048D01*
X-640Y80801D01*
X-572Y80536D01*
X-524Y80253D01*
X-495Y79950D01*
X-485Y79629D01*
X-485Y75591D01*
X-5040Y75591D01*
G37*
%LPD*%
G36*
X3192Y96134D02*
X3567Y96229D01*
X3918Y96353D01*
X4243Y96504D01*
X4543Y96684D01*
X4818Y96893D01*
X5067Y97129D01*
X5291Y97394D01*
X5489Y97685D01*
X5661Y98000D01*
X5806Y98339D01*
X5925Y98701D01*
X6017Y99086D01*
X6083Y99496D01*
X6123Y99929D01*
X6136Y100386D01*
X6122Y100875D01*
X6078Y101335D01*
X6004Y101766D01*
X5902Y102168D01*
X5770Y102541D01*
X5609Y102885D01*
X5419Y103200D01*
X5199Y103486D01*
X4953Y103741D01*
X4682Y103961D01*
X4388Y104148D01*
X4069Y104301D01*
X3727Y104419D01*
X3360Y104504D01*
X2969Y104555D01*
X2554Y104572D01*
X2265Y104560D01*
X1988Y104524D01*
X1724Y104464D01*
X1472Y104379D01*
X1233Y104271D01*
X1007Y104139D01*
X793Y103982D01*
X592Y103801D01*
X407Y103599D01*
X242Y103378D01*
X96Y103137D01*
X-30Y102877D01*
X-136Y102598D01*
X-223Y102300D01*
X-289Y101983D01*
X-336Y101647D01*
X-371Y101647D01*
X-445Y101953D01*
X-533Y102240D01*
X-636Y102508D01*
X-754Y102758D01*
X-886Y102989D01*
X-1034Y103201D01*
X-1197Y103395D01*
X-1374Y103569D01*
X-1566Y103724D01*
X-1772Y103859D01*
X-1992Y103972D01*
X-2225Y104065D01*
X-2472Y104138D01*
X-2733Y104189D01*
X-3008Y104220D01*
X-3297Y104231D01*
X-3672Y104214D01*
X-4025Y104166D01*
X-4357Y104086D01*
X-4669Y103973D01*
X-4959Y103829D01*
X-5227Y103652D01*
X-5475Y103443D01*
X-5701Y103201D01*
X-5903Y102931D01*
X-6078Y102635D01*
X-6227Y102313D01*
X-6348Y101965D01*
X-6442Y101592D01*
X-6510Y101192D01*
X-6550Y100767D01*
X-6564Y100315D01*
X-6550Y99900D01*
X-6511Y99504D01*
X-6444Y99128D01*
X-6351Y98771D01*
X-6232Y98433D01*
X-6086Y98114D01*
X-5913Y97815D01*
X-5714Y97535D01*
X-5491Y97278D01*
X-5248Y97050D01*
X-4983Y96851D01*
X-4698Y96680D01*
X-4392Y96537D01*
X-4065Y96422D01*
X-3718Y96336D01*
X-3349Y96278D01*
X-3227Y97863D01*
X-3463Y97898D01*
X-3685Y97949D01*
X-3894Y98018D01*
X-4089Y98103D01*
X-4271Y98205D01*
X-4439Y98324D01*
X-4593Y98459D01*
X-4733Y98612D01*
X-4858Y98779D01*
X-4967Y98959D01*
X-5059Y99151D01*
X-5134Y99355D01*
X-5192Y99572D01*
X-5234Y99802D01*
X-5259Y100044D01*
X-5267Y100298D01*
X-5258Y100576D01*
X-5232Y100836D01*
X-5187Y101079D01*
X-5124Y101304D01*
X-5043Y101511D01*
X-4945Y101701D01*
X-4828Y101873D01*
X-4694Y102028D01*
X-4544Y102164D01*
X-4381Y102283D01*
X-4205Y102383D01*
X-4016Y102465D01*
X-3814Y102528D01*
X-3599Y102574D01*
X-3371Y102601D01*
X-3130Y102610D01*
X-2888Y102599D01*
X-2658Y102566D01*
X-2442Y102510D01*
X-2240Y102432D01*
X-2052Y102331D01*
X-1877Y102209D01*
X-1715Y102064D01*
X-1567Y101896D01*
X-1435Y101709D01*
X-1320Y101503D01*
X-1223Y101279D01*
X-1143Y101037D01*
X-1081Y100777D01*
X-1037Y100498D01*
X-1011Y100201D01*
X-1002Y99886D01*
X-1002Y99028D01*
X364Y99028D01*
X364Y99921D01*
X373Y100276D01*
X400Y100610D01*
X444Y100922D01*
X506Y101212D01*
X585Y101481D01*
X682Y101729D01*
X797Y101955D01*
X929Y102159D01*
X1077Y102341D01*
X1239Y102498D01*
X1415Y102631D01*
X1605Y102740D01*
X1808Y102825D01*
X2025Y102886D01*
X2257Y102922D01*
X2501Y102934D01*
X2782Y102924D01*
X3044Y102892D01*
X3288Y102839D01*
X3515Y102765D01*
X3724Y102669D01*
X3915Y102552D01*
X4089Y102415D01*
X4244Y102255D01*
X4382Y102078D01*
X4501Y101884D01*
X4602Y101674D01*
X4684Y101449D01*
X4749Y101207D01*
X4795Y100949D01*
X4822Y100675D01*
X4831Y100386D01*
X4823Y100097D01*
X4797Y99824D01*
X4754Y99568D01*
X4694Y99327D01*
X4617Y99103D01*
X4523Y98895D01*
X4412Y98703D01*
X4284Y98527D01*
X4138Y98366D01*
X3976Y98223D01*
X3796Y98095D01*
X3600Y97983D01*
X3386Y97887D01*
X3155Y97808D01*
X2907Y97744D01*
X2642Y97697D01*
X2790Y96068D01*
X3192Y96134D01*
G37*
G36*
X5961Y94516D02*
X4621Y94516D01*
X4621Y91512D01*
X-6380Y91512D01*
X-6380Y90058D01*
X-4374Y87141D01*
X-2885Y87141D01*
X-4873Y89926D01*
X4621Y89926D01*
X4621Y86782D01*
X5961Y86782D01*
X5961Y94516D01*
G37*
G36*
X-38568Y-236924D02*
X-43691Y-236924D01*
X-43691Y-233079D01*
X-38568Y-229874D01*
X-38568Y-227947D01*
X-41621Y-229959D01*
X-43884Y-231450D01*
X-43956Y-231107D01*
X-44050Y-230783D01*
X-44165Y-230478D01*
X-44302Y-230192D01*
X-44395Y-230036D01*
X-44461Y-229925D01*
X-44641Y-229678D01*
X-44843Y-229449D01*
X-45066Y-229239D01*
X-45307Y-229051D01*
X-45562Y-228888D01*
X-45831Y-228750D01*
X-46113Y-228638D01*
X-46409Y-228550D01*
X-46718Y-228488D01*
X-47042Y-228450D01*
X-47379Y-228437D01*
X-47783Y-228455D01*
X-48165Y-228508D01*
X-48524Y-228597D01*
X-48860Y-228721D01*
X-49173Y-228880D01*
X-49463Y-229075D01*
X-49731Y-229306D01*
X-49976Y-229572D01*
X-50194Y-229870D01*
X-50384Y-230198D01*
X-50544Y-230556D01*
X-50675Y-230943D01*
X-50777Y-231361D01*
X-50850Y-231808D01*
X-50894Y-232284D01*
X-50908Y-232790D01*
X-50908Y-238597D01*
X-38568Y-238597D01*
X-38568Y-236924D01*
G37*
%LPC*%
G36*
X-49568Y-236924D02*
X-49568Y-232957D01*
X-49559Y-232623D01*
X-49533Y-232310D01*
X-49489Y-232016D01*
X-49427Y-231743D01*
X-49348Y-231489D01*
X-49250Y-231256D01*
X-49136Y-231043D01*
X-49003Y-230850D01*
X-48854Y-230679D01*
X-48689Y-230530D01*
X-48508Y-230405D01*
X-48310Y-230302D01*
X-48097Y-230222D01*
X-47868Y-230165D01*
X-47622Y-230131D01*
X-47361Y-230119D01*
X-47091Y-230130D01*
X-46836Y-230164D01*
X-46596Y-230221D01*
X-46372Y-230300D01*
X-46164Y-230401D01*
X-45971Y-230526D01*
X-45793Y-230672D01*
X-45631Y-230842D01*
X-45487Y-231032D01*
X-45361Y-231240D01*
X-45255Y-231468D01*
X-45168Y-231714D01*
X-45101Y-231979D01*
X-45052Y-232263D01*
X-45023Y-232566D01*
X-45014Y-232887D01*
X-45014Y-236924D01*
X-49568Y-236924D01*
G37*
%LPD*%
G36*
X-38568Y-218026D02*
X-39908Y-218026D01*
X-39908Y-224464D01*
X-40217Y-224312D01*
X-40533Y-224118D01*
X-40854Y-223882D01*
X-41182Y-223605D01*
X-41523Y-223282D01*
X-41884Y-222907D01*
X-42265Y-222480D01*
X-42666Y-222003D01*
X-43362Y-221161D01*
X-43961Y-220468D01*
X-44461Y-219922D01*
X-44865Y-219524D01*
X-45220Y-219220D01*
X-45574Y-218956D01*
X-45929Y-218732D01*
X-46284Y-218547D01*
X-46639Y-218404D01*
X-46995Y-218301D01*
X-47353Y-218239D01*
X-47711Y-218219D01*
X-48105Y-218235D01*
X-48475Y-218282D01*
X-48823Y-218360D01*
X-49147Y-218470D01*
X-49448Y-218611D01*
X-49726Y-218783D01*
X-49980Y-218987D01*
X-50212Y-219222D01*
X-50418Y-219486D01*
X-50597Y-219777D01*
X-50748Y-220095D01*
X-50872Y-220440D01*
X-50968Y-220812D01*
X-51037Y-221211D01*
X-51078Y-221637D01*
X-51092Y-222090D01*
X-51079Y-222505D01*
X-51037Y-222901D01*
X-50969Y-223278D01*
X-50873Y-223635D01*
X-50750Y-223973D01*
X-50600Y-224292D01*
X-50422Y-224591D01*
X-50216Y-224871D01*
X-49988Y-225127D01*
X-49741Y-225355D01*
X-49474Y-225555D01*
X-49189Y-225726D01*
X-48885Y-225869D01*
X-48563Y-225984D01*
X-48221Y-226070D01*
X-47860Y-226128D01*
X-47711Y-224516D01*
X-47952Y-224479D01*
X-48179Y-224426D01*
X-48392Y-224355D01*
X-48591Y-224268D01*
X-48776Y-224164D01*
X-48947Y-224042D01*
X-49105Y-223905D01*
X-49249Y-223750D01*
X-49377Y-223581D01*
X-49488Y-223401D01*
X-49582Y-223211D01*
X-49659Y-223009D01*
X-49719Y-222796D01*
X-49762Y-222572D01*
X-49787Y-222336D01*
X-49796Y-222090D01*
X-49787Y-221832D01*
X-49761Y-221589D01*
X-49717Y-221361D01*
X-49656Y-221146D01*
X-49577Y-220947D01*
X-49481Y-220762D01*
X-49367Y-220591D01*
X-49235Y-220435D01*
X-49088Y-220295D01*
X-48927Y-220174D01*
X-48751Y-220072D01*
X-48561Y-219988D01*
X-48357Y-219923D01*
X-48138Y-219876D01*
X-47906Y-219849D01*
X-47659Y-219839D01*
X-47292Y-219861D01*
X-46945Y-219926D01*
X-46618Y-220034D01*
X-46310Y-220185D01*
X-46016Y-220372D01*
X-45728Y-220585D01*
X-45446Y-220825D01*
X-45171Y-221092D01*
X-44628Y-221686D01*
X-44085Y-222349D01*
X-43519Y-223048D01*
X-42907Y-223754D01*
X-42581Y-224105D01*
X-42235Y-224447D01*
X-41871Y-224781D01*
X-41488Y-225107D01*
X-41081Y-225417D01*
X-40644Y-225702D01*
X-40177Y-225962D01*
X-39680Y-226198D01*
X-38568Y-226198D01*
X-38568Y-218026D01*
G37*
G36*
X252341Y80576D02*
X247217Y80576D01*
X247217Y84421D01*
X252341Y87626D01*
X252341Y89553D01*
X249288Y87541D01*
X247025Y86050D01*
X246952Y86393D01*
X246859Y86717D01*
X246743Y87022D01*
X246606Y87308D01*
X246514Y87464D01*
X246448Y87575D01*
X246268Y87822D01*
X246066Y88051D01*
X245842Y88261D01*
X245601Y88449D01*
X245346Y88612D01*
X245078Y88750D01*
X244796Y88862D01*
X244500Y88950D01*
X244190Y89013D01*
X243867Y89050D01*
X243530Y89063D01*
X243125Y89045D01*
X242744Y88992D01*
X242385Y88903D01*
X242049Y88779D01*
X241735Y88620D01*
X241445Y88425D01*
X241178Y88194D01*
X240933Y87928D01*
X240714Y87630D01*
X240525Y87302D01*
X240365Y86944D01*
X240233Y86557D01*
X240131Y86139D01*
X240059Y85692D01*
X240015Y85216D01*
X240000Y84710D01*
X240000Y78903D01*
X252341Y78903D01*
X252341Y80576D01*
G37*
%LPC*%
G36*
X241340Y80576D02*
X241340Y84543D01*
X241349Y84877D01*
X241376Y85190D01*
X241420Y85484D01*
X241482Y85757D01*
X241561Y86011D01*
X241658Y86244D01*
X241773Y86457D01*
X241905Y86650D01*
X242054Y86821D01*
X242220Y86970D01*
X242401Y87095D01*
X242598Y87198D01*
X242812Y87278D01*
X243041Y87335D01*
X243286Y87370D01*
X243547Y87381D01*
X243818Y87370D01*
X244073Y87336D01*
X244312Y87279D01*
X244536Y87200D01*
X244745Y87099D01*
X244938Y86975D01*
X245115Y86828D01*
X245277Y86658D01*
X245422Y86468D01*
X245547Y86260D01*
X245654Y86032D01*
X245740Y85786D01*
X245808Y85521D01*
X245856Y85237D01*
X245885Y84935D01*
X245895Y84613D01*
X245895Y80576D01*
X241340Y80576D01*
G37*
%LPD*%
G36*
X249572Y91150D02*
X249947Y91245D01*
X250298Y91368D01*
X250623Y91520D01*
X250923Y91700D01*
X251198Y91908D01*
X251447Y92145D01*
X251671Y92410D01*
X251869Y92701D01*
X252041Y93016D01*
X252186Y93354D01*
X252305Y93716D01*
X252397Y94102D01*
X252463Y94511D01*
X252503Y94944D01*
X252516Y95401D01*
X252502Y95890D01*
X252458Y96350D01*
X252384Y96781D01*
X252282Y97183D01*
X252150Y97557D01*
X251989Y97901D01*
X251799Y98216D01*
X251579Y98502D01*
X251333Y98756D01*
X251062Y98977D01*
X250768Y99163D01*
X250449Y99316D01*
X250107Y99435D01*
X249740Y99520D01*
X249349Y99571D01*
X248934Y99588D01*
X248645Y99576D01*
X248368Y99540D01*
X248104Y99479D01*
X247852Y99395D01*
X247613Y99287D01*
X247387Y99154D01*
X247173Y98998D01*
X246972Y98817D01*
X246787Y98615D01*
X246622Y98393D01*
X246476Y98153D01*
X246350Y97893D01*
X246244Y97614D01*
X246157Y97316D01*
X246091Y96999D01*
X246044Y96662D01*
X246009Y96662D01*
X245935Y96968D01*
X245847Y97255D01*
X245744Y97524D01*
X245627Y97774D01*
X245494Y98005D01*
X245346Y98217D01*
X245183Y98410D01*
X245006Y98585D01*
X244814Y98740D01*
X244608Y98874D01*
X244388Y98988D01*
X244155Y99081D01*
X243908Y99153D01*
X243647Y99205D01*
X243372Y99236D01*
X243083Y99246D01*
X242708Y99230D01*
X242355Y99182D01*
X242023Y99101D01*
X241711Y98989D01*
X241422Y98844D01*
X241153Y98667D01*
X240905Y98458D01*
X240679Y98217D01*
X240477Y97947D01*
X240302Y97651D01*
X240153Y97329D01*
X240032Y96981D01*
X239938Y96607D01*
X239870Y96208D01*
X239830Y95782D01*
X239816Y95331D01*
X239830Y94916D01*
X239869Y94520D01*
X239936Y94144D01*
X240029Y93786D01*
X240148Y93448D01*
X240294Y93130D01*
X240467Y92830D01*
X240666Y92550D01*
X240889Y92294D01*
X241132Y92066D01*
X241397Y91866D01*
X241682Y91695D01*
X241988Y91552D01*
X242315Y91438D01*
X242662Y91351D01*
X243031Y91293D01*
X243153Y92879D01*
X242917Y92913D01*
X242695Y92965D01*
X242486Y93033D01*
X242291Y93118D01*
X242109Y93220D01*
X241941Y93339D01*
X241787Y93475D01*
X241647Y93628D01*
X241522Y93795D01*
X241413Y93974D01*
X241321Y94166D01*
X241246Y94371D01*
X241188Y94588D01*
X241146Y94817D01*
X241121Y95059D01*
X241113Y95314D01*
X241122Y95592D01*
X241148Y95852D01*
X241193Y96095D01*
X241256Y96320D01*
X241337Y96527D01*
X241435Y96717D01*
X241552Y96889D01*
X241686Y97043D01*
X241836Y97180D01*
X241999Y97298D01*
X242175Y97398D01*
X242364Y97480D01*
X242566Y97544D01*
X242781Y97589D01*
X243009Y97617D01*
X243250Y97626D01*
X243493Y97615D01*
X243722Y97581D01*
X243938Y97525D01*
X244140Y97447D01*
X244328Y97347D01*
X244504Y97224D01*
X244665Y97079D01*
X244813Y96912D01*
X244945Y96724D01*
X245060Y96519D01*
X245157Y96295D01*
X245237Y96053D01*
X245299Y95792D01*
X245343Y95514D01*
X245369Y95217D01*
X245378Y94902D01*
X245378Y94044D01*
X246744Y94044D01*
X246744Y94937D01*
X246753Y95292D01*
X246780Y95625D01*
X246824Y95937D01*
X246886Y96228D01*
X246965Y96497D01*
X247062Y96744D01*
X247177Y96970D01*
X247309Y97175D01*
X247457Y97356D01*
X247619Y97514D01*
X247795Y97647D01*
X247985Y97756D01*
X248188Y97841D01*
X248405Y97901D01*
X248637Y97938D01*
X248881Y97950D01*
X249162Y97939D01*
X249424Y97907D01*
X249668Y97854D01*
X249895Y97780D01*
X250104Y97685D01*
X250295Y97568D01*
X250469Y97430D01*
X250624Y97271D01*
X250762Y97093D01*
X250881Y96900D01*
X250982Y96690D01*
X251064Y96464D01*
X251129Y96222D01*
X251175Y95965D01*
X251202Y95691D01*
X251211Y95401D01*
X251203Y95112D01*
X251177Y94840D01*
X251134Y94583D01*
X251074Y94343D01*
X250997Y94119D01*
X250903Y93910D01*
X250792Y93718D01*
X250664Y93542D01*
X250518Y93382D01*
X250356Y93238D01*
X250176Y93110D01*
X249980Y92999D01*
X249766Y92903D01*
X249535Y92823D01*
X249287Y92760D01*
X249022Y92712D01*
X249170Y91083D01*
X249572Y91150D01*
G37*
G36*
X340200Y74226D02*
X335076Y74226D01*
X335076Y78071D01*
X340200Y81276D01*
X340200Y83203D01*
X337146Y81191D01*
X334883Y79700D01*
X334811Y80043D01*
X334717Y80367D01*
X334602Y80672D01*
X334465Y80958D01*
X334372Y81114D01*
X334306Y81225D01*
X334126Y81472D01*
X333924Y81701D01*
X333701Y81911D01*
X333460Y82099D01*
X333205Y82262D01*
X332936Y82400D01*
X332654Y82512D01*
X332358Y82600D01*
X332049Y82663D01*
X331725Y82700D01*
X331388Y82713D01*
X330984Y82695D01*
X330602Y82642D01*
X330243Y82553D01*
X329907Y82429D01*
X329594Y82270D01*
X329304Y82075D01*
X329036Y81844D01*
X328792Y81578D01*
X328573Y81280D01*
X328383Y80952D01*
X328223Y80594D01*
X328092Y80207D01*
X327990Y79789D01*
X327917Y79342D01*
X327873Y78866D01*
X327859Y78360D01*
X327859Y72553D01*
X340200Y72553D01*
X340200Y74226D01*
G37*
%LPC*%
G36*
X329199Y74226D02*
X329199Y78193D01*
X329208Y78527D01*
X329234Y78840D01*
X329278Y79134D01*
X329340Y79407D01*
X329419Y79661D01*
X329517Y79894D01*
X329631Y80107D01*
X329764Y80300D01*
X329913Y80471D01*
X330078Y80620D01*
X330259Y80745D01*
X330457Y80848D01*
X330670Y80928D01*
X330899Y80985D01*
X331145Y81020D01*
X331406Y81031D01*
X331676Y81020D01*
X331931Y80986D01*
X332171Y80929D01*
X332395Y80850D01*
X332603Y80749D01*
X332796Y80625D01*
X332974Y80478D01*
X333136Y80308D01*
X333280Y80118D01*
X333406Y79910D01*
X333512Y79682D01*
X333599Y79436D01*
X333666Y79171D01*
X333715Y78887D01*
X333744Y78585D01*
X333753Y78263D01*
X333753Y74226D01*
X329199Y74226D01*
G37*
%LPD*%
G36*
X337406Y90277D02*
X340200Y90277D01*
X340200Y91766D01*
X337406Y91766D01*
X337406Y93500D01*
X336162Y93500D01*
X336162Y91766D01*
X327859Y91766D01*
X327859Y90111D01*
X336179Y84462D01*
X337406Y84462D01*
X337406Y90277D01*
G37*
%LPC*%
G36*
X335987Y86056D02*
X335339Y86529D01*
X330679Y89691D01*
X330101Y90032D01*
X329637Y90277D01*
X336162Y90277D01*
X336162Y85916D01*
X335987Y86056D01*
G37*
%LPD*%
G36*
X277741Y80576D02*
X272617Y80576D01*
X272617Y84421D01*
X277741Y87626D01*
X277741Y89553D01*
X274688Y87541D01*
X272425Y86050D01*
X272352Y86393D01*
X272259Y86717D01*
X272143Y87022D01*
X272006Y87308D01*
X271914Y87464D01*
X271848Y87575D01*
X271668Y87822D01*
X271466Y88051D01*
X271242Y88261D01*
X271001Y88449D01*
X270746Y88612D01*
X270478Y88750D01*
X270196Y88862D01*
X269900Y88950D01*
X269590Y89013D01*
X269267Y89050D01*
X268930Y89063D01*
X268525Y89045D01*
X268144Y88992D01*
X267785Y88903D01*
X267449Y88779D01*
X267135Y88620D01*
X266845Y88425D01*
X266578Y88194D01*
X266333Y87928D01*
X266114Y87630D01*
X265925Y87302D01*
X265765Y86944D01*
X265633Y86557D01*
X265531Y86139D01*
X265459Y85692D01*
X265415Y85216D01*
X265400Y84710D01*
X265400Y78903D01*
X277741Y78903D01*
X277741Y80576D01*
G37*
%LPC*%
G36*
X266740Y80576D02*
X266740Y84543D01*
X266749Y84877D01*
X266776Y85190D01*
X266820Y85484D01*
X266882Y85757D01*
X266961Y86011D01*
X267058Y86244D01*
X267173Y86457D01*
X267305Y86650D01*
X267454Y86821D01*
X267620Y86970D01*
X267801Y87095D01*
X267998Y87198D01*
X268212Y87278D01*
X268441Y87335D01*
X268686Y87370D01*
X268947Y87381D01*
X269218Y87370D01*
X269473Y87336D01*
X269712Y87279D01*
X269936Y87200D01*
X270145Y87099D01*
X270338Y86975D01*
X270515Y86828D01*
X270677Y86658D01*
X270822Y86468D01*
X270947Y86260D01*
X271054Y86032D01*
X271140Y85786D01*
X271208Y85521D01*
X271256Y85237D01*
X271285Y84935D01*
X271295Y84613D01*
X271295Y80576D01*
X266740Y80576D01*
G37*
%LPD*%
G36*
X275328Y91200D02*
X275654Y91307D01*
X275958Y91438D01*
X276241Y91593D01*
X276503Y91773D01*
X276744Y91977D01*
X276964Y92205D01*
X277163Y92458D01*
X277340Y92734D01*
X277493Y93030D01*
X277622Y93347D01*
X277728Y93684D01*
X277810Y94043D01*
X277869Y94422D01*
X277904Y94823D01*
X277916Y95243D01*
X277899Y95744D01*
X277846Y96216D01*
X277759Y96661D01*
X277636Y97077D01*
X277478Y97466D01*
X277286Y97826D01*
X277058Y98158D01*
X276795Y98462D01*
X276502Y98734D01*
X276183Y98970D01*
X275837Y99169D01*
X275466Y99333D01*
X275069Y99460D01*
X274645Y99550D01*
X274196Y99605D01*
X273721Y99623D01*
X273302Y99606D01*
X272903Y99555D01*
X272524Y99471D01*
X272166Y99352D01*
X271828Y99200D01*
X271510Y99014D01*
X271213Y98795D01*
X270936Y98541D01*
X270685Y98259D01*
X270468Y97954D01*
X270284Y97626D01*
X270134Y97274D01*
X270017Y96900D01*
X269934Y96502D01*
X269884Y96081D01*
X269867Y95638D01*
X269879Y95264D01*
X269916Y94907D01*
X269978Y94565D01*
X270064Y94238D01*
X270175Y93928D01*
X270311Y93632D01*
X270471Y93353D01*
X270655Y93089D01*
X266740Y93325D01*
X266740Y98905D01*
X265400Y98905D01*
X265400Y91889D01*
X272039Y91477D01*
X272039Y93019D01*
X271816Y93295D01*
X271628Y93571D01*
X271474Y93846D01*
X271356Y94122D01*
X271268Y94404D01*
X271205Y94696D01*
X271167Y94999D01*
X271155Y95314D01*
X271166Y95612D01*
X271199Y95895D01*
X271256Y96162D01*
X271334Y96414D01*
X271435Y96650D01*
X271559Y96870D01*
X271704Y97074D01*
X271873Y97262D01*
X272059Y97432D01*
X272260Y97578D01*
X272474Y97703D01*
X272703Y97804D01*
X272945Y97883D01*
X273201Y97940D01*
X273472Y97974D01*
X273756Y97985D01*
X274082Y97974D01*
X274390Y97940D01*
X274680Y97884D01*
X274953Y97805D01*
X275207Y97704D01*
X275443Y97581D01*
X275662Y97435D01*
X275862Y97267D01*
X276042Y97079D01*
X276198Y96873D01*
X276329Y96650D01*
X276437Y96411D01*
X276521Y96153D01*
X276581Y95879D01*
X276617Y95587D01*
X276629Y95279D01*
X276622Y95026D01*
X276600Y94786D01*
X276564Y94558D01*
X276514Y94343D01*
X276450Y94140D01*
X276371Y93949D01*
X276278Y93770D01*
X276171Y93603D01*
X276050Y93449D01*
X275914Y93307D01*
X275763Y93177D01*
X275599Y93060D01*
X275420Y92955D01*
X275227Y92862D01*
X275020Y92781D01*
X274798Y92712D01*
X274982Y91118D01*
X275328Y91200D01*
G37*
G36*
X225179Y70416D02*
X220055Y70416D01*
X220055Y74261D01*
X225179Y77466D01*
X225179Y79393D01*
X222126Y77381D01*
X219863Y75890D01*
X219790Y76233D01*
X219697Y76557D01*
X219581Y76862D01*
X219444Y77148D01*
X219352Y77304D01*
X219286Y77415D01*
X219106Y77662D01*
X218904Y77891D01*
X218680Y78101D01*
X218439Y78289D01*
X218184Y78452D01*
X217916Y78590D01*
X217634Y78702D01*
X217338Y78790D01*
X217028Y78853D01*
X216705Y78890D01*
X216368Y78903D01*
X215963Y78885D01*
X215582Y78832D01*
X215223Y78743D01*
X214887Y78619D01*
X214573Y78460D01*
X214283Y78265D01*
X214016Y78034D01*
X213771Y77768D01*
X213552Y77470D01*
X213363Y77142D01*
X213203Y76784D01*
X213071Y76397D01*
X212969Y75979D01*
X212897Y75532D01*
X212853Y75056D01*
X212838Y74550D01*
X212838Y68743D01*
X225179Y68743D01*
X225179Y70416D01*
G37*
%LPC*%
G36*
X214178Y70416D02*
X214178Y74383D01*
X214187Y74717D01*
X214214Y75030D01*
X214258Y75324D01*
X214320Y75597D01*
X214399Y75851D01*
X214496Y76084D01*
X214611Y76297D01*
X214743Y76490D01*
X214892Y76661D01*
X215058Y76810D01*
X215239Y76935D01*
X215436Y77038D01*
X215650Y77118D01*
X215879Y77175D01*
X216124Y77210D01*
X216385Y77221D01*
X216656Y77210D01*
X216911Y77176D01*
X217150Y77119D01*
X217374Y77040D01*
X217583Y76939D01*
X217776Y76815D01*
X217953Y76668D01*
X218115Y76498D01*
X218260Y76308D01*
X218385Y76100D01*
X218492Y75872D01*
X218578Y75626D01*
X218646Y75361D01*
X218694Y75077D01*
X218723Y74775D01*
X218733Y74453D01*
X218733Y70416D01*
X214178Y70416D01*
G37*
%LPD*%
G36*
X220011Y81168D02*
X220685Y81220D01*
X221315Y81306D01*
X221901Y81427D01*
X222443Y81582D01*
X222941Y81772D01*
X223394Y81996D01*
X223804Y82254D01*
X224167Y82546D01*
X224482Y82868D01*
X224749Y83220D01*
X224967Y83603D01*
X225136Y84017D01*
X225257Y84462D01*
X225330Y84937D01*
X225348Y85186D01*
X225354Y85443D01*
X225337Y85896D01*
X225284Y86325D01*
X225195Y86728D01*
X225072Y87107D01*
X224913Y87460D01*
X224719Y87788D01*
X224489Y88090D01*
X224224Y88368D01*
X223929Y88616D01*
X223608Y88832D01*
X223261Y89014D01*
X222889Y89163D01*
X222490Y89279D01*
X222066Y89361D01*
X221617Y89411D01*
X221141Y89428D01*
X220702Y89412D01*
X220285Y89365D01*
X219892Y89287D01*
X219521Y89177D01*
X219173Y89036D01*
X218849Y88864D01*
X218547Y88660D01*
X218269Y88425D01*
X218018Y88163D01*
X217801Y87879D01*
X217617Y87574D01*
X217467Y87246D01*
X217350Y86896D01*
X217267Y86524D01*
X217217Y86130D01*
X217200Y85714D01*
X217206Y85466D01*
X217226Y85225D01*
X217259Y84991D01*
X217304Y84764D01*
X217434Y84331D01*
X217616Y83927D01*
X217848Y83559D01*
X218127Y83235D01*
X218454Y82955D01*
X218829Y82719D01*
X218251Y82730D01*
X217708Y82765D01*
X217201Y82823D01*
X216728Y82904D01*
X216291Y83008D01*
X215889Y83135D01*
X215522Y83285D01*
X215190Y83459D01*
X214895Y83653D01*
X214640Y83867D01*
X214424Y84099D01*
X214247Y84351D01*
X214110Y84622D01*
X214012Y84911D01*
X213953Y85220D01*
X213933Y85548D01*
X213957Y85922D01*
X214027Y86263D01*
X214145Y86568D01*
X214310Y86840D01*
X214522Y87076D01*
X214780Y87279D01*
X215086Y87446D01*
X215440Y87580D01*
X215168Y89086D01*
X214864Y88987D01*
X214579Y88872D01*
X214314Y88741D01*
X214068Y88593D01*
X213842Y88430D01*
X213636Y88250D01*
X213450Y88054D01*
X213283Y87842D01*
X213135Y87614D01*
X213008Y87370D01*
X212900Y87110D01*
X212811Y86833D01*
X212743Y86540D01*
X212694Y86231D01*
X212664Y85906D01*
X212654Y85565D01*
X212661Y85304D01*
X212681Y85050D01*
X212715Y84805D01*
X212762Y84566D01*
X212822Y84335D01*
X212896Y84112D01*
X213083Y83689D01*
X213325Y83296D01*
X213620Y82933D01*
X213969Y82600D01*
X214371Y82298D01*
X214823Y82029D01*
X215322Y81796D01*
X215868Y81599D01*
X216460Y81438D01*
X217098Y81312D01*
X217784Y81223D01*
X218515Y81169D01*
X219293Y81151D01*
X220011Y81168D01*
G37*
%LPC*%
G36*
X220560Y82887D02*
X220300Y82919D01*
X220056Y82972D01*
X219826Y83046D01*
X219612Y83141D01*
X219413Y83258D01*
X219230Y83396D01*
X219061Y83555D01*
X218910Y83731D01*
X218780Y83921D01*
X218669Y84124D01*
X218578Y84340D01*
X218508Y84570D01*
X218458Y84812D01*
X218427Y85068D01*
X218417Y85337D01*
X218429Y85623D01*
X218463Y85892D01*
X218520Y86145D01*
X218599Y86382D01*
X218701Y86603D01*
X218826Y86807D01*
X218974Y86996D01*
X219144Y87168D01*
X219336Y87322D01*
X219546Y87455D01*
X219776Y87568D01*
X220025Y87661D01*
X220293Y87733D01*
X220580Y87784D01*
X220886Y87815D01*
X221211Y87825D01*
X221537Y87815D01*
X221846Y87784D01*
X222136Y87734D01*
X222408Y87663D01*
X222662Y87572D01*
X222899Y87460D01*
X223117Y87329D01*
X223318Y87177D01*
X223497Y87007D01*
X223653Y86822D01*
X223785Y86622D01*
X223893Y86406D01*
X223976Y86175D01*
X224036Y85929D01*
X224072Y85667D01*
X224084Y85390D01*
X224070Y85120D01*
X224027Y84863D01*
X223956Y84618D01*
X223856Y84386D01*
X223728Y84166D01*
X223572Y83959D01*
X223387Y83764D01*
X223173Y83581D01*
X222938Y83416D01*
X222686Y83273D01*
X222417Y83152D01*
X222133Y83053D01*
X221833Y82975D01*
X221516Y82920D01*
X221184Y82887D01*
X220835Y82876D01*
X220560Y82887D01*
G37*
%LPD*%
G36*
X112642Y82525D02*
X107519Y82525D01*
X107519Y86370D01*
X112642Y89576D01*
X112642Y91503D01*
X109589Y89491D01*
X107326Y87999D01*
X107254Y88342D01*
X107160Y88666D01*
X107045Y88971D01*
X106908Y89257D01*
X106815Y89413D01*
X106749Y89524D01*
X106569Y89772D01*
X106367Y90001D01*
X106144Y90211D01*
X105902Y90399D01*
X105648Y90562D01*
X105379Y90699D01*
X105097Y90812D01*
X104801Y90900D01*
X104491Y90962D01*
X104168Y91000D01*
X103831Y91012D01*
X103427Y90995D01*
X103045Y90942D01*
X102686Y90853D01*
X102350Y90729D01*
X102037Y90569D01*
X101747Y90374D01*
X101479Y90144D01*
X101234Y89878D01*
X101016Y89580D01*
X100826Y89252D01*
X100666Y88894D01*
X100535Y88506D01*
X100433Y88089D01*
X100360Y87642D01*
X100316Y87166D01*
X100302Y86659D01*
X100302Y80852D01*
X112642Y80852D01*
X112642Y82525D01*
G37*
%LPC*%
G36*
X101642Y82525D02*
X101642Y86493D01*
X101651Y86827D01*
X101677Y87140D01*
X101721Y87434D01*
X101783Y87707D01*
X101862Y87960D01*
X101959Y88194D01*
X102074Y88407D01*
X102207Y88599D01*
X102356Y88771D01*
X102521Y88919D01*
X102702Y89045D01*
X102900Y89148D01*
X103113Y89228D01*
X103342Y89285D01*
X103588Y89319D01*
X103849Y89331D01*
X104119Y89319D01*
X104374Y89286D01*
X104613Y89229D01*
X104837Y89150D01*
X105046Y89049D01*
X105239Y88924D01*
X105417Y88778D01*
X105579Y88608D01*
X105723Y88418D01*
X105849Y88209D01*
X105955Y87982D01*
X106042Y87736D01*
X106109Y87471D01*
X106158Y87187D01*
X106186Y86884D01*
X106196Y86563D01*
X106196Y82525D01*
X101642Y82525D01*
G37*
%LPD*%
G36*
X101642Y99900D02*
X102481Y99334D01*
X103296Y98810D01*
X104086Y98328D01*
X104851Y97888D01*
X105591Y97491D01*
X106306Y97135D01*
X106997Y96821D01*
X107663Y96550D01*
X108313Y96314D01*
X108955Y96111D01*
X109589Y95938D01*
X110215Y95797D01*
X110834Y95688D01*
X111444Y95609D01*
X112047Y95562D01*
X112642Y95547D01*
X112642Y97193D01*
X112217Y97199D01*
X111796Y97218D01*
X110963Y97291D01*
X110145Y97413D01*
X109340Y97583D01*
X108541Y97802D01*
X107735Y98070D01*
X106925Y98387D01*
X106109Y98752D01*
X105211Y99212D01*
X104158Y99810D01*
X102947Y100547D01*
X101580Y101424D01*
X100302Y101424D01*
X100302Y93269D01*
X101642Y93269D01*
X101642Y99900D01*
G37*
G36*
X154085Y87387D02*
X154480Y87439D01*
X154850Y87527D01*
X155195Y87649D01*
X155515Y87806D01*
X155811Y87998D01*
X156082Y88224D01*
X156329Y88486D01*
X156549Y88779D01*
X156739Y89099D01*
X156900Y89445D01*
X157032Y89819D01*
X157134Y90219D01*
X157208Y90647D01*
X157252Y91101D01*
X157266Y91582D01*
X157251Y92076D01*
X157207Y92539D01*
X157132Y92973D01*
X157028Y93378D01*
X156893Y93753D01*
X156729Y94098D01*
X156535Y94414D01*
X156312Y94700D01*
X156061Y94955D01*
X155787Y95176D01*
X155490Y95362D01*
X155169Y95515D01*
X154824Y95634D01*
X154456Y95719D01*
X154064Y95770D01*
X153649Y95786D01*
X153351Y95776D01*
X153066Y95745D01*
X152793Y95694D01*
X152533Y95622D01*
X152286Y95530D01*
X152052Y95417D01*
X151830Y95284D01*
X151621Y95130D01*
X151584Y95096D01*
X151428Y94957D01*
X151255Y94768D01*
X151101Y94563D01*
X150966Y94341D01*
X150850Y94103D01*
X150753Y93849D01*
X150676Y93578D01*
X150618Y93290D01*
X150583Y93290D01*
X150524Y93538D01*
X150446Y93771D01*
X150350Y93992D01*
X150235Y94199D01*
X150102Y94393D01*
X149966Y94555D01*
X149951Y94573D01*
X149782Y94740D01*
X149594Y94893D01*
X149392Y95031D01*
X149183Y95150D01*
X148964Y95251D01*
X148738Y95333D01*
X148502Y95397D01*
X148259Y95443D01*
X148006Y95471D01*
X147746Y95480D01*
X147389Y95463D01*
X147052Y95414D01*
X146734Y95332D01*
X146434Y95216D01*
X146153Y95068D01*
X145892Y94886D01*
X145649Y94672D01*
X145425Y94425D01*
X145223Y94149D01*
X145049Y93849D01*
X144902Y93525D01*
X144781Y93178D01*
X144687Y92806D01*
X144620Y92410D01*
X144580Y91991D01*
X144566Y91547D01*
X144580Y91114D01*
X144621Y90704D01*
X144689Y90315D01*
X144785Y89950D01*
X144908Y89607D01*
X145059Y89287D01*
X145237Y88989D01*
X145442Y88714D01*
X145669Y88467D01*
X145913Y88252D01*
X146174Y88071D01*
X146452Y87922D01*
X146746Y87807D01*
X147056Y87725D01*
X147384Y87675D01*
X147728Y87659D01*
X147989Y87668D01*
X148241Y87695D01*
X148485Y87740D01*
X148720Y87804D01*
X148947Y87886D01*
X149165Y87986D01*
X149375Y88104D01*
X149576Y88241D01*
X149765Y88393D01*
X149936Y88559D01*
X150090Y88738D01*
X150227Y88930D01*
X150346Y89135D01*
X150448Y89354D01*
X150533Y89585D01*
X150601Y89831D01*
X150636Y89831D01*
X150690Y89567D01*
X150764Y89316D01*
X150859Y89077D01*
X150973Y88850D01*
X151108Y88635D01*
X151263Y88431D01*
X151439Y88240D01*
X151634Y88061D01*
X151846Y87899D01*
X152070Y87759D01*
X152306Y87640D01*
X152554Y87542D01*
X152814Y87467D01*
X153086Y87413D01*
X153370Y87380D01*
X153666Y87370D01*
X154085Y87387D01*
G37*
%LPC*%
G36*
X153269Y89009D02*
X153017Y89041D01*
X152780Y89093D01*
X152557Y89167D01*
X152350Y89262D01*
X152156Y89378D01*
X151978Y89515D01*
X151814Y89673D01*
X151667Y89850D01*
X151540Y90043D01*
X151432Y90253D01*
X151344Y90479D01*
X151276Y90721D01*
X151227Y90980D01*
X151198Y91256D01*
X151188Y91547D01*
X151197Y91847D01*
X151224Y92130D01*
X151270Y92396D01*
X151333Y92644D01*
X151415Y92875D01*
X151515Y93089D01*
X151634Y93286D01*
X151770Y93465D01*
X151925Y93626D01*
X152097Y93764D01*
X152286Y93882D01*
X152494Y93978D01*
X152719Y94053D01*
X152962Y94106D01*
X153222Y94138D01*
X153500Y94149D01*
X153826Y94139D01*
X154129Y94109D01*
X154409Y94060D01*
X154666Y93991D01*
X154900Y93902D01*
X155112Y93794D01*
X155301Y93666D01*
X155466Y93518D01*
X155611Y93350D01*
X155736Y93162D01*
X155843Y92953D01*
X155929Y92723D01*
X155997Y92473D01*
X156045Y92203D01*
X156074Y91912D01*
X156084Y91600D01*
X156074Y91285D01*
X156044Y90990D01*
X155994Y90716D01*
X155925Y90462D01*
X155835Y90228D01*
X155725Y90015D01*
X155596Y89822D01*
X155447Y89649D01*
X155277Y89497D01*
X155088Y89364D01*
X154879Y89253D01*
X154650Y89161D01*
X154401Y89090D01*
X154132Y89039D01*
X153844Y89009D01*
X153535Y88999D01*
X153269Y89009D01*
G37*
G36*
X147581Y89279D02*
X147344Y89307D01*
X147124Y89352D01*
X146920Y89416D01*
X146732Y89498D01*
X146561Y89598D01*
X146405Y89716D01*
X146265Y89853D01*
X146142Y90006D01*
X146036Y90177D01*
X145945Y90364D01*
X145871Y90567D01*
X145814Y90788D01*
X145773Y91024D01*
X145748Y91278D01*
X145740Y91547D01*
X145748Y91825D01*
X145773Y92085D01*
X145814Y92327D01*
X145871Y92551D01*
X145944Y92757D01*
X146034Y92946D01*
X146141Y93116D01*
X146263Y93268D01*
X146402Y93403D01*
X146558Y93519D01*
X146729Y93618D01*
X146917Y93699D01*
X147122Y93761D01*
X147343Y93806D01*
X147580Y93833D01*
X147833Y93842D01*
X148110Y93833D01*
X148367Y93806D01*
X148604Y93760D01*
X148822Y93696D01*
X149019Y93615D01*
X149197Y93514D01*
X149355Y93396D01*
X149493Y93260D01*
X149613Y93106D01*
X149717Y92935D01*
X149805Y92748D01*
X149877Y92545D01*
X149933Y92325D01*
X149973Y92088D01*
X149997Y91835D01*
X150005Y91565D01*
X149997Y91299D01*
X149971Y91048D01*
X149927Y90813D01*
X149866Y90594D01*
X149788Y90390D01*
X149693Y90201D01*
X149580Y90028D01*
X149449Y89870D01*
X149302Y89729D01*
X149140Y89608D01*
X148961Y89504D01*
X148767Y89420D01*
X148557Y89354D01*
X148332Y89308D01*
X148090Y89279D01*
X147833Y89270D01*
X147581Y89279D01*
G37*
%LPD*%
G36*
X157091Y76766D02*
X151967Y76766D01*
X151967Y80611D01*
X157091Y83816D01*
X157091Y85743D01*
X154038Y83731D01*
X151775Y82240D01*
X151702Y82583D01*
X151609Y82907D01*
X151493Y83212D01*
X151356Y83498D01*
X151264Y83654D01*
X151198Y83765D01*
X151018Y84012D01*
X150816Y84241D01*
X150592Y84451D01*
X150351Y84639D01*
X150096Y84802D01*
X149828Y84940D01*
X149546Y85052D01*
X149250Y85140D01*
X148940Y85203D01*
X148617Y85240D01*
X148280Y85253D01*
X147875Y85235D01*
X147494Y85182D01*
X147135Y85093D01*
X146799Y84969D01*
X146485Y84810D01*
X146195Y84615D01*
X145928Y84384D01*
X145683Y84118D01*
X145464Y83820D01*
X145275Y83492D01*
X145115Y83134D01*
X144983Y82747D01*
X144881Y82329D01*
X144809Y81882D01*
X144765Y81406D01*
X144750Y80900D01*
X144750Y75093D01*
X157091Y75093D01*
X157091Y76766D01*
G37*
%LPC*%
G36*
X146090Y76766D02*
X146090Y80733D01*
X146099Y81067D01*
X146126Y81380D01*
X146170Y81674D01*
X146232Y81947D01*
X146311Y82201D01*
X146408Y82434D01*
X146523Y82647D01*
X146655Y82840D01*
X146804Y83011D01*
X146970Y83160D01*
X147151Y83285D01*
X147348Y83388D01*
X147562Y83468D01*
X147791Y83525D01*
X148036Y83560D01*
X148297Y83571D01*
X148568Y83560D01*
X148823Y83526D01*
X149062Y83469D01*
X149286Y83390D01*
X149495Y83289D01*
X149688Y83165D01*
X149865Y83018D01*
X150027Y82848D01*
X150172Y82658D01*
X150297Y82450D01*
X150404Y82222D01*
X150490Y81976D01*
X150558Y81711D01*
X150606Y81427D01*
X150635Y81125D01*
X150645Y80803D01*
X150645Y76766D01*
X146090Y76766D01*
G37*
%LPD*%
G36*
X138041Y80576D02*
X132917Y80576D01*
X132917Y84421D01*
X138041Y87626D01*
X138041Y89553D01*
X134988Y87541D01*
X132725Y86050D01*
X132652Y86393D01*
X132559Y86717D01*
X132443Y87022D01*
X132306Y87308D01*
X132214Y87464D01*
X132148Y87575D01*
X131968Y87822D01*
X131766Y88051D01*
X131542Y88261D01*
X131301Y88449D01*
X131046Y88612D01*
X130778Y88750D01*
X130496Y88862D01*
X130200Y88950D01*
X129890Y89013D01*
X129567Y89050D01*
X129230Y89063D01*
X128825Y89045D01*
X128444Y88992D01*
X128085Y88903D01*
X127749Y88779D01*
X127435Y88620D01*
X127145Y88425D01*
X126878Y88194D01*
X126633Y87928D01*
X126414Y87630D01*
X126225Y87302D01*
X126065Y86944D01*
X125933Y86557D01*
X125831Y86139D01*
X125759Y85692D01*
X125715Y85216D01*
X125700Y84710D01*
X125700Y78903D01*
X138041Y78903D01*
X138041Y80576D01*
G37*
%LPC*%
G36*
X127040Y80576D02*
X127040Y84543D01*
X127049Y84877D01*
X127076Y85190D01*
X127120Y85484D01*
X127182Y85757D01*
X127261Y86011D01*
X127358Y86244D01*
X127473Y86457D01*
X127605Y86650D01*
X127754Y86821D01*
X127920Y86970D01*
X128101Y87095D01*
X128298Y87198D01*
X128512Y87278D01*
X128741Y87335D01*
X128986Y87370D01*
X129247Y87381D01*
X129518Y87370D01*
X129773Y87336D01*
X130012Y87279D01*
X130236Y87200D01*
X130445Y87099D01*
X130638Y86975D01*
X130815Y86828D01*
X130977Y86658D01*
X131122Y86468D01*
X131247Y86260D01*
X131354Y86032D01*
X131440Y85786D01*
X131508Y85521D01*
X131556Y85237D01*
X131585Y84935D01*
X131595Y84613D01*
X131595Y80576D01*
X127040Y80576D01*
G37*
%LPD*%
G36*
X130127Y91256D02*
X130563Y91303D01*
X130975Y91381D01*
X131365Y91490D01*
X131731Y91631D01*
X132074Y91802D01*
X132393Y92005D01*
X132690Y92239D01*
X132956Y92499D01*
X133188Y92780D01*
X133383Y93082D01*
X133544Y93404D01*
X133668Y93747D01*
X133757Y94111D01*
X133810Y94496D01*
X133828Y94902D01*
X133821Y95153D01*
X133798Y95399D01*
X133761Y95640D01*
X133709Y95876D01*
X133642Y96107D01*
X133560Y96332D01*
X133463Y96552D01*
X133351Y96767D01*
X133227Y96972D01*
X133093Y97161D01*
X132949Y97334D01*
X132796Y97492D01*
X132633Y97634D01*
X132460Y97761D01*
X132277Y97872D01*
X132085Y97967D01*
X132653Y97948D01*
X133187Y97906D01*
X133688Y97841D01*
X134154Y97755D01*
X134588Y97646D01*
X134987Y97516D01*
X135353Y97363D01*
X135685Y97188D01*
X135981Y96992D01*
X136237Y96777D01*
X136454Y96543D01*
X136631Y96290D01*
X136769Y96018D01*
X136867Y95726D01*
X136927Y95416D01*
X136946Y95086D01*
X136940Y94889D01*
X136922Y94701D01*
X136850Y94351D01*
X136729Y94037D01*
X136561Y93759D01*
X136344Y93516D01*
X136079Y93309D01*
X135766Y93137D01*
X135405Y93001D01*
X135641Y91495D01*
X135969Y91597D01*
X136273Y91714D01*
X136554Y91847D01*
X136812Y91995D01*
X137046Y92159D01*
X137256Y92338D01*
X137444Y92533D01*
X137607Y92743D01*
X137750Y92970D01*
X137874Y93215D01*
X137978Y93477D01*
X138064Y93758D01*
X138131Y94056D01*
X138178Y94373D01*
X138207Y94707D01*
X138216Y95060D01*
X138209Y95324D01*
X138189Y95581D01*
X138156Y95830D01*
X138109Y96071D01*
X138049Y96304D01*
X137976Y96530D01*
X137789Y96959D01*
X137549Y97357D01*
X137255Y97724D01*
X136909Y98060D01*
X136508Y98366D01*
X136058Y98638D01*
X135562Y98874D01*
X135020Y99073D01*
X134433Y99236D01*
X133799Y99363D01*
X133119Y99454D01*
X132393Y99508D01*
X131621Y99526D01*
X130881Y99510D01*
X130188Y99460D01*
X129544Y99377D01*
X128947Y99261D01*
X128399Y99112D01*
X127898Y98930D01*
X127445Y98715D01*
X127040Y98467D01*
X126683Y98186D01*
X126374Y97874D01*
X126112Y97531D01*
X125897Y97157D01*
X125731Y96752D01*
X125612Y96315D01*
X125540Y95848D01*
X125522Y95602D01*
X125516Y95349D01*
X125534Y94878D01*
X125586Y94434D01*
X125672Y94016D01*
X125793Y93625D01*
X125949Y93261D01*
X126140Y92923D01*
X126365Y92612D01*
X126624Y92327D01*
X126914Y92072D01*
X127230Y91852D01*
X127572Y91665D01*
X127939Y91512D01*
X128333Y91394D01*
X128752Y91309D01*
X129197Y91258D01*
X129668Y91241D01*
X130127Y91256D01*
G37*
%LPC*%
G36*
X129346Y92854D02*
X129041Y92885D01*
X128753Y92936D01*
X128482Y93008D01*
X128229Y93100D01*
X127992Y93213D01*
X127773Y93347D01*
X127570Y93501D01*
X127389Y93672D01*
X127231Y93859D01*
X127098Y94061D01*
X126989Y94278D01*
X126904Y94510D01*
X126844Y94757D01*
X126807Y95019D01*
X126795Y95296D01*
X126809Y95576D01*
X126852Y95841D01*
X126923Y96091D01*
X127022Y96327D01*
X127149Y96549D01*
X127305Y96756D01*
X127489Y96949D01*
X127702Y97127D01*
X127937Y97287D01*
X128191Y97425D01*
X128463Y97543D01*
X128754Y97639D01*
X129062Y97714D01*
X129389Y97767D01*
X129734Y97799D01*
X130097Y97810D01*
X130451Y97789D01*
X130785Y97725D01*
X131099Y97620D01*
X131393Y97473D01*
X131662Y97288D01*
X131898Y97073D01*
X132102Y96826D01*
X132274Y96548D01*
X132410Y96249D01*
X132507Y95938D01*
X132565Y95614D01*
X132584Y95279D01*
X132572Y95005D01*
X132535Y94747D01*
X132474Y94503D01*
X132388Y94273D01*
X132278Y94058D01*
X132144Y93858D01*
X131984Y93672D01*
X131801Y93501D01*
X131596Y93347D01*
X131373Y93213D01*
X131133Y93100D01*
X130875Y93008D01*
X130600Y92936D01*
X130307Y92885D01*
X129996Y92854D01*
X129668Y92844D01*
X129346Y92854D01*
G37*
%LPD*%
G36*
X276100Y-113497D02*
X271786Y-110472D01*
X276100Y-107509D01*
X276100Y-106031D01*
X270924Y-109694D01*
X266232Y-106318D01*
X266232Y-107796D01*
X270105Y-110465D01*
X266232Y-113210D01*
X266232Y-114688D01*
X270973Y-111221D01*
X276100Y-114975D01*
X276100Y-113497D01*
G37*
G36*
X276100Y-98458D02*
X275028Y-98458D01*
X275028Y-100860D01*
X266232Y-100860D01*
X266232Y-102023D01*
X267836Y-104355D01*
X269026Y-104355D01*
X267436Y-102128D01*
X275028Y-102128D01*
X275028Y-104642D01*
X276100Y-104642D01*
X276100Y-98458D01*
G37*
G36*
X241810Y271369D02*
X237496Y274394D01*
X241810Y277357D01*
X241810Y278835D01*
X236634Y275172D01*
X231942Y278548D01*
X231942Y277070D01*
X235815Y274401D01*
X231942Y271656D01*
X231942Y270178D01*
X236683Y273645D01*
X241810Y269891D01*
X241810Y271369D01*
G37*
G36*
X241810Y286387D02*
X240738Y286387D01*
X240738Y281239D01*
X240491Y281361D01*
X240239Y281516D01*
X239981Y281704D01*
X239719Y281926D01*
X239447Y282184D01*
X239158Y282484D01*
X238532Y283207D01*
X237976Y283880D01*
X237497Y284435D01*
X237097Y284871D01*
X236774Y285190D01*
X236491Y285433D01*
X236207Y285644D01*
X235923Y285823D01*
X235640Y285970D01*
X235356Y286085D01*
X235071Y286167D01*
X234785Y286217D01*
X234498Y286233D01*
X234183Y286221D01*
X233887Y286183D01*
X233610Y286120D01*
X233350Y286033D01*
X233110Y285920D01*
X232887Y285782D01*
X232684Y285619D01*
X232499Y285431D01*
X232334Y285220D01*
X232191Y284987D01*
X232070Y284733D01*
X231971Y284457D01*
X231894Y284159D01*
X231839Y283840D01*
X231806Y283500D01*
X231795Y283137D01*
X231806Y282805D01*
X231838Y282489D01*
X231893Y282188D01*
X231970Y281902D01*
X232068Y281632D01*
X232189Y281377D01*
X232331Y281138D01*
X232495Y280914D01*
X232678Y280709D01*
X232875Y280527D01*
X233088Y280367D01*
X233316Y280230D01*
X233559Y280116D01*
X233817Y280024D01*
X234091Y279955D01*
X234379Y279909D01*
X234498Y281197D01*
X234306Y281227D01*
X234124Y281270D01*
X233954Y281326D01*
X233795Y281396D01*
X233647Y281479D01*
X233510Y281576D01*
X233384Y281686D01*
X233269Y281810D01*
X233077Y282089D01*
X233002Y282241D01*
X232941Y282403D01*
X232893Y282573D01*
X232859Y282752D01*
X232838Y282940D01*
X232831Y283137D01*
X232838Y283343D01*
X232859Y283538D01*
X232894Y283721D01*
X232943Y283892D01*
X233006Y284052D01*
X233083Y284200D01*
X233174Y284336D01*
X233279Y284461D01*
X233397Y284573D01*
X233526Y284669D01*
X233667Y284751D01*
X233819Y284818D01*
X233982Y284870D01*
X234157Y284908D01*
X234343Y284930D01*
X234540Y284937D01*
X234833Y284920D01*
X235111Y284868D01*
X235373Y284782D01*
X235619Y284661D01*
X235854Y284512D01*
X236084Y284341D01*
X236309Y284149D01*
X236529Y283936D01*
X236963Y283460D01*
X237398Y282931D01*
X237850Y282371D01*
X238340Y281807D01*
X238877Y281253D01*
X239474Y280725D01*
X239800Y280477D01*
X240149Y280249D01*
X240523Y280041D01*
X240921Y279853D01*
X241810Y279853D01*
X241810Y286387D01*
G37*
G36*
X344810Y265807D02*
X340496Y268832D01*
X344810Y271795D01*
X344810Y273273D01*
X339634Y269610D01*
X334942Y272986D01*
X334942Y271508D01*
X338815Y268839D01*
X334942Y266094D01*
X334942Y264616D01*
X339683Y268083D01*
X344810Y264329D01*
X344810Y265807D01*
G37*
G36*
X342595Y274169D02*
X342896Y274245D01*
X343176Y274344D01*
X343436Y274465D01*
X343676Y274609D01*
X343896Y274775D01*
X344095Y274965D01*
X344274Y275177D01*
X344433Y275409D01*
X344570Y275661D01*
X344686Y275932D01*
X344781Y276221D01*
X344855Y276529D01*
X344908Y276857D01*
X344940Y277203D01*
X344950Y277568D01*
X344938Y277960D01*
X344903Y278327D01*
X344845Y278672D01*
X344763Y278994D01*
X344657Y279292D01*
X344529Y279567D01*
X344376Y279819D01*
X344201Y280048D01*
X344004Y280251D01*
X343787Y280428D01*
X343552Y280577D01*
X343297Y280699D01*
X343023Y280794D01*
X342730Y280862D01*
X342417Y280903D01*
X342086Y280916D01*
X341854Y280907D01*
X341633Y280878D01*
X341422Y280830D01*
X341221Y280762D01*
X341030Y280675D01*
X340849Y280570D01*
X340678Y280444D01*
X340517Y280300D01*
X340369Y280138D01*
X340237Y279961D01*
X340120Y279769D01*
X340019Y279561D01*
X339935Y279338D01*
X339865Y279100D01*
X339812Y278846D01*
X339774Y278577D01*
X339746Y278577D01*
X339688Y278822D01*
X339617Y279051D01*
X339535Y279266D01*
X339441Y279466D01*
X339335Y279650D01*
X339216Y279820D01*
X339086Y279975D01*
X338944Y280114D01*
X338791Y280238D01*
X338626Y280346D01*
X338451Y280437D01*
X338264Y280511D01*
X338066Y280569D01*
X337858Y280610D01*
X337638Y280635D01*
X337407Y280643D01*
X337107Y280630D01*
X336825Y280592D01*
X336559Y280527D01*
X336310Y280437D01*
X336078Y280322D01*
X335863Y280180D01*
X335665Y280013D01*
X335484Y279820D01*
X335323Y279604D01*
X335183Y279367D01*
X335064Y279110D01*
X334967Y278832D01*
X334892Y278533D01*
X334838Y278213D01*
X334805Y277873D01*
X334795Y277512D01*
X334805Y277180D01*
X334837Y276864D01*
X334890Y276563D01*
X334964Y276277D01*
X335060Y276007D01*
X335177Y275752D01*
X335315Y275513D01*
X335474Y275289D01*
X335652Y275084D01*
X335847Y274902D01*
X336058Y274742D01*
X336286Y274605D01*
X336531Y274491D01*
X336792Y274399D01*
X337070Y274330D01*
X337365Y274284D01*
X337463Y275551D01*
X337274Y275579D01*
X337096Y275620D01*
X336929Y275675D01*
X336773Y275743D01*
X336628Y275825D01*
X336494Y275920D01*
X336371Y276028D01*
X336258Y276150D01*
X336158Y276284D01*
X336071Y276427D01*
X335998Y276581D01*
X335938Y276745D01*
X335891Y276918D01*
X335858Y277102D01*
X335838Y277295D01*
X335831Y277498D01*
X335838Y277721D01*
X335860Y277929D01*
X335896Y278123D01*
X335946Y278303D01*
X336010Y278469D01*
X336089Y278621D01*
X336182Y278758D01*
X336290Y278882D01*
X336410Y278991D01*
X336540Y279085D01*
X336681Y279165D01*
X336832Y279231D01*
X336993Y279282D01*
X337165Y279318D01*
X337347Y279340D01*
X337540Y279347D01*
X337734Y279338D01*
X337918Y279312D01*
X338090Y279267D01*
X338252Y279205D01*
X338403Y279124D01*
X338543Y279026D01*
X338672Y278910D01*
X338790Y278777D01*
X338896Y278627D01*
X338988Y278462D01*
X339066Y278283D01*
X339129Y278089D01*
X339178Y277881D01*
X339214Y277658D01*
X339235Y277421D01*
X339242Y277169D01*
X339242Y276483D01*
X340335Y276483D01*
X340335Y277197D01*
X340342Y277481D01*
X340363Y277748D01*
X340398Y277997D01*
X340448Y278229D01*
X340511Y278444D01*
X340589Y278642D01*
X340680Y278823D01*
X340786Y278987D01*
X340905Y279132D01*
X341034Y279258D01*
X341175Y279364D01*
X341327Y279452D01*
X341489Y279519D01*
X341663Y279568D01*
X341848Y279597D01*
X342044Y279607D01*
X342268Y279598D01*
X342477Y279573D01*
X342673Y279530D01*
X342854Y279471D01*
X343021Y279394D01*
X343174Y279301D01*
X343313Y279191D01*
X343437Y279064D01*
X343547Y278922D01*
X343643Y278767D01*
X343723Y278599D01*
X343789Y278418D01*
X343841Y278225D01*
X343877Y278019D01*
X343899Y277800D01*
X343907Y277568D01*
X343900Y277338D01*
X343879Y277120D01*
X343845Y276915D01*
X343797Y276722D01*
X343736Y276543D01*
X343660Y276376D01*
X343571Y276223D01*
X343469Y276082D01*
X343353Y275954D01*
X343223Y275839D01*
X343079Y275737D01*
X342922Y275647D01*
X342751Y275571D01*
X342566Y275507D01*
X342368Y275456D01*
X342156Y275418D01*
X342275Y274116D01*
X342595Y274169D01*
G37*
G36*
X360356Y-101969D02*
X362590Y-101969D01*
X362590Y-100778D01*
X360356Y-100778D01*
X360356Y-99392D01*
X359361Y-99392D01*
X359361Y-100778D01*
X352722Y-100778D01*
X352722Y-102102D01*
X359375Y-106620D01*
X360356Y-106620D01*
X360356Y-101969D01*
G37*
%LPC*%
G36*
X359221Y-105345D02*
X358703Y-104967D01*
X354977Y-102438D01*
X354515Y-102165D01*
X354143Y-101969D01*
X359361Y-101969D01*
X359361Y-105457D01*
X359221Y-105345D01*
G37*
%LPD*%
G36*
X362590Y-114711D02*
X358276Y-111686D01*
X362590Y-108723D01*
X362590Y-107245D01*
X357414Y-110908D01*
X352722Y-107532D01*
X352722Y-109010D01*
X356595Y-111679D01*
X352722Y-114424D01*
X352722Y-115902D01*
X357463Y-112435D01*
X362590Y-116189D01*
X362590Y-114711D01*
G37*
G36*
X101881Y279771D02*
X102141Y279857D01*
X102384Y279961D01*
X102611Y280086D01*
X102820Y280229D01*
X103013Y280392D01*
X103189Y280575D01*
X103348Y280777D01*
X103489Y280997D01*
X103611Y281234D01*
X103715Y281488D01*
X103800Y281758D01*
X103865Y282044D01*
X103912Y282348D01*
X103941Y282668D01*
X103950Y283004D01*
X103936Y283405D01*
X103894Y283782D01*
X103824Y284138D01*
X103726Y284471D01*
X103600Y284781D01*
X103446Y285069D01*
X103264Y285335D01*
X103054Y285578D01*
X102819Y285796D01*
X102564Y285984D01*
X102288Y286144D01*
X101991Y286274D01*
X101673Y286376D01*
X101335Y286448D01*
X100975Y286492D01*
X100595Y286506D01*
X100260Y286493D01*
X99941Y286452D01*
X99639Y286385D01*
X99352Y286290D01*
X99082Y286168D01*
X98828Y286020D01*
X98590Y285844D01*
X98368Y285641D01*
X98168Y285416D01*
X97994Y285172D01*
X97847Y284909D01*
X97727Y284628D01*
X97634Y284329D01*
X97567Y284011D01*
X97527Y283674D01*
X97514Y283320D01*
X97523Y283021D01*
X97553Y282735D01*
X97602Y282462D01*
X97671Y282201D01*
X97760Y281952D01*
X97868Y281716D01*
X97996Y281493D01*
X98144Y281281D01*
X95013Y281471D01*
X95013Y285932D01*
X93942Y285932D01*
X93942Y280322D01*
X99251Y279993D01*
X99251Y281225D01*
X99072Y281446D01*
X98921Y281667D01*
X98799Y281887D01*
X98704Y282108D01*
X98634Y282333D01*
X98583Y282567D01*
X98553Y282809D01*
X98543Y283060D01*
X98552Y283299D01*
X98579Y283525D01*
X98624Y283739D01*
X98687Y283940D01*
X98768Y284129D01*
X98866Y284305D01*
X98983Y284468D01*
X99117Y284619D01*
X99267Y284754D01*
X99427Y284872D01*
X99598Y284971D01*
X99781Y285052D01*
X99975Y285115D01*
X100180Y285160D01*
X100396Y285187D01*
X100623Y285197D01*
X100884Y285188D01*
X101130Y285161D01*
X101362Y285116D01*
X101580Y285053D01*
X101784Y284972D01*
X101973Y284873D01*
X102147Y284757D01*
X102308Y284622D01*
X102451Y284472D01*
X102576Y284307D01*
X102681Y284129D01*
X102767Y283938D01*
X102834Y283732D01*
X102882Y283513D01*
X102911Y283279D01*
X102921Y283032D01*
X102898Y282639D01*
X102829Y282284D01*
X102715Y281969D01*
X102555Y281693D01*
X102349Y281456D01*
X102097Y281258D01*
X101800Y281100D01*
X101457Y280980D01*
X101604Y279706D01*
X101881Y279771D01*
G37*
G36*
X103810Y271369D02*
X99496Y274394D01*
X103810Y277357D01*
X103810Y278835D01*
X98634Y275172D01*
X93942Y278548D01*
X93942Y277070D01*
X97815Y274401D01*
X93942Y271656D01*
X93942Y270178D01*
X98683Y273645D01*
X103810Y269891D01*
X103810Y271369D01*
G37*
G36*
X48832Y-92042D02*
X54455Y-92042D01*
X55865Y-95650D01*
X57573Y-95650D01*
X52616Y-83309D01*
X50715Y-83309D01*
X45679Y-95650D01*
X47413Y-95650D01*
X48832Y-92042D01*
G37*
%LPC*%
G36*
X49340Y-90736D02*
X50916Y-86681D01*
X51293Y-85646D01*
X51565Y-84816D01*
X51643Y-84570D01*
X51880Y-85297D01*
X52125Y-86020D01*
X52370Y-86664D01*
X53956Y-90736D01*
X49340Y-90736D01*
G37*
%LPD*%
G36*
X30085Y-90255D02*
X33790Y-95650D01*
X35638Y-95650D01*
X31057Y-89177D01*
X35278Y-83309D01*
X33430Y-83309D01*
X30093Y-88153D01*
X26660Y-83309D01*
X24812Y-83309D01*
X29147Y-89239D01*
X24453Y-95650D01*
X26301Y-95650D01*
X30085Y-90255D01*
G37*
G36*
X42325Y-84676D02*
X46564Y-84676D01*
X46564Y-83309D01*
X36422Y-83309D01*
X36422Y-84676D01*
X40661Y-84676D01*
X40661Y-95650D01*
X42325Y-95650D01*
X42325Y-84676D01*
G37*
G36*
X76681Y-94310D02*
X73677Y-94310D01*
X73677Y-83309D01*
X72223Y-83309D01*
X69307Y-85315D01*
X69307Y-86804D01*
X72092Y-84816D01*
X72092Y-94310D01*
X68948Y-94310D01*
X68948Y-95650D01*
X76681Y-95650D01*
X76681Y-94310D01*
G37*
G36*
X66993Y-94284D02*
X60757Y-94284D01*
X60757Y-83309D01*
X59084Y-83309D01*
X59084Y-95650D01*
X66993Y-95650D01*
X66993Y-94284D01*
G37*
D10*
X-16236Y-122225D02*
X-16236Y-104725D01*
X-32218Y-104725D02*
X-32218Y-122225D01*
X77099Y-10020D02*
X77099Y7480D01*
X93081Y7480D02*
X93081Y-10020D01*
X212785Y2680D02*
X212785Y20180D01*
X228767Y20180D02*
X228767Y2680D01*
X-16236Y-143650D02*
X-16236Y-161150D01*
X-32218Y-161150D02*
X-32218Y-143650D01*
X112659Y-145910D02*
X112659Y-128410D01*
X128641Y-128410D02*
X128641Y-145910D01*
X255947Y-2015D02*
X255947Y15485D01*
X271929Y15485D02*
X271929Y-2015D01*
X250237Y-5601D02*
X250237Y11900D01*
X234255Y11900D02*
X234255Y-5601D01*
X53500Y-9510D02*
X53500Y7990D01*
X69482Y7990D02*
X69482Y-9510D01*
X187061Y-7480D02*
X187061Y10020D01*
X171079Y10020D02*
X171079Y-7480D01*
X150231Y-12560D02*
X150231Y4940D01*
X134249Y4940D02*
X134249Y-12560D01*
D11*
X283210Y54354D02*
X289560Y54354D01*
X299720Y60704D02*
X299720Y48004D01*
X289560Y54354D01*
X304800Y54354D01*
X299720Y60704D02*
X289560Y54354D01*
X289560Y60704D01*
X289560Y54354D02*
X289560Y48004D01*
X309880Y64514D02*
X309980Y64512D01*
X310079Y64506D01*
X310179Y64496D01*
X310277Y64483D01*
X310376Y64465D01*
X310473Y64444D01*
X310569Y64419D01*
X310665Y64390D01*
X310759Y64357D01*
X310852Y64321D01*
X310943Y64281D01*
X311033Y64237D01*
X311121Y64190D01*
X311207Y64140D01*
X311291Y64086D01*
X311373Y64029D01*
X311452Y63969D01*
X311530Y63905D01*
X311604Y63839D01*
X311676Y63770D01*
X311745Y63698D01*
X311811Y63624D01*
X311875Y63546D01*
X311935Y63467D01*
X311992Y63385D01*
X312046Y63301D01*
X312096Y63215D01*
X312143Y63127D01*
X312187Y63037D01*
X312227Y62946D01*
X312263Y62853D01*
X312296Y62759D01*
X312325Y62663D01*
X312350Y62567D01*
X312371Y62470D01*
X312389Y62371D01*
X312402Y62273D01*
X312412Y62173D01*
X312418Y62074D01*
X312420Y61974D01*
X312420Y46734D01*
X312418Y46634D01*
X312412Y46535D01*
X312402Y46435D01*
X312389Y46337D01*
X312371Y46238D01*
X312350Y46141D01*
X312325Y46045D01*
X312296Y45949D01*
X312263Y45855D01*
X312227Y45762D01*
X312187Y45671D01*
X312143Y45581D01*
X312096Y45493D01*
X312046Y45407D01*
X311992Y45323D01*
X311935Y45241D01*
X311875Y45162D01*
X311811Y45084D01*
X311745Y45010D01*
X311676Y44938D01*
X311604Y44869D01*
X311530Y44803D01*
X311452Y44739D01*
X311373Y44679D01*
X311291Y44622D01*
X311207Y44568D01*
X311121Y44518D01*
X311033Y44471D01*
X310943Y44427D01*
X310852Y44387D01*
X310759Y44351D01*
X310665Y44318D01*
X310569Y44289D01*
X310473Y44264D01*
X310376Y44243D01*
X310277Y44225D01*
X310179Y44212D01*
X310079Y44202D01*
X309980Y44196D01*
X309880Y44194D01*
X269240Y64514D02*
X269140Y64512D01*
X269041Y64506D01*
X268941Y64496D01*
X268843Y64483D01*
X268744Y64465D01*
X268647Y64444D01*
X268551Y64419D01*
X268455Y64390D01*
X268361Y64357D01*
X268268Y64321D01*
X268177Y64281D01*
X268087Y64237D01*
X267999Y64190D01*
X267913Y64140D01*
X267829Y64086D01*
X267747Y64029D01*
X267668Y63969D01*
X267590Y63905D01*
X267516Y63839D01*
X267444Y63770D01*
X267375Y63698D01*
X267309Y63624D01*
X267245Y63546D01*
X267185Y63467D01*
X267128Y63385D01*
X267074Y63301D01*
X267024Y63215D01*
X266977Y63127D01*
X266933Y63037D01*
X266893Y62946D01*
X266857Y62853D01*
X266824Y62759D01*
X266795Y62663D01*
X266770Y62567D01*
X266749Y62470D01*
X266731Y62371D01*
X266718Y62273D01*
X266708Y62173D01*
X266702Y62074D01*
X266700Y61974D01*
X266700Y46734D02*
X266702Y46634D01*
X266708Y46535D01*
X266718Y46435D01*
X266731Y46337D01*
X266749Y46238D01*
X266770Y46141D01*
X266795Y46045D01*
X266824Y45949D01*
X266857Y45855D01*
X266893Y45762D01*
X266933Y45671D01*
X266977Y45581D01*
X267024Y45493D01*
X267074Y45407D01*
X267128Y45323D01*
X267185Y45241D01*
X267245Y45162D01*
X267309Y45084D01*
X267375Y45010D01*
X267444Y44938D01*
X267516Y44869D01*
X267590Y44803D01*
X267668Y44739D01*
X267747Y44679D01*
X267829Y44622D01*
X267913Y44568D01*
X267999Y44518D01*
X268087Y44471D01*
X268177Y44427D01*
X268268Y44387D01*
X268361Y44351D01*
X268455Y44318D01*
X268551Y44289D01*
X268647Y44264D01*
X268744Y44243D01*
X268843Y44225D01*
X268941Y44212D01*
X269041Y44202D01*
X269140Y44196D01*
X269240Y44194D01*
X309880Y44194D01*
X266700Y46734D02*
X266700Y61974D01*
X269240Y64514D02*
X309880Y64514D01*
D12*
X273050Y54354D03*
D13*
X315595Y54354D03*
X263525Y54354D03*
D11*
X161930Y38100D02*
X155580Y38100D01*
X172090Y44450D02*
X172090Y31750D01*
X161930Y38100D01*
X177170Y38100D01*
X172090Y44450D02*
X161930Y38100D01*
X161930Y44450D01*
X161930Y38100D02*
X161930Y31750D01*
X182250Y48260D02*
X182350Y48258D01*
X182449Y48252D01*
X182549Y48242D01*
X182647Y48229D01*
X182746Y48211D01*
X182843Y48190D01*
X182939Y48165D01*
X183035Y48136D01*
X183129Y48103D01*
X183222Y48067D01*
X183313Y48027D01*
X183403Y47983D01*
X183491Y47936D01*
X183577Y47886D01*
X183661Y47832D01*
X183743Y47775D01*
X183822Y47715D01*
X183900Y47651D01*
X183974Y47585D01*
X184046Y47516D01*
X184115Y47444D01*
X184181Y47370D01*
X184245Y47292D01*
X184305Y47213D01*
X184362Y47131D01*
X184416Y47047D01*
X184466Y46961D01*
X184513Y46873D01*
X184557Y46783D01*
X184597Y46692D01*
X184633Y46599D01*
X184666Y46505D01*
X184695Y46409D01*
X184720Y46313D01*
X184741Y46216D01*
X184759Y46117D01*
X184772Y46019D01*
X184782Y45919D01*
X184788Y45820D01*
X184790Y45720D01*
X184790Y30480D01*
X184788Y30380D01*
X184782Y30281D01*
X184772Y30181D01*
X184759Y30083D01*
X184741Y29984D01*
X184720Y29887D01*
X184695Y29791D01*
X184666Y29695D01*
X184633Y29601D01*
X184597Y29508D01*
X184557Y29417D01*
X184513Y29327D01*
X184466Y29239D01*
X184416Y29153D01*
X184362Y29069D01*
X184305Y28987D01*
X184245Y28908D01*
X184181Y28830D01*
X184115Y28756D01*
X184046Y28684D01*
X183974Y28615D01*
X183900Y28549D01*
X183822Y28485D01*
X183743Y28425D01*
X183661Y28368D01*
X183577Y28314D01*
X183491Y28264D01*
X183403Y28217D01*
X183313Y28173D01*
X183222Y28133D01*
X183129Y28097D01*
X183035Y28064D01*
X182939Y28035D01*
X182843Y28010D01*
X182746Y27989D01*
X182647Y27971D01*
X182549Y27958D01*
X182449Y27948D01*
X182350Y27942D01*
X182250Y27940D01*
X141610Y48260D02*
X141510Y48258D01*
X141411Y48252D01*
X141311Y48242D01*
X141213Y48229D01*
X141114Y48211D01*
X141017Y48190D01*
X140921Y48165D01*
X140825Y48136D01*
X140731Y48103D01*
X140638Y48067D01*
X140547Y48027D01*
X140457Y47983D01*
X140369Y47936D01*
X140283Y47886D01*
X140199Y47832D01*
X140117Y47775D01*
X140038Y47715D01*
X139960Y47651D01*
X139886Y47585D01*
X139814Y47516D01*
X139745Y47444D01*
X139679Y47370D01*
X139615Y47292D01*
X139555Y47213D01*
X139498Y47131D01*
X139444Y47047D01*
X139394Y46961D01*
X139347Y46873D01*
X139303Y46783D01*
X139263Y46692D01*
X139227Y46599D01*
X139194Y46505D01*
X139165Y46409D01*
X139140Y46313D01*
X139119Y46216D01*
X139101Y46117D01*
X139088Y46019D01*
X139078Y45919D01*
X139072Y45820D01*
X139070Y45720D01*
X139070Y30480D02*
X139072Y30380D01*
X139078Y30281D01*
X139088Y30181D01*
X139101Y30083D01*
X139119Y29984D01*
X139140Y29887D01*
X139165Y29791D01*
X139194Y29695D01*
X139227Y29601D01*
X139263Y29508D01*
X139303Y29417D01*
X139347Y29327D01*
X139394Y29239D01*
X139444Y29153D01*
X139498Y29069D01*
X139555Y28987D01*
X139615Y28908D01*
X139679Y28830D01*
X139745Y28756D01*
X139814Y28684D01*
X139886Y28615D01*
X139960Y28549D01*
X140038Y28485D01*
X140117Y28425D01*
X140199Y28368D01*
X140283Y28314D01*
X140369Y28264D01*
X140457Y28217D01*
X140547Y28173D01*
X140638Y28133D01*
X140731Y28097D01*
X140825Y28064D01*
X140921Y28035D01*
X141017Y28010D01*
X141114Y27989D01*
X141213Y27971D01*
X141311Y27958D01*
X141411Y27948D01*
X141510Y27942D01*
X141610Y27940D01*
X182250Y27940D01*
X139070Y30480D02*
X139070Y45720D01*
X141610Y48260D02*
X182250Y48260D01*
D12*
X145420Y38100D03*
D13*
X187965Y38100D03*
X135895Y38100D03*
D11*
X64140Y63886D02*
X57790Y63886D01*
X74300Y70236D02*
X74300Y57536D01*
X64140Y63886D01*
X79380Y63886D01*
X74300Y70236D02*
X64140Y63886D01*
X64140Y70236D01*
X64140Y63886D02*
X64140Y57536D01*
X84460Y74046D02*
X84560Y74044D01*
X84659Y74038D01*
X84759Y74028D01*
X84857Y74015D01*
X84956Y73997D01*
X85053Y73976D01*
X85149Y73951D01*
X85245Y73922D01*
X85339Y73889D01*
X85432Y73853D01*
X85523Y73813D01*
X85613Y73769D01*
X85701Y73722D01*
X85787Y73672D01*
X85871Y73618D01*
X85953Y73561D01*
X86032Y73501D01*
X86110Y73437D01*
X86184Y73371D01*
X86256Y73302D01*
X86325Y73230D01*
X86391Y73156D01*
X86455Y73078D01*
X86515Y72999D01*
X86572Y72917D01*
X86626Y72833D01*
X86676Y72747D01*
X86723Y72659D01*
X86767Y72569D01*
X86807Y72478D01*
X86843Y72385D01*
X86876Y72291D01*
X86905Y72195D01*
X86930Y72099D01*
X86951Y72002D01*
X86969Y71903D01*
X86982Y71805D01*
X86992Y71705D01*
X86998Y71606D01*
X87000Y71506D01*
X87000Y56266D01*
X86998Y56166D01*
X86992Y56067D01*
X86982Y55967D01*
X86969Y55869D01*
X86951Y55770D01*
X86930Y55673D01*
X86905Y55577D01*
X86876Y55481D01*
X86843Y55387D01*
X86807Y55294D01*
X86767Y55203D01*
X86723Y55113D01*
X86676Y55025D01*
X86626Y54939D01*
X86572Y54855D01*
X86515Y54773D01*
X86455Y54694D01*
X86391Y54616D01*
X86325Y54542D01*
X86256Y54470D01*
X86184Y54401D01*
X86110Y54335D01*
X86032Y54271D01*
X85953Y54211D01*
X85871Y54154D01*
X85787Y54100D01*
X85701Y54050D01*
X85613Y54003D01*
X85523Y53959D01*
X85432Y53919D01*
X85339Y53883D01*
X85245Y53850D01*
X85149Y53821D01*
X85053Y53796D01*
X84956Y53775D01*
X84857Y53757D01*
X84759Y53744D01*
X84659Y53734D01*
X84560Y53728D01*
X84460Y53726D01*
X43820Y74046D02*
X43720Y74044D01*
X43621Y74038D01*
X43521Y74028D01*
X43423Y74015D01*
X43324Y73997D01*
X43227Y73976D01*
X43131Y73951D01*
X43035Y73922D01*
X42941Y73889D01*
X42848Y73853D01*
X42757Y73813D01*
X42667Y73769D01*
X42579Y73722D01*
X42493Y73672D01*
X42409Y73618D01*
X42327Y73561D01*
X42248Y73501D01*
X42170Y73437D01*
X42096Y73371D01*
X42024Y73302D01*
X41955Y73230D01*
X41889Y73156D01*
X41825Y73078D01*
X41765Y72999D01*
X41708Y72917D01*
X41654Y72833D01*
X41604Y72747D01*
X41557Y72659D01*
X41513Y72569D01*
X41473Y72478D01*
X41437Y72385D01*
X41404Y72291D01*
X41375Y72195D01*
X41350Y72099D01*
X41329Y72002D01*
X41311Y71903D01*
X41298Y71805D01*
X41288Y71705D01*
X41282Y71606D01*
X41280Y71506D01*
X41280Y56266D02*
X41282Y56166D01*
X41288Y56067D01*
X41298Y55967D01*
X41311Y55869D01*
X41329Y55770D01*
X41350Y55673D01*
X41375Y55577D01*
X41404Y55481D01*
X41437Y55387D01*
X41473Y55294D01*
X41513Y55203D01*
X41557Y55113D01*
X41604Y55025D01*
X41654Y54939D01*
X41708Y54855D01*
X41765Y54773D01*
X41825Y54694D01*
X41889Y54616D01*
X41955Y54542D01*
X42024Y54470D01*
X42096Y54401D01*
X42170Y54335D01*
X42248Y54271D01*
X42327Y54211D01*
X42409Y54154D01*
X42493Y54100D01*
X42579Y54050D01*
X42667Y54003D01*
X42757Y53959D01*
X42848Y53919D01*
X42941Y53883D01*
X43035Y53850D01*
X43131Y53821D01*
X43227Y53796D01*
X43324Y53775D01*
X43423Y53757D01*
X43521Y53744D01*
X43621Y53734D01*
X43720Y53728D01*
X43820Y53726D01*
X84460Y53726D01*
X41280Y56266D02*
X41280Y71506D01*
X43820Y74046D02*
X84460Y74046D01*
D12*
X47630Y63886D03*
D13*
X90175Y63886D03*
X38105Y63886D03*
D14*
X239270Y-39000D02*
X271270Y-39000D01*
X271270Y-88000D01*
X239270Y-88000D01*
X239270Y-39000D01*
X235770Y-37450D02*
X220520Y-37450D01*
D15*
X-3449Y-292364D03*
D16*
X-13794Y-266784D02*
X-13794Y-191854D01*
X337096Y-191854D02*
X337096Y-266784D01*
D14*
X181100Y-26300D02*
X149100Y-26300D01*
X181100Y-26300D02*
X181100Y-75300D01*
X149100Y-75300D01*
X149100Y-26300D01*
X145600Y-24750D02*
X130350Y-24750D01*
X78230Y-45350D02*
X46230Y-45350D01*
X78230Y-45350D02*
X78230Y-94350D01*
X46230Y-94350D01*
X46230Y-45350D01*
X42730Y-43800D02*
X27480Y-43800D01*
X276100Y164200D02*
X308100Y164200D01*
X308100Y115200D01*
X276100Y115200D01*
X276100Y164200D01*
X272600Y165500D02*
X257600Y165500D01*
X181100Y164200D02*
X149100Y164200D01*
X181100Y164200D02*
X181100Y115200D01*
X149100Y115200D01*
X149100Y164200D01*
X145600Y165500D02*
X130600Y165500D01*
X54100Y164200D02*
X22100Y164200D01*
X54100Y164200D02*
X54100Y115200D01*
X22100Y115200D01*
X22100Y164200D01*
X18600Y165500D02*
X3600Y165500D01*
D10*
X323302Y89090D02*
X323302Y72090D01*
X339320Y72090D02*
X339320Y89090D01*
X55491Y97400D02*
X55491Y80400D01*
X71509Y80400D02*
X71509Y97400D01*
X-8009Y97400D02*
X-8009Y80400D01*
X8009Y80400D02*
X8009Y97400D01*
X30091Y97400D02*
X30091Y80400D01*
X46109Y80400D02*
X46109Y97400D01*
X12311Y97400D02*
X12311Y80400D01*
X28329Y80400D02*
X28329Y97400D01*
X-32218Y-220100D02*
X-32218Y-237100D01*
X-16200Y-237100D02*
X-16200Y-220100D01*
X258691Y80400D02*
X258691Y97400D01*
X274709Y97400D02*
X274709Y80400D01*
X321150Y74050D02*
X321150Y91050D01*
X305132Y91050D02*
X305132Y74050D01*
X284091Y80400D02*
X284091Y97400D01*
X300109Y97400D02*
X300109Y80400D01*
X206129Y87240D02*
X206129Y70240D01*
X190111Y70240D02*
X190111Y87240D01*
X118992Y82350D02*
X118992Y99350D01*
X135010Y99350D02*
X135010Y82350D01*
X163441Y76590D02*
X163441Y93590D01*
X179459Y93590D02*
X179459Y76590D01*
X144391Y80400D02*
X144391Y97400D01*
X160409Y97400D02*
X160409Y80400D01*
D17*
X137390Y-94591D02*
X137390Y-152091D01*
X261390Y-152091D01*
X261390Y-94591D01*
X137390Y-94591D01*
X237390Y-95166D02*
X237390Y-100166D01*
X160390Y-100166D02*
X160390Y-95166D01*
X103100Y232775D02*
X103100Y290275D01*
X103100Y232775D02*
X227100Y232775D01*
X227100Y290275D01*
X103100Y290275D01*
X203100Y289700D02*
X203100Y284700D01*
X126100Y284700D02*
X126100Y289700D01*
X255100Y284713D02*
X255100Y227213D01*
X329100Y227213D01*
X329100Y284713D01*
X255100Y284713D01*
D14*
X305100Y284138D02*
X305100Y279138D01*
X279100Y279138D02*
X279100Y284138D01*
X279100Y279138D02*
X305100Y279138D01*
D17*
X272880Y-95805D02*
X272880Y-153305D01*
X346880Y-153305D01*
X346880Y-95805D01*
X272880Y-95805D01*
D14*
X322880Y-96380D02*
X322880Y-101380D01*
X296880Y-101380D02*
X296880Y-96380D01*
X296880Y-101380D02*
X322880Y-101380D01*
D17*
X-11400Y232775D02*
X-11400Y290275D01*
X-11400Y232775D02*
X87600Y232775D01*
X87600Y290275D01*
X-11400Y290275D01*
X64100Y289700D02*
X64100Y284700D01*
X13100Y284700D02*
X13100Y289700D01*
D16*
X18300Y-102000D02*
X17691Y-102007D01*
X17083Y-102030D01*
X16475Y-102067D01*
X15869Y-102119D01*
X15263Y-102185D01*
X14660Y-102266D01*
X14059Y-102362D01*
X13460Y-102473D01*
X12864Y-102598D01*
X12272Y-102738D01*
X11683Y-102892D01*
X11098Y-103060D01*
X10517Y-103242D01*
X9940Y-103439D01*
X9369Y-103650D01*
X8803Y-103874D01*
X8243Y-104112D01*
X7689Y-104364D01*
X7141Y-104629D01*
X6599Y-104907D01*
X6065Y-105199D01*
X5537Y-105503D01*
X5018Y-105820D01*
X4506Y-106150D01*
X4002Y-106492D01*
X3507Y-106846D01*
X3021Y-107213D01*
X2543Y-107591D01*
X2075Y-107980D01*
X1617Y-108381D01*
X1169Y-108792D01*
X730Y-109215D01*
X302Y-109648D01*
X-115Y-110092D01*
X-521Y-110545D01*
X-916Y-111008D01*
X-1300Y-111481D01*
X-1672Y-111963D01*
X-2032Y-112454D01*
X-2380Y-112953D01*
X-2716Y-113461D01*
X-3040Y-113976D01*
X-3351Y-114500D01*
X-3649Y-115031D01*
X-3934Y-115569D01*
X-4205Y-116114D01*
X-4464Y-116665D01*
X-4709Y-117222D01*
X-4940Y-117786D01*
X-5157Y-118354D01*
X-5361Y-118928D01*
X-5551Y-119507D01*
X-5726Y-120090D01*
X-5887Y-120677D01*
X-6034Y-121268D01*
X-6166Y-121862D01*
X-6284Y-122459D01*
X-6387Y-123059D01*
X-6476Y-123661D01*
X-6550Y-124266D01*
X-6609Y-124872D01*
X-6654Y-125479D01*
X-6683Y-126087D01*
X-6698Y-126696D01*
X-6698Y-127304D01*
X-6683Y-127913D01*
X-6654Y-128521D01*
X-6609Y-129128D01*
X-6550Y-129734D01*
X-6476Y-130339D01*
X-6387Y-130941D01*
X-6284Y-131541D01*
X-6166Y-132138D01*
X-6034Y-132732D01*
X-5887Y-133323D01*
X-5726Y-133910D01*
X-5551Y-134493D01*
X-5361Y-135072D01*
X-5157Y-135646D01*
X-4940Y-136214D01*
X-4709Y-136778D01*
X-4464Y-137335D01*
X-4205Y-137886D01*
X-3934Y-138431D01*
X-3649Y-138969D01*
X-3351Y-139500D01*
X-3040Y-140024D01*
X-2716Y-140539D01*
X-2380Y-141047D01*
X-2032Y-141546D01*
X-1672Y-142037D01*
X-1300Y-142519D01*
X-916Y-142992D01*
X-521Y-143455D01*
X-115Y-143908D01*
X302Y-144352D01*
X730Y-144785D01*
X1169Y-145208D01*
X1617Y-145619D01*
X2075Y-146020D01*
X2543Y-146409D01*
X3021Y-146787D01*
X3507Y-147154D01*
X4002Y-147508D01*
X4506Y-147850D01*
X5018Y-148180D01*
X5537Y-148497D01*
X6065Y-148801D01*
X6599Y-149093D01*
X7141Y-149371D01*
X7689Y-149636D01*
X8243Y-149888D01*
X8803Y-150126D01*
X9369Y-150350D01*
X9940Y-150561D01*
X10517Y-150758D01*
X11098Y-150940D01*
X11683Y-151108D01*
X12272Y-151262D01*
X12864Y-151402D01*
X13460Y-151527D01*
X14059Y-151638D01*
X14660Y-151734D01*
X15263Y-151815D01*
X15869Y-151881D01*
X16475Y-151933D01*
X17083Y-151970D01*
X17691Y-151993D01*
X18300Y-152000D01*
X18300Y-102000D02*
X83300Y-102000D01*
X83909Y-102007D01*
X84517Y-102030D01*
X85125Y-102067D01*
X85731Y-102119D01*
X86337Y-102185D01*
X86940Y-102266D01*
X87541Y-102362D01*
X88140Y-102473D01*
X88736Y-102598D01*
X89328Y-102738D01*
X89917Y-102892D01*
X90502Y-103060D01*
X91083Y-103242D01*
X91660Y-103439D01*
X92231Y-103650D01*
X92797Y-103874D01*
X93357Y-104112D01*
X93911Y-104364D01*
X94459Y-104629D01*
X95001Y-104907D01*
X95535Y-105199D01*
X96063Y-105503D01*
X96582Y-105820D01*
X97094Y-106150D01*
X97598Y-106492D01*
X98093Y-106846D01*
X98579Y-107213D01*
X99057Y-107591D01*
X99525Y-107980D01*
X99983Y-108381D01*
X100431Y-108792D01*
X100870Y-109215D01*
X101298Y-109648D01*
X101715Y-110092D01*
X102121Y-110545D01*
X102516Y-111008D01*
X102900Y-111481D01*
X103272Y-111963D01*
X103632Y-112454D01*
X103980Y-112953D01*
X104316Y-113461D01*
X104640Y-113976D01*
X104951Y-114500D01*
X105249Y-115031D01*
X105534Y-115569D01*
X105805Y-116114D01*
X106064Y-116665D01*
X106309Y-117222D01*
X106540Y-117786D01*
X106757Y-118354D01*
X106961Y-118928D01*
X107151Y-119507D01*
X107326Y-120090D01*
X107487Y-120677D01*
X107634Y-121268D01*
X107766Y-121862D01*
X107884Y-122459D01*
X107987Y-123059D01*
X108076Y-123661D01*
X108150Y-124266D01*
X108209Y-124872D01*
X108254Y-125479D01*
X108283Y-126087D01*
X108298Y-126696D01*
X108298Y-127304D01*
X108283Y-127913D01*
X108254Y-128521D01*
X108209Y-129128D01*
X108150Y-129734D01*
X108076Y-130339D01*
X107987Y-130941D01*
X107884Y-131541D01*
X107766Y-132138D01*
X107634Y-132732D01*
X107487Y-133323D01*
X107326Y-133910D01*
X107151Y-134493D01*
X106961Y-135072D01*
X106757Y-135646D01*
X106540Y-136214D01*
X106309Y-136778D01*
X106064Y-137335D01*
X105805Y-137886D01*
X105534Y-138431D01*
X105249Y-138969D01*
X104951Y-139500D01*
X104640Y-140024D01*
X104316Y-140539D01*
X103980Y-141047D01*
X103632Y-141546D01*
X103272Y-142037D01*
X102900Y-142519D01*
X102516Y-142992D01*
X102121Y-143455D01*
X101715Y-143908D01*
X101298Y-144352D01*
X100870Y-144785D01*
X100431Y-145208D01*
X99983Y-145619D01*
X99525Y-146020D01*
X99057Y-146409D01*
X98579Y-146787D01*
X98093Y-147154D01*
X97598Y-147508D01*
X97094Y-147850D01*
X96582Y-148180D01*
X96063Y-148497D01*
X95535Y-148801D01*
X95001Y-149093D01*
X94459Y-149371D01*
X93911Y-149636D01*
X93357Y-149888D01*
X92797Y-150126D01*
X92231Y-150350D01*
X91660Y-150561D01*
X91083Y-150758D01*
X90502Y-150940D01*
X89917Y-151108D01*
X89328Y-151262D01*
X88736Y-151402D01*
X88140Y-151527D01*
X87541Y-151638D01*
X86940Y-151734D01*
X86337Y-151815D01*
X85731Y-151881D01*
X85125Y-151933D01*
X84517Y-151970D01*
X83909Y-151993D01*
X83300Y-152000D01*
X18300Y-152000D01*
M02*
