G04 EAGLE Gerber RS-274X export*
G75*
%MOMM*%
%FSLAX34Y34*%
%LPD*%
%INSoldermask Bottom*%
%IPPOS*%
%AMOC8*
5,1,8,0,0,1.08239X$1,22.5*%
G01*
G04 Define Apertures*
%ADD10C,3.403200*%
%ADD11C,1.778000*%
%ADD12C,1.016000*%
%ADD13C,1.524000*%
%ADD14C,1.644200*%
%ADD15C,1.727200*%
%ADD16C,1.460200*%
%ADD17C,0.959600*%
D10*
X0Y0D03*
X319790Y0D03*
D11*
X304800Y190500D02*
X304800Y228600D01*
X304800Y190500D02*
X279400Y190500D01*
X152400Y190500D01*
X25400Y190500D01*
D12*
X25400Y139700D01*
X152400Y139700D02*
X152400Y190500D01*
X279400Y190500D02*
X279400Y133350D01*
X280670Y132080D01*
D13*
X258064Y54354D02*
X244856Y54354D01*
X321056Y54354D02*
X334264Y54354D01*
X130434Y38100D02*
X117226Y38100D01*
X193426Y38100D02*
X206634Y38100D01*
X32644Y63886D02*
X19436Y63886D01*
X95636Y63886D02*
X108844Y63886D01*
D14*
X-3449Y-280119D03*
X21951Y-280119D03*
X47351Y-280119D03*
X72751Y-280119D03*
X98151Y-280119D03*
X123551Y-280119D03*
X148951Y-280119D03*
X174351Y-280119D03*
X199751Y-280119D03*
X225151Y-280119D03*
X250551Y-280119D03*
X275951Y-280119D03*
X301351Y-280119D03*
X326751Y-280119D03*
X326751Y-178519D03*
X301351Y-178519D03*
X275951Y-178519D03*
X250551Y-178519D03*
X225151Y-178519D03*
X199751Y-178519D03*
X174351Y-178519D03*
X148951Y-178519D03*
X123551Y-178519D03*
X98151Y-178519D03*
X72751Y-178519D03*
X47351Y-178519D03*
X21951Y-178519D03*
X-3449Y-178519D03*
D15*
X186690Y-125786D02*
X186690Y-110546D01*
X212090Y-110546D02*
X212090Y-125786D01*
X237490Y-125786D02*
X237490Y-110546D01*
X161290Y-110546D02*
X161290Y-125786D01*
X152400Y259080D02*
X152400Y274320D01*
X177800Y274320D02*
X177800Y259080D01*
X203200Y259080D02*
X203200Y274320D01*
X127000Y274320D02*
X127000Y259080D01*
X279400Y253518D02*
X279400Y268758D01*
X304800Y268758D02*
X304800Y253518D01*
X297180Y-111760D02*
X297180Y-127000D01*
X322580Y-127000D02*
X322580Y-111760D01*
X12700Y259080D02*
X12700Y274320D01*
X38100Y274320D02*
X38100Y259080D01*
X63500Y259080D02*
X63500Y274320D01*
D16*
X26400Y-127000D03*
X75200Y-127000D03*
D17*
X117348Y-247650D03*
X-6858Y-160020D03*
X286512Y-23622D03*
X67056Y-220980D03*
X71628Y0D03*
X39624Y-32004D03*
X292608Y28194D03*
X295656Y-71628D03*
X215646Y69342D03*
X215646Y-7620D03*
X106680Y-147828D03*
X147066Y-142494D03*
X143256Y-211836D03*
X136398Y-177546D03*
X98298Y172438D03*
X184404Y172212D03*
X224790Y172212D03*
X239268Y-15240D03*
X92202Y128778D03*
X142494Y27432D03*
X95250Y-1524D03*
X76200Y-70866D03*
X1524Y64770D03*
X25146Y139446D03*
X151638Y139446D03*
X279654Y133350D03*
M02*
