M48
;GenerationSoftware,Autodesk,EAGLE,9.7.0*%
;CreationDate,2022-04-13T22:01:03Z*%
FMAT,2
ICI,OFF
METRIC,TZ,000.000
T7C0.350
T6C0.657
T5C0.813
T4C0.841
T3C1.016
T2C3.200
%
G90
M71
T2
X0Y0
X31979Y0
T3
X3810Y26670
X1270Y26670
X32258Y-11938
X29718Y-11938
X30480Y26114
X27940Y26114
X20320Y26670
X17780Y26670
X15240Y26670
X16129Y-11817
X23749Y-11817
X12700Y26670
X21209Y-11817
X18669Y-11817
X6350Y26670
T4
X27595Y-28012
X30135Y-28012
X32675Y-28012
X30135Y-17852
X27595Y-17852
X25055Y-17852
X22515Y-17852
X19975Y-17852
X17435Y-17852
X32675Y-17852
X14895Y-17852
X12355Y-17852
X9815Y-17852
X7275Y-17852
X4735Y-17852
X-345Y-17852
X12355Y-28012
X-345Y-28012
X2195Y-28012
X4735Y-28012
X7275Y-28012
X9815Y-28012
X2195Y-17852
X14895Y-28012
X17435Y-28012
X19975Y-28012
X22515Y-28012
X25055Y-28012
T5
X2604Y6389
X12383Y3810
X25146Y5435
X32766Y5435
X20003Y3810
X10224Y6389
T6
X2640Y-12700
X7520Y-12700
T7
X-686Y-16002
X28651Y-2362
X6706Y-22098
X7163Y0
X3962Y-3200
X29261Y2819
X29566Y-7163
X21565Y6934
X10668Y-14783
X14707Y-14249
X14326Y-21184
X9830Y17244
X13640Y-17755
X27965Y13335
X15164Y13945
X2515Y13945
X21565Y-762
X152Y6477
X7620Y-7087
X9525Y-152
X14249Y2743
X9220Y12878
X23927Y-1524
X22479Y17221
X18440Y17221
X11735Y-24765
M30